<svg width="16" height="3" viewBox="0 0 16 3" fill="none"
  xmlns="http://www.w3.org/2000/svg">
  <g clip-path="url(#clip0_5951_82133)">
    <path d="M9.6178 1.97934C9.61234 1.99523 9.60339 2.0097 9.59163 2.02168C9.58162 2.03012 9.56881 2.0345 9.55574 2.03395C9.54326 2.03401 9.53116 2.02967 9.52155 2.02168C9.50872 2.01025 9.49912 1.99565 9.49368 1.97934L9.03395 0.709595H8.7207L9.23659 2.08391C9.26017 2.15223 9.30445 2.21144 9.36324 2.25327C9.41938 2.29239 9.48611 2.31335 9.55448 2.31335C9.62284 2.31335 9.68957 2.29239 9.74572 2.25327C9.80355 2.21046 9.84758 2.15158 9.87237 2.08391L10.3849 0.709595H10.0784L9.6178 1.97934Z" fill="#5F58FF"/>
    <path d="M15.944 0.709595H15.6282L15.2132 1.34468H14.7674V0.709595H14.4824V2.27613H14.7674V1.59194H15.2259L15.6776 2.27783H16.0001L15.458 1.4446L15.944 0.709595Z" fill="#5F58FF"/>
    <path d="M7.95441 0.737931C7.89888 0.698159 7.83225 0.676971 7.76402 0.677387C7.69534 0.676655 7.62816 0.697533 7.57193 0.737085C7.51419 0.77998 7.47017 0.838836 7.44528 0.90644L6.93066 2.28288H7.23716L7.3638 1.93019H8.15198L8.27863 2.28288H8.59146L8.07979 0.908557C8.05668 0.840004 8.01286 0.780369 7.95441 0.737931ZM7.45499 1.68421L7.699 1.01313C7.70457 0.997287 7.7135 0.982841 7.72518 0.970795C7.73529 0.962524 7.74802 0.958167 7.76106 0.958517C7.77351 0.958665 7.78554 0.962987 7.79526 0.970795C7.80794 0.982343 7.81752 0.996902 7.82312 1.01313L8.06544 1.68421H7.45499Z" fill="#5F58FF"/>
    <path d="M12.0021 1.57374C12.0431 1.53009 12.0748 1.47852 12.0952 1.42218C12.1157 1.36584 12.1245 1.3059 12.1211 1.24604V1.15543C12.1246 1.09556 12.1158 1.03562 12.0953 0.979268C12.0748 0.922921 12.0431 0.871355 12.0021 0.827729C11.9577 0.786893 11.9057 0.755397 11.849 0.735107C11.7922 0.714817 11.7321 0.706144 11.6719 0.709604H10.8213V2.27614H11.1062V1.69356H11.5597L11.9016 2.27911H12.2271L11.8632 1.66138C11.9156 1.64286 11.9634 1.61293 12.0029 1.57374H12.0021ZM11.8362 1.22783C11.8379 1.25746 11.8337 1.28714 11.8238 1.31513C11.814 1.34311 11.7986 1.36885 11.7788 1.39084C11.7575 1.41096 11.7324 1.42653 11.705 1.43657C11.6775 1.44662 11.6483 1.45094 11.6192 1.44926H11.1062V0.952205H11.6196C11.6487 0.950688 11.6778 0.955082 11.7051 0.965122C11.7325 0.975163 11.7575 0.990643 11.7788 1.01063C11.7986 1.03264 11.8138 1.05839 11.8236 1.08638C11.8334 1.11437 11.8375 1.14403 11.8357 1.17364L11.8362 1.22783Z" fill="#5F58FF"/>
    <path d="M13.3305 1.39719C13.3174 1.41963 13.3031 1.45858 13.2735 1.45943H13.2664C13.2368 1.45943 13.222 1.41963 13.2094 1.39719C13.1224 1.23376 12.9662 0.942046 12.8387 0.704102H12.501L12.7602 1.17406L12.9181 1.46027C12.9466 1.51777 12.9795 1.57297 13.0164 1.6254C13.0457 1.66085 13.0821 1.6897 13.1232 1.71007V2.27868H13.4162V1.71092C13.4573 1.69043 13.4937 1.6616 13.523 1.62624C13.5601 1.57387 13.593 1.51866 13.6214 1.46112L13.7789 1.17533L14.0381 0.705372H13.7003L13.3301 1.39719H13.3305Z" fill="#5F58FF"/>
    <path d="M6.4817 0.712141H5.84466C5.83425 0.712052 5.82418 0.715822 5.81637 0.722726L5.50186 1.00005C5.49679 0.989884 5.49215 0.979723 5.48624 0.969562C5.43566 0.88046 5.36142 0.807178 5.27178 0.757867C5.16864 0.702616 5.05306 0.674913 4.93616 0.677423H4.93067C4.8132 0.67393 4.69683 0.701064 4.59294 0.756174C4.5031 0.80535 4.42869 0.878655 4.37806 0.967868C4.32804 1.05851 4.30243 1.16065 4.30376 1.26424V2.2863H4.59632V1.26382C4.5948 1.20457 4.60939 1.14602 4.63854 1.09446C4.66737 1.04427 4.70909 1.00275 4.75936 0.974234C4.80962 0.945714 4.8666 0.931234 4.92434 0.932304H4.93912C4.99686 0.931234 5.05383 0.945714 5.1041 0.974234C5.15437 1.00275 5.19609 1.04427 5.22492 1.09446C5.25412 1.146 5.26872 1.20456 5.26714 1.26382V2.2863H5.5597V1.32902L6.13173 0.824763C6.13947 0.818057 6.14897 0.813713 6.15909 0.812243C6.16922 0.810774 6.17955 0.81224 6.18887 0.816469C6.19819 0.820697 6.20611 0.827512 6.21169 0.836109C6.21728 0.844706 6.22029 0.854725 6.22038 0.864985V2.28376H6.5235V0.754904C6.52355 0.749343 6.52252 0.743827 6.52045 0.738669C6.51837 0.73351 6.51531 0.728812 6.51143 0.724841C6.50755 0.72087 6.50293 0.717705 6.49783 0.715526C6.49273 0.713347 6.48725 0.712197 6.4817 0.712141Z" fill="#5F58FF"/>
    <path fill-rule="evenodd" clip-rule="evenodd" d="M2.29847 2.71398C2.05548 2.87681 1.76981 2.96372 1.47757 2.96372C1.0857 2.96372 0.70987 2.8076 0.432771 2.5297C0.155672 2.25179 0 1.87488 0 1.48186C0 1.18878 0.0866581 0.902275 0.249016 0.658584C0.411374 0.414893 0.642139 0.224959 0.91213 0.112801C1.18212 0.000642058 1.47921 -0.0287037 1.76583 0.0284742C2.05245 0.0856522 2.31573 0.226786 2.52237 0.434028C2.72902 0.64127 2.86974 0.905312 2.92675 1.19276C2.98377 1.48022 2.95451 1.77817 2.84267 2.04895C2.73084 2.31972 2.54145 2.55115 2.29847 2.71398ZM1.73285 1.04233H2.10689H2.10731C2.11059 1.04227 2.11386 1.04288 2.11691 1.04411C2.11996 1.04535 2.12272 1.04719 2.12505 1.04952C2.12737 1.05185 2.1292 1.05463 2.13044 1.05768C2.13167 1.06074 2.13227 1.06401 2.13222 1.06731V1.96532H1.95406V1.13209C1.954 1.12603 1.95221 1.12012 1.94891 1.11506C1.94561 1.10999 1.94094 1.10597 1.93543 1.10348C1.92993 1.10099 1.92384 1.10012 1.91786 1.10099C1.91189 1.10186 1.90628 1.10442 1.90171 1.10838L1.56609 1.40475V1.96489H1.39301V1.36072C1.39346 1.33521 1.38883 1.30987 1.37939 1.28618C1.36996 1.26249 1.3559 1.24093 1.33805 1.22275C1.32021 1.20458 1.29892 1.19015 1.27545 1.18033C1.25197 1.1705 1.22678 1.16548 1.20135 1.16554H1.19501C1.16065 1.16518 1.12682 1.1741 1.09707 1.19136C1.06756 1.2085 1.04315 1.23323 1.02637 1.26301C1.0096 1.29279 1.00106 1.32652 1.00166 1.36072V1.96489H0.829419V1.36072C0.82834 1.30031 0.842884 1.24065 0.871635 1.18755C0.901327 1.13482 0.945217 1.09154 0.998285 1.06265C1.05888 1.03029 1.12681 1.01424 1.19543 1.01608H1.19881C1.2673 1.01427 1.33509 1.03032 1.39554 1.06265C1.44866 1.09147 1.49257 1.13477 1.52219 1.18755C1.52574 1.19361 1.52869 1.19996 1.53155 1.20611C1.53209 1.20727 1.53263 1.20842 1.53317 1.20957L1.71596 1.04868C1.72062 1.04456 1.72663 1.0423 1.73285 1.04233Z" fill="#5F58FF"/>
  </g>
  <defs>
    <clipPath id="clip0_5951_82133">
      <rect width="16" height="3.00606" fill="white"/>
    </clipPath>
  </defs>
</svg>
