<svg width="171" height="32" viewBox="0 0 171 32" fill="none"
  xmlns="http://www.w3.org/2000/svg">
  <g clip-path="url(#clip0_4858_84506)">
    <path d="M102.388 21.0698C102.329 21.2391 102.234 21.3931 102.109 21.5205C102.002 21.6105 101.866 21.6571 101.727 21.6513C101.594 21.6519 101.465 21.6056 101.363 21.5205C101.226 21.3989 101.124 21.2435 101.066 21.0698L96.1724 7.55322H92.8379L98.3296 22.1831C98.5806 22.9103 99.052 23.5406 99.6778 23.9859C100.275 24.4023 100.986 24.6255 101.714 24.6255C102.441 24.6255 103.152 24.4023 103.749 23.9859C104.365 23.5302 104.834 22.9034 105.098 22.1831L110.553 7.55322H107.291L102.388 21.0698Z" fill="#F4F4F4"/>
    <path d="M169.726 7.55322H166.365L161.947 14.3138H157.201V7.55322H154.168V24.2293H157.201V16.9459H162.082L166.89 24.2473H170.324L164.554 15.3774L169.726 7.55322Z" fill="#F4F4F4"/>
    <path d="M84.6812 7.8554C84.09 7.43201 83.3808 7.20647 82.6544 7.21089C81.9233 7.2031 81.2082 7.42535 80.6096 7.84638C79.9949 8.30302 79.5264 8.92954 79.2614 9.6492L73.7832 24.3016H77.0459L78.3941 20.5472H86.7843L88.1325 24.3016H91.4626L86.0159 9.67174C85.7698 8.94198 85.3033 8.30716 84.6812 7.8554ZM79.3648 17.9286L81.9623 10.785C82.0215 10.6163 82.1166 10.4625 82.2409 10.3343C82.3485 10.2462 82.4841 10.1998 82.6229 10.2036C82.7554 10.2051 82.8835 10.2512 82.9869 10.3343C83.1219 10.4572 83.2239 10.6122 83.2835 10.785L85.8631 17.9286H79.3648Z" fill="#F4F4F4"/>
    <path d="M127.759 16.7531C128.196 16.2884 128.533 15.7395 128.751 15.1397C128.969 14.54 129.062 13.902 129.026 13.2647V12.3002C129.063 11.6628 128.969 11.0247 128.752 10.4249C128.534 9.82507 128.196 9.27615 127.759 8.81174C127.287 8.37704 126.733 8.04176 126.129 7.82576C125.525 7.60977 124.885 7.51745 124.245 7.55428H115.189V24.2303H118.223V18.0286H123.049L126.69 24.2619H130.154L126.281 17.6861C126.839 17.489 127.347 17.1704 127.768 16.7531H127.759ZM125.993 13.0709C126.011 13.3863 125.966 13.7022 125.861 14.0002C125.757 14.2981 125.593 14.5721 125.382 14.8061C125.156 15.0203 124.889 15.186 124.597 15.293C124.304 15.3999 123.994 15.4459 123.683 15.4281H118.223V10.1368H123.688C123.997 10.1207 124.307 10.1674 124.598 10.2743C124.889 10.3812 125.156 10.546 125.382 10.7588C125.593 10.9931 125.755 11.2672 125.859 11.5651C125.964 11.8631 126.007 12.1788 125.989 12.494L125.993 13.0709Z" fill="#F4F4F4"/>
    <path d="M141.905 14.8734C141.766 15.1123 141.613 15.5269 141.298 15.5359H141.222C140.907 15.5359 140.75 15.1123 140.615 14.8734C139.689 13.1337 138.027 10.0283 136.669 7.49536H133.074L135.834 12.4982L137.514 15.5449C137.818 16.1569 138.168 16.7446 138.561 17.3027C138.873 17.6801 139.26 17.9873 139.698 18.2041V24.2571H142.817V18.2131C143.254 17.995 143.642 17.688 143.954 17.3117C144.349 16.7542 144.699 16.1665 145.001 15.554L146.678 12.5117L149.437 7.50888H145.842L141.9 14.8734H141.905Z" fill="#F4F4F4"/>
    <path d="M68.9995 7.58102H62.2181C62.1073 7.58007 62.0001 7.6202 61.917 7.69369L58.569 10.6458C58.515 10.5376 58.4656 10.4295 58.4027 10.3213C57.8642 9.3728 57.0739 8.5927 56.1197 8.06778C55.0218 7.47961 53.7914 7.18471 52.547 7.21144H52.4886C51.238 7.17425 49.9993 7.46309 48.8934 8.04975C47.937 8.57323 47.1449 9.35358 46.6059 10.3033C46.0734 11.2681 45.8008 12.3555 45.815 13.4582V24.3382H48.9293V13.4537C48.9132 12.823 49.0685 12.1998 49.3787 11.6509C49.6856 11.1166 50.1298 10.6746 50.6649 10.371C51.2 10.0674 51.8065 9.91329 52.4212 9.92468H52.5784C53.1931 9.91329 53.7996 10.0674 54.3347 10.371C54.8699 10.6746 55.314 11.1166 55.6209 11.6509C55.9317 12.1995 56.0871 12.8229 56.0703 13.4537V24.3382H59.1846V14.1478L65.274 8.77989C65.3564 8.70851 65.4575 8.66226 65.5653 8.64662C65.673 8.63097 65.783 8.64658 65.8823 8.6916C65.9815 8.73661 66.0658 8.80916 66.1252 8.90067C66.1847 8.99219 66.2168 9.09884 66.2177 9.20806V24.3112H69.4444V8.03623C69.445 7.97704 69.434 7.91831 69.4119 7.8634C69.3899 7.80849 69.3573 7.75848 69.316 7.71621C69.2747 7.67393 69.2255 7.64024 69.1712 7.61704C69.1169 7.59385 69.0585 7.58161 68.9995 7.58102Z" fill="#F4F4F4"/>
    <path fill-rule="evenodd" clip-rule="evenodd" d="M24.4676 28.8908C21.8809 30.6241 18.8399 31.5493 15.729 31.5493C11.5574 31.5493 7.55668 29.8873 4.60692 26.929C1.65716 23.9707 0 19.9584 0 15.7747C0 12.6547 0.92249 9.60486 2.65081 7.01073C4.37914 4.4166 6.83567 2.39473 9.70977 1.20078C12.5839 0.00683481 15.7464 -0.305556 18.7976 0.303113C21.8487 0.911781 24.6513 2.41417 26.8511 4.6203C29.0508 6.82642 30.5489 9.63719 31.1558 12.6972C31.7627 15.7572 31.4512 18.9289 30.2607 21.8114C29.0702 24.6938 27.0542 27.1575 24.4676 28.8908ZM18.4465 11.0958H22.4281H22.4326C22.4676 11.0952 22.5024 11.1016 22.5348 11.1148C22.5673 11.1279 22.5967 11.1475 22.6215 11.1723C22.6462 11.1971 22.6657 11.2267 22.6788 11.2592C22.6919 11.2917 22.6984 11.3266 22.6978 11.3617V20.9211H20.8013V12.0513C20.8006 11.9868 20.7816 11.9239 20.7465 11.8699C20.7114 11.816 20.6616 11.7732 20.603 11.7467C20.5444 11.7202 20.4795 11.711 20.4159 11.7202C20.3523 11.7295 20.2927 11.7568 20.2441 11.7989L16.6713 14.9538V20.9166H14.8288V14.4851C14.8336 14.2135 14.7843 13.9438 14.6839 13.6916C14.5834 13.4394 14.4338 13.2099 14.2438 13.0164C14.0538 12.8229 13.8272 12.6694 13.5774 12.5648C13.3275 12.4602 13.0593 12.4067 12.7885 12.4073H12.7211C12.3553 12.4036 11.9952 12.4985 11.6785 12.6822C11.3643 12.8646 11.1045 13.128 10.9259 13.4449C10.7473 13.7619 10.6565 14.121 10.6629 14.4851V20.9166H8.8293V14.4851C8.81781 13.842 8.97264 13.2069 9.2787 12.6417C9.59477 12.0804 10.062 11.6196 10.6269 11.3121C11.2719 10.9676 11.995 10.7967 12.7256 10.8163H12.7615C13.4906 10.7971 14.2122 10.9679 14.8558 11.3121C15.4213 11.6188 15.8887 12.0798 16.204 12.6417C16.2417 12.7061 16.2732 12.7737 16.3036 12.8392C16.3094 12.8516 16.3151 12.8639 16.3208 12.876L18.2667 11.1634C18.3163 11.1195 18.3803 11.0954 18.4465 11.0958Z" fill="#F4F4F4"/>
  </g>
  <defs>
    <clipPath id="clip0_4858_84506">
      <rect width="170.323" height="32" fill="white"/>
    </clipPath>
  </defs>
</svg>
