<svg width="17" height="17" viewBox="0 0 17 17" fill="none" xmlns="http://www.w3.org/2000/svg">
<path fill-rule="evenodd" clip-rule="evenodd" d="M16.0518 8.74854C16.0518 13.1668 12.47 16.7485 8.05176 16.7485C3.63348 16.7485 0.0517578 13.1668 0.0517578 8.74854C0.0517578 4.33026 3.63348 0.748535 8.05176 0.748535C12.47 0.748535 16.0518 4.33026 16.0518 8.74854ZM9.43159 6.37374H11.4569H11.4583C11.5337 6.37374 11.594 6.43403 11.594 6.5094V11.3563H10.6293V6.86021C10.6293 6.71358 10.4566 6.63684 10.347 6.73276L8.52991 8.33057V11.3535H7.59945V8.09213C7.59945 7.89755 7.55149 7.7194 7.45968 7.56182C7.3665 7.40286 7.23906 7.27679 7.08284 7.18497C6.92662 7.09316 6.74711 7.04657 6.55115 7.04657H6.51689C6.32093 7.04657 6.14142 7.09316 5.9852 7.18497C5.82761 7.27679 5.70154 7.40286 5.60836 7.56182C5.51518 7.7194 5.46859 7.89755 5.46859 8.09213V11.3535H4.53813V8.09213C4.53813 7.75366 4.61761 7.43986 4.77383 7.15894C4.93005 6.87802 5.16026 6.65054 5.45625 6.48336C5.75087 6.31618 6.11127 6.23259 6.52374 6.23259H6.54156C6.9554 6.23259 7.31442 6.31755 7.60905 6.48336C7.90504 6.64917 8.13388 6.87665 8.29147 7.15894C8.3134 7.19731 8.33258 7.23705 8.35177 7.27679L9.34115 6.408C9.36718 6.38607 9.3987 6.37374 9.43159 6.37374Z" fill="#5F58FF"/>
</svg>
