<svg xmlns="http://www.w3.org/2000/svg" viewBox="0 0 16 18" fill="none">
  <path d="M14.72 0.85H2.4C2.15472 0.85 1.97 1.05801 1.97 1.2963V3.81296H1.28C1.03472 3.81296 0.85 4.02097 0.85 4.25926C0.85 4.49755 1.03472 4.70556 1.28 4.70556H1.97V6.18333H1.28C1.03472 6.18333 0.85 6.39134 0.85 6.62963C0.85 6.86792 1.03472 7.07593 1.28 7.07593H1.97V8.5537H1.28C1.03472 8.5537 0.85 8.76171 0.85 9C0.85 9.23829 1.03472 9.4463 1.28 9.4463H1.97V10.9241H1.28C1.03481 10.9241 0.85 11.1317 0.85 11.3704C0.85 11.6091 1.03481 11.8167 1.28 11.8167H1.97V13.2944H1.28C1.03481 13.2944 0.85 13.5021 0.85 13.7407C0.85 13.9794 1.03481 14.187 1.28 14.187H1.97V16.7037C1.97 16.9424 2.15481 17.15 2.4 17.15H14.72C14.9656 17.15 15.15 16.9423 15.15 16.7037V1.2963C15.15 1.05811 14.9657 0.85 14.72 0.85ZM14.29 16.2574H2.83V14.187H3.52C3.76519 14.187 3.95 13.9794 3.95 13.7407C3.95 13.5021 3.76519 13.2944 3.52 13.2944H2.83V11.8167H3.52C3.76519 11.8167 3.95 11.6091 3.95 11.3704C3.95 11.1317 3.76519 10.9241 3.52 10.9241H2.83V9.4463H3.52C3.76528 9.4463 3.95 9.23829 3.95 9C3.95 8.76171 3.76528 8.5537 3.52 8.5537H2.83V7.07593H3.52C3.76529 7.07593 3.95 6.86792 3.95 6.62963C3.95 6.39134 3.76528 6.18333 3.52 6.18333H2.83V4.70556H3.52C3.76528 4.70556 3.95 4.49755 3.95 4.25926C3.95 4.02097 3.76528 3.81296 3.52 3.81296H2.83V1.74259H14.29V16.2574Z" fill="#F4F4F4" stroke="#F4F4F4" stroke-width="0.3"/>
  <path d="M5.30769 13.05C5.50512 13.05 5.66538 12.8901 5.66538 12.6923C5.66538 10.8538 7.16146 9.35769 9 9.35769C10.8385 9.35769 12.3346 10.8538 12.3346 12.6923C12.3346 12.8901 12.4945 13.05 12.6923 13.05C12.8901 13.05 13.05 12.8901 13.05 12.6923C13.05 10.9376 11.9269 9.44286 10.3633 8.88151C10.874 8.47783 11.2038 7.85461 11.2038 7.15385C11.2038 5.93854 10.215 4.95 9 4.95C7.78469 4.95 6.79615 5.93854 6.79615 7.15385C6.79615 7.85461 7.12595 8.47783 7.63669 8.88152C6.07308 9.44287 4.95 10.9376 4.95 12.6923C4.95 12.8901 5.11026 13.05 5.30769 13.05ZM7.51154 7.15385C7.51154 6.33315 8.17931 5.66538 9 5.66538C9.82069 5.66538 10.4885 6.33315 10.4885 7.15385C10.4885 7.97454 9.82069 8.64231 9 8.64231C8.17931 8.64231 7.51154 7.97454 7.51154 7.15385Z" fill="#F4F4F4" stroke="#F4F4F4" stroke-width="0.1"/>
</svg>
