<svg width="24" height="24" viewBox="0 0 24 24" fill="none"
  xmlns="http://www.w3.org/2000/svg">
  <path d="M18.22 3.85H5.9C5.65472 3.85 5.47 4.05801 5.47 4.2963V6.81296H4.78C4.53472 6.81296 4.35 7.02097 4.35 7.25926C4.35 7.49755 4.53472 7.70556 4.78 7.70556H5.47V9.18333H4.78C4.53472 9.18333 4.35 9.39134 4.35 9.62963C4.35 9.86792 4.53472 10.0759 4.78 10.0759H5.47V11.5537H4.78C4.53472 11.5537 4.35 11.7617 4.35 12C4.35 12.2383 4.53472 12.4463 4.78 12.4463H5.47V13.9241H4.78C4.53481 13.9241 4.35 14.1317 4.35 14.3704C4.35 14.6091 4.53481 14.8167 4.78 14.8167H5.47V16.2944H4.78C4.53481 16.2944 4.35 16.5021 4.35 16.7407C4.35 16.9794 4.53481 17.187 4.78 17.187H5.47V19.7037C5.47 19.9424 5.65481 20.15 5.9 20.15H18.22C18.4656 20.15 18.65 19.9423 18.65 19.7037V4.2963C18.65 4.05811 18.4657 3.85 18.22 3.85ZM17.79 19.2574H6.33V17.187H7.02C7.26519 17.187 7.45 16.9794 7.45 16.7407C7.45 16.5021 7.26519 16.2944 7.02 16.2944H6.33V14.8167H7.02C7.26519 14.8167 7.45 14.6091 7.45 14.3704C7.45 14.1317 7.26519 13.9241 7.02 13.9241H6.33V12.4463H7.02C7.26528 12.4463 7.45 12.2383 7.45 12C7.45 11.7617 7.26528 11.5537 7.02 11.5537H6.33V10.0759H7.02C7.26529 10.0759 7.45 9.86792 7.45 9.62963C7.45 9.39134 7.26528 9.18333 7.02 9.18333H6.33V7.70556H7.02C7.26528 7.70556 7.45 7.49755 7.45 7.25926C7.45 7.02097 7.26528 6.81296 7.02 6.81296H6.33V4.74259H17.79V19.2574Z" fill="#F4F4F4" stroke="#F4F4F4" stroke-width="0.3"/>
  <path d="M8.80769 16.05C9.00512 16.05 9.16538 15.8901 9.16538 15.6923C9.16538 13.8538 10.6615 12.3577 12.5 12.3577C14.3385 12.3577 15.8346 13.8538 15.8346 15.6923C15.8346 15.8901 15.9945 16.05 16.1923 16.05C16.3901 16.05 16.55 15.8901 16.55 15.6923C16.55 13.9376 15.4269 12.4429 13.8633 11.8815C14.374 11.4778 14.7038 10.8546 14.7038 10.1538C14.7038 8.93854 13.715 7.95 12.5 7.95C11.2847 7.95 10.2962 8.93854 10.2962 10.1538C10.2962 10.8546 10.626 11.4778 11.1367 11.8815C9.57308 12.4429 8.45 13.9376 8.45 15.6923C8.45 15.8901 8.61026 16.05 8.80769 16.05ZM11.0115 10.1538C11.0115 9.33315 11.6793 8.66538 12.5 8.66538C13.3207 8.66538 13.9885 9.33315 13.9885 10.1538C13.9885 10.9745 13.3207 11.6423 12.5 11.6423C11.6793 11.6423 11.0115 10.9745 11.0115 10.1538Z" fill="#F4F4F4" stroke="#F4F4F4" stroke-width="0.1"/>
  <path d="M16.5 14.5L14.5 16.5V19.5L16.5 21.5H19.5L21.5 19.5V16.5L19.5 14.5H16.5Z" fill="#202020"/>
  <path d="M14.5343 20.0923C14.4562 20.1021 14.3781 20.0629 14.3391 19.9945L14.5343 20.0923ZM14.5343 20.0923C14.6027 20.0825 14.6515 20.0825 14.7003 20.0825M14.5343 20.0923L14.7003 20.0825M14.7003 20.0825H14.7003M14.7003 20.0825H14.7003M14.7003 20.0825C15.3739 20.0825 15.9206 20.6304 15.9206 21.2956M14.7003 20.0825L15.9206 21.2956M15.9206 21.2956C15.9206 21.3445 15.9206 21.4032 15.9108 21.4619L15.9206 21.2956ZM21.8376 18.8297L21.8381 18.8293L21.8322 18.8236C21.6082 18.6084 21.4864 18.3086 21.4864 17.9987C21.4864 17.6895 21.6078 17.3988 21.833 17.1731C21.8631 17.1429 21.8929 17.1192 21.9306 17.0892C21.9383 17.0831 21.9463 17.0767 21.9548 17.07C22.0432 17.0059 22.0643 16.8948 22.0413 16.8028L22.0414 16.8028L22.041 16.8017C21.9617 16.5137 21.843 16.2362 21.7049 15.9793L21.705 15.9793L21.7043 15.9782C21.6553 15.8922 21.5576 15.8432 21.4594 15.8555L21.4594 15.8555L21.4586 15.8556C21.394 15.8649 21.3482 15.8649 21.2997 15.8649C20.6535 15.8649 20.1294 15.3393 20.1294 14.7018C20.1294 14.6524 20.1295 14.5977 20.1385 14.5437L20.1385 14.5437L20.1388 14.5417C20.151 14.4434 20.1022 14.3456 20.0164 14.2964L20.0164 14.2964L20.0153 14.2958C19.7589 14.1574 19.482 14.0385 19.1946 13.959L19.1946 13.959L19.1934 13.9587C19.0969 13.9345 18.9893 13.97 18.928 14.0437L18.928 14.0437L18.9274 14.0445C18.8877 14.0942 18.8509 14.1402 18.8241 14.1672C18.5987 14.3834 18.3084 14.505 18 14.505C17.6908 14.505 17.3912 14.3829 17.1763 14.1675C17.1462 14.1373 17.1225 14.1075 17.0926 14.0697C17.0865 14.062 17.0801 14.0539 17.0734 14.0455C17.0094 13.9569 16.8985 13.9357 16.8066 13.9587L16.8066 13.9586L16.8039 13.9594C16.5185 14.0482 16.2421 14.157 15.9847 14.2958L15.9847 14.2958L15.9836 14.2964C15.8978 14.3456 15.849 14.4434 15.8612 14.5417L15.8612 14.5417L15.8613 14.5425C15.8706 14.6073 15.8706 14.6532 15.8706 14.7018C15.8706 15.3488 15.3467 15.8649 14.7003 15.8649C14.651 15.8649 14.5965 15.8648 14.5426 15.8558L14.5426 15.8558L14.5406 15.8555C14.4424 15.8432 14.3447 15.8922 14.2957 15.9782L14.2956 15.9782L14.2951 15.9793C14.157 16.2362 14.0383 16.5137 13.959 16.8017L13.959 16.8017L13.9587 16.8028C13.9356 16.8952 13.957 17.0068 14.0464 17.0708L14.0464 17.0709L14.0477 17.0718C14.1019 17.1079 14.138 17.1441 14.167 17.1731L14.1674 17.1735C14.6256 17.6233 14.6261 18.3642 14.167 18.8243C14.1369 18.8545 14.1071 18.8782 14.0694 18.9082C14.0617 18.9143 14.0537 18.9207 14.0452 18.9274C13.9568 18.9915 13.9357 19.1026 13.9587 19.1946L13.9586 19.1946L13.9594 19.1973C14.048 19.4832 14.1565 19.7603 14.2951 20.0181L14.295 20.0181L14.2957 20.0192C14.3447 20.1052 14.4424 20.1542 14.5406 20.1419L14.5406 20.1419L14.5414 20.1418C14.606 20.1325 14.6518 20.1325 14.7003 20.1325C15.3465 20.1325 15.8706 20.6581 15.8706 21.2956C15.8706 21.345 15.8705 21.3997 15.8615 21.4537L15.8615 21.4537L15.8612 21.4557C15.849 21.554 15.8978 21.6518 15.9836 21.701L15.9836 21.701L15.9847 21.7016C16.2411 21.84 16.518 21.959 16.8054 22.0384L16.8066 22.0387C16.8985 22.0617 17.0094 22.0405 17.0734 21.9519C17.1128 21.9026 17.1493 21.857 17.1759 21.8302C17.4013 21.614 17.6916 21.4924 18 21.4924C18.3092 21.4924 18.6088 21.6145 18.8237 21.8299C18.8538 21.8601 18.8775 21.8899 18.9074 21.9278C18.9138 21.9358 18.9204 21.9441 18.9274 21.9529C18.9752 22.0128 19.0477 22.05 19.1227 22.05L19.125 22.05C19.1427 22.05 19.1707 22.0501 19.1995 22.0369C19.4837 21.9483 19.759 21.8399 20.0153 21.7016L20.0153 21.7016L20.0164 21.701C20.1022 21.6518 20.151 21.554 20.1388 21.4557L20.1388 21.4557L20.1387 21.4549C20.1294 21.3901 20.1294 21.3442 20.1294 21.2956C20.1294 20.6486 20.6533 20.1325 21.2997 20.1325C21.349 20.1325 21.4035 20.1326 21.4574 20.1416L21.4574 20.1416L21.4594 20.1419C21.5576 20.1542 21.6553 20.1052 21.7043 20.0192L21.7044 20.0192L21.7049 20.0181C21.843 19.7612 21.9617 19.4837 22.041 19.1957L22.0413 19.1946C22.0643 19.1026 22.0432 18.9915 21.9547 18.9274C21.9412 18.9166 21.9252 18.9046 21.9107 18.8938C21.9007 18.8864 21.8915 18.8795 21.8844 18.874C21.8634 18.8576 21.8482 18.8438 21.8376 18.8297ZM14.4919 16.819L14.4916 16.8188L14.4554 16.7824C14.5075 16.6372 14.5673 16.4918 14.6345 16.3464H14.6905C15.6064 16.3464 16.3513 15.6002 16.3513 14.692V14.635C16.4885 14.5678 16.6333 14.5081 16.7858 14.4558L16.8224 14.4925C17.1344 14.8052 17.5474 14.9768 17.9902 14.9768C18.4331 14.9768 18.8461 14.8052 19.1581 14.4925L19.1943 14.4563C19.3391 14.5085 19.4841 14.5684 19.6291 14.6358V14.692C19.6291 15.6102 20.3742 16.3464 21.2899 16.3464H21.3467C21.4138 16.4839 21.4734 16.6291 21.5255 16.782L21.4888 16.8188C21.1768 17.1314 21.0056 17.5452 21.0056 17.9889C21.0056 18.4326 21.1768 18.8464 21.4888 19.1591L21.5259 19.1962C21.4737 19.3572 21.414 19.5032 21.3467 19.6412H21.2899C20.374 19.6412 19.6291 20.3874 19.6291 21.2956V21.3526C19.492 21.4198 19.3472 21.4796 19.1947 21.5318L19.1581 21.4951C18.8461 21.1824 18.4331 21.0108 17.9902 21.0108C17.5474 21.0108 17.1344 21.1824 16.8224 21.4951L16.7862 21.5314C16.6413 21.4791 16.4964 21.4193 16.3513 21.3519V21.2956C16.3513 20.3774 15.6062 19.6412 14.6905 19.6412H14.6338C14.5667 19.5037 14.5071 19.3585 14.4549 19.2056L14.4916 19.1689C15.1361 18.5231 15.1357 17.4742 14.4919 16.819ZM18 15.6203C16.6934 15.6203 15.6265 16.6896 15.6265 17.9987C15.6265 19.3078 16.6934 20.3771 18 20.3771C19.3066 20.3771 20.3735 19.3078 20.3735 17.9987C20.3735 16.6896 19.3066 15.6203 18 15.6203ZM18 19.8858C16.9636 19.8858 16.117 19.0375 16.117 17.9987C16.117 16.9599 16.9636 16.1116 18 16.1116C19.0364 16.1116 19.883 16.9599 19.883 17.9987C19.883 19.0375 19.0364 19.8858 18 19.8858Z" fill="#F4F4F4" stroke="#F4F4F4" stroke-width="0.1"/>
</svg>
