<svg viewBox="0 0 24 24">
  <path d="M4 6.85714C4 6.62981 4.09365 6.4118 4.26035 6.25105C4.42705 6.09031 4.65314 6 4.88889 6H19.1111C19.3469 6 19.573 6.09031 19.7397 6.25105C19.9064 6.4118 20 6.62981 20 6.85714C20 7.08447 19.9064 7.30249 19.7397 7.46323C19.573 7.62398 19.3469 7.71429 19.1111 7.71429H4.88889C4.65314 7.71429 4.42705 7.62398 4.26035 7.46323C4.09365 7.30249 4 7.08447 4 6.85714ZM4 12C4 11.7727 4.09365 11.5547 4.26035 11.3939C4.42705 11.2332 4.65314 11.1429 4.88889 11.1429H19.1111C19.3469 11.1429 19.573 11.2332 19.7397 11.3939C19.9064 11.5547 20 11.7727 20 12C20 12.2273 19.9064 12.4453 19.7397 12.6061C19.573 12.7668 19.3469 12.8571 19.1111 12.8571H4.88889C4.65314 12.8571 4.42705 12.7668 4.26035 12.6061C4.09365 12.4453 4 12.2273 4 12ZM4.88889 16.2857C4.65314 16.2857 4.42705 16.376 4.26035 16.5368C4.09365 16.6975 4 16.9155 4 17.1429C4 17.3702 4.09365 17.5882 4.26035 17.7489C4.42705 17.9097 4.65314 18 4.88889 18H19.1111C19.3469 18 19.573 17.9097 19.7397 17.7489C19.9064 17.5882 20 17.3702 20 17.1429C20 16.9155 19.9064 16.6975 19.7397 16.5368C19.573 16.376 19.3469 16.2857 19.1111 16.2857H4.88889Z" />
</svg>
