<svg width="24" height="24" viewBox="0 0 24 24" fill="none"
  xmlns="http://www.w3.org/2000/svg">
  <path d="M6.66667 17.6985C6.25937 17.6985 5.875 17.9674 5.875 18.3529C5.875 18.7385 6.25937 19.0074 6.66667 19.0074H11.2083V20.4706C11.2083 20.8561 11.5927 21.125 12 21.125C12.4073 21.125 12.7917 20.8561 12.7917 20.4706V19.0074H13.3333C15.9473 19.0074 18.125 17.3144 18.125 15.1765C18.125 13.0386 15.9473 11.3456 13.3333 11.3456H12.7917V6.30147H17.3333C17.7406 6.30147 18.125 6.03261 18.125 5.64706C18.125 5.26151 17.7406 4.99265 17.3333 4.99265H12.7917V3.52941C12.7917 3.14386 12.4073 2.875 12 2.875C11.5927 2.875 11.2083 3.14387 11.2083 3.52941V4.99265H10.6667C8.05271 4.99265 5.875 6.68563 5.875 8.82353C5.875 10.9614 8.05271 12.6544 10.6667 12.6544H11.2083V17.6985H6.66667ZM12.7917 12.6544H13.3333C15.1327 12.6544 16.5417 13.8097 16.5417 15.1765C16.5417 16.5433 15.1327 17.6985 13.3333 17.6985H12.7917V12.6544ZM10.6667 11.3456C8.86729 11.3456 7.45833 10.1903 7.45833 8.82353C7.45833 7.45672 8.86729 6.30147 10.6667 6.30147H11.2083V11.3456H10.6667Z" fill="#5F58FF" stroke="#5F58FF" stroke-width="0.25"/>
</svg>
