<svg xmlns="http://www.w3.org/2000/svg" width="12" height="12" viewBox="0 0 12 12" fill="none">
  <g clip-path="url(#clip0_5202_88416)">
    <circle cx="6" cy="6" r="6" fill="#F4F4F4"/>
    <path d="M6 0C4.81331 0 3.65327 0.351894 2.66658 1.01118C1.67989 1.67047 0.910851 2.60754 0.456725 3.7039C0.0025997 4.80025 -0.11622 6.00665 0.115291 7.17054C0.346802 8.33442 0.918247 9.40352 1.75736 10.2426C2.59648 11.0818 3.66557 11.6532 4.82946 11.8847C5.99334 12.1162 7.19974 11.9974 8.2961 11.5433C9.39246 11.0891 10.3295 10.3201 10.9888 9.33342C11.6481 8.34672 12 7.18668 12 6C12 5.21207 11.8448 4.43185 11.5433 3.7039C11.2417 2.97594 10.7998 2.31451 10.2426 1.75736C9.68549 1.20021 9.02405 0.758251 8.2961 0.456723C7.56815 0.155195 6.78793 0 6 0ZM8.58 4.566L5.838 8.166C5.7821 8.2386 5.71032 8.29745 5.62816 8.33801C5.54599 8.37857 5.45563 8.39978 5.364 8.4C5.27286 8.40049 5.18281 8.38021 5.10069 8.3407C5.01856 8.3012 4.9465 8.2435 4.89 8.172L3.426 6.306C3.37754 6.24375 3.34182 6.17257 3.32087 6.09652C3.29992 6.02046 3.29416 5.94103 3.30391 5.86275C3.31366 5.78447 3.33873 5.70888 3.3777 5.64029C3.41666 5.5717 3.46875 5.51146 3.531 5.463C3.65671 5.36513 3.81615 5.32122 3.97425 5.34091C4.05253 5.35066 4.12812 5.37573 4.19671 5.41469C4.2653 5.45366 4.32554 5.50575 4.374 5.568L5.352 6.816L7.62 3.816C7.66806 3.75296 7.72807 3.70001 7.7966 3.66017C7.86513 3.62033 7.94083 3.59437 8.01939 3.58379C8.09795 3.5732 8.17782 3.57819 8.25445 3.59847C8.33108 3.61876 8.40296 3.65393 8.466 3.702C8.52903 3.75006 8.58198 3.81007 8.62183 3.8786C8.66167 3.94713 8.68763 4.02283 8.69821 4.10139C8.7088 4.17995 8.70381 4.25982 8.68352 4.33645C8.66324 4.41308 8.62806 4.48496 8.58 4.548V4.566Z" fill="#37BCE5"/>
  </g>
  <defs>
    <clipPath id="clip0_5202_88416">
      <rect width="12" height="12" fill="white"/>
    </clipPath>
  </defs>
</svg>
