<svg xmlns="http://www.w3.org/2000/svg" viewBox="0 0 24 24" fill="none">
  <path d="M12.8611 15.3251L12.8618 15.3244C12.9827 15.2076 13.1448 15.1429 13.3129 15.1444C13.4811 15.1459 13.642 15.2133 13.7609 15.3323C13.8798 15.4512 13.9473 15.6121 13.9488 15.7802C13.9502 15.9484 13.8856 16.1105 13.7687 16.2314L13.7681 16.2321L13.7681 16.2321L11.1925 18.8078L11.1925 18.8078C10.3967 19.6033 9.31742 20.0502 8.19214 20.05C7.06685 20.0498 5.98774 19.6026 5.19219 18.8067C4.39663 18.0108 3.9498 16.9315 3.95 15.8062C3.9502 14.6809 4.3974 13.6017 5.19323 12.8061C5.19323 12.8061 5.19323 12.8061 5.19323 12.8061L8.00242 9.99681C8.46414 9.53507 9.0262 9.18613 9.64483 8.97715C10.2635 8.76817 10.922 8.70479 11.5691 8.79195C12.2162 8.87911 12.8345 9.11446 13.3758 9.47966C13.917 9.84479 14.3666 10.3299 14.6897 10.8972C14.6898 10.8973 14.6899 10.8974 14.6899 10.8975L14.6465 10.9223C14.6864 10.9898 14.7125 11.0646 14.7232 11.1423C14.7339 11.2201 14.729 11.2991 14.7089 11.375C14.6888 11.4508 14.6537 11.5218 14.6059 11.584C14.558 11.6462 14.4983 11.6982 14.4301 11.737C14.3619 11.7758 14.2867 11.8007 14.2089 11.8102C14.131 11.8197 14.052 11.8136 13.9765 11.7923C13.901 11.771 13.8305 11.7348 13.7691 11.686C13.7077 11.6371 13.6567 11.5766 13.6189 11.5078L12.8611 15.3251ZM12.8611 15.3251L10.2856 17.9007C10.2856 17.9007 10.2856 17.9008 10.2856 17.9008C10.0106 18.1756 9.68423 18.3936 9.32504 18.5422C8.96585 18.6909 8.5809 18.7674 8.19216 18.7673C7.80341 18.7672 7.41849 18.6905 7.05938 18.5417C6.70026 18.3928 6.37398 18.1747 6.09917 17.8997C5.54415 17.3444 5.23245 16.5914 5.23264 15.8062C5.23283 15.0211 5.5449 14.2682 6.10018 13.7131L6.10019 13.7131L8.90934 10.9039C9.2318 10.5823 9.62404 10.3393 10.0556 10.1938C10.4872 10.0484 10.9464 10.0044 11.3978 10.0652C11.8491 10.126 12.2803 10.29 12.658 10.5445C13.0356 10.7989 13.3495 11.1369 13.5753 11.5322L12.8611 15.3251ZM16.9981 13.002L16.9981 13.0019L19.8073 10.1926C20.2013 9.79867 20.5138 9.331 20.727 8.81628C20.9402 8.30156 21.05 7.74989 21.05 7.19275C21.05 6.63561 20.9403 6.08392 20.7272 5.56918C20.514 5.05445 20.2015 4.58674 19.8076 4.19276C19.4137 3.79878 18.946 3.48626 18.4313 3.27303C17.9166 3.05979 17.365 2.95003 16.8079 2.95C15.6827 2.94994 14.6036 3.39687 13.808 4.19246L13.8434 4.22782L13.808 4.19246L11.2324 6.76816L11.2324 6.76816L11.2318 6.76878C11.115 6.88976 11.0503 7.05179 11.0518 7.21997C11.0532 7.38815 11.1207 7.54903 11.2396 7.66796C11.3585 7.78689 11.5194 7.85435 11.6876 7.85581C11.8558 7.85727 12.0178 7.79261 12.1388 7.67578L12.1394 7.67516L14.715 5.09946C15.2701 4.54442 16.0229 4.23264 16.8079 4.23269C17.5928 4.23275 18.3456 4.54464 18.9006 5.09976C19.4556 5.65487 19.7674 6.40774 19.7674 7.19274C19.7673 7.97774 19.4554 8.73057 18.9003 9.28561L18.9357 9.32096L18.9003 9.28561L16.0911 12.0949C16.0911 12.0949 16.0911 12.0949 16.0911 12.0949C15.7689 12.417 15.3767 12.6604 14.9451 12.8062C14.5135 12.9519 14.054 12.9961 13.6025 12.9353C13.151 12.8744 12.7197 12.7102 12.342 12.4554C11.9644 12.2007 11.6507 11.8623 11.4252 11.4665C11.3843 11.3921 11.329 11.3265 11.2625 11.2736C11.1959 11.2207 11.1195 11.1815 11.0376 11.1583C10.9557 11.1352 10.8701 11.1286 10.7856 11.1389C10.7012 11.1492 10.6196 11.1762 10.5457 11.2183C10.4717 11.2604 10.4069 11.3168 10.355 11.3842C10.3031 11.4516 10.2651 11.5287 10.2433 11.6109C10.2215 11.6932 10.2162 11.7789 10.2278 11.8632C10.2394 11.9474 10.2676 12.0284 10.3108 12.1016C10.6342 12.6685 11.084 13.1532 11.6252 13.518C12.1665 13.883 12.7847 14.1181 13.4316 14.2053C14.0786 14.2924 14.7369 14.2292 15.3555 14.0205C15.974 13.8118 16.5361 13.4632 16.9981 13.002Z" fill="#F4F4F4" stroke="#F4F4F4" stroke-width="0.1"/>
</svg>
