<svg width="24" height="24" viewBox="0 0 24 24" fill="none" xmlns="http://www.w3.org/2000/svg">
<path d="M19.6725 14.2573C19.885 13.5398 20 12.7823 20 11.9998C20 10.5048 19.5875 9.10481 18.87 7.90731V7.90481C18.8675 7.89981 18.8625 7.89731 18.8625 7.89231C17.4625 5.56231 14.91 3.99981 12 3.99981C7.92005 3.99981 4.54755 7.06981 4.06255 11.0198V11.0248C4.0215 11.3482 4.00063 11.6738 4.00005 11.9998C4.00005 16.4098 7.59005 19.9998 12 19.9998C15.605 19.9998 18.66 17.6023 19.6575 14.3173C19.665 14.2973 19.67 14.2773 19.6725 14.2573ZM4.48505 11.9998C4.48505 11.8023 4.49505 11.6098 4.51005 11.4148C5.30755 11.7823 6.40505 12.1323 7.78255 12.4548C7.86505 12.4748 7.95255 12.4898 8.03505 12.5098C8.06505 13.4773 8.17505 14.3923 8.35255 15.2298C8.34505 15.2273 8.33505 15.2273 8.32755 15.2248C6.96755 14.9473 5.73755 14.5273 4.75755 14.0098C4.58255 13.3698 4.48505 12.6948 4.48505 11.9998ZM5.51255 8.21481C6.24255 8.46481 7.46005 8.79981 8.31005 8.98481C8.12755 9.91231 8.02755 10.9273 8.02755 11.9998V12.0123L7.89255 11.9823C6.45255 11.6473 5.34005 11.2848 4.56755 10.9023C4.70755 9.93481 5.03505 9.02731 5.51255 8.21481ZM19.415 10.7873C18.545 11.3348 17.325 11.8173 16.1175 12.0923C16.07 12.1023 16.0175 12.1098 15.97 12.1198C15.97 12.0798 15.9725 12.0398 15.9725 11.9998C15.9725 10.9923 15.885 10.0348 15.7225 9.15481C15.735 9.15231 15.745 9.15231 15.7575 9.14981C16.675 8.98981 17.895 8.54731 18.5375 8.29731C18.9675 9.05481 19.27 9.89481 19.415 10.7873ZM15.4875 11.9998C15.4875 12.0698 15.485 12.1373 15.485 12.2073C14.4725 12.3823 13.3875 12.4673 12.2425 12.4648V9.41231C13.2417 9.42866 14.2406 9.3668 15.23 9.22731C15.395 10.0898 15.4875 11.0273 15.4875 11.9998ZM8.51255 11.9998C8.51255 10.9723 8.61505 9.98231 8.79755 9.07981C9.76005 9.25731 10.7525 9.36231 11.7575 9.39731V12.4623C10.665 12.4323 9.56005 12.3148 8.51255 12.1123V11.9998ZM12.2425 8.92731V4.50481C13.4975 4.69981 14.5925 6.39981 15.1325 8.74981C14.21 8.87981 13.245 8.93981 12.2425 8.92731ZM11.7575 4.50481V8.90981C10.79 8.87481 9.83255 8.77231 8.90255 8.60481C9.45255 6.33231 10.53 4.69731 11.7575 4.50481ZM8.52505 12.6073C9.57255 12.8023 10.67 12.9173 11.7575 12.9473V15.6123C10.7775 15.5848 9.81505 15.4898 8.88755 15.3273C8.69005 14.4898 8.56255 13.5698 8.52505 12.6073ZM11.7575 16.0948V19.4923C10.6125 19.3123 9.59755 17.8798 9.02005 15.8398C9.91005 15.9873 10.825 16.0698 11.7575 16.0948ZM12.2425 19.4948V16.1073H12.34C13.2425 16.1073 14.115 16.0498 14.95 15.9373C14.37 17.9248 13.37 19.3173 12.2425 19.4948ZM12.2425 15.6173V12.9548H12.315C13.4225 12.9548 14.4775 12.8673 15.47 12.7048C15.425 13.6723 15.2925 14.5898 15.0875 15.4223C14.185 15.5573 13.23 15.6223 12.2425 15.6173ZM15.96 12.6148C16.0475 12.5973 16.1375 12.5848 16.2225 12.5673C17.3975 12.3023 18.585 11.8423 19.4825 11.3173C19.5025 11.5423 19.515 11.7698 19.515 12.0023C19.515 12.7198 19.4125 13.4148 19.2225 14.0723C18.295 14.6373 17.0675 15.0748 15.6625 15.3348L15.6226 15.3423C15.8076 14.5023 15.925 13.5848 15.96 12.6148ZM18.28 7.87731C17.6375 8.12481 16.515 8.52481 15.675 8.67231L15.6275 8.67981C15.2275 6.87481 14.51 5.44231 13.6075 4.65981C15.55 5.08481 17.2175 6.26481 18.28 7.87731ZM10.395 4.65981C9.52005 5.41731 8.81755 6.78481 8.41255 8.51231C7.62005 8.33981 6.50005 8.03481 5.77755 7.79231C6.84005 6.22231 8.48255 5.07731 10.395 4.65981ZM4.97005 14.6573C5.91005 15.0998 7.00255 15.4498 8.23005 15.6998C8.31005 15.7173 8.39255 15.7273 8.47255 15.7448C8.88505 17.3498 9.56005 18.6198 10.3925 19.3423C7.89755 18.7948 5.86255 17.0048 4.97005 14.6573ZM13.605 19.3398C14.4175 18.6348 15.0826 17.4048 15.4976 15.8498C15.5801 15.8348 15.6675 15.8248 15.75 15.8098C17.0025 15.5798 18.085 15.2248 18.9875 14.7573C18.0775 17.0573 16.065 18.8023 13.605 19.3398Z" fill="#F4F4F4"/>
<path fill-rule="evenodd" clip-rule="evenodd" d="M18.87 7.90481V7.90731C19.5875 9.10481 20 10.5048 20 11.9998C20 12.7823 19.885 13.5398 19.6725 14.2573C19.67 14.2773 19.665 14.2973 19.6575 14.3173C18.66 17.6023 15.605 19.9998 12 19.9998C7.59005 19.9998 4.00005 16.4098 4.00005 11.9998C4.00063 11.6738 4.0215 11.3482 4.06255 11.0248V11.0198C4.54755 7.06981 7.92005 3.99981 12 3.99981C14.91 3.99981 17.4625 5.56231 18.8625 7.89231C18.8625 7.89533 18.8644 7.89744 18.8664 7.89975C18.8664 7.89975 18.8691 7.90283 18.87 7.90481ZM3.86255 11.0122C3.8215 11.3397 3.80063 11.6694 3.80005 11.9995C3.80005 16.5199 7.47959 20.1998 12 20.1998C15.6939 20.1998 18.8233 17.7447 19.8473 14.3808C19.8566 14.3548 19.8637 14.3281 19.8683 14.3006C20.0836 13.5691 20.2001 12.7971 20.2001 11.9998C20.2001 10.4821 19.7852 9.0595 19.0625 7.83965V7.83684L19.0428 7.80401C19.0415 7.80177 19.0402 7.79964 19.039 7.79761L19.034 7.7893C17.5995 5.40184 14.9834 3.7998 12 3.7998C7.81755 3.7998 4.36117 6.94662 3.86404 10.9954L3.86255 11.0076V11.0122ZM8.3092 15.0168C8.31902 15.0671 8.32907 15.1171 8.33937 15.1669C8.34032 15.1715 8.34128 15.1761 8.34224 15.1807C8.34565 15.1971 8.34909 15.2135 8.35255 15.2298C8.3488 15.2286 8.34442 15.2279 8.34005 15.2273C8.33567 15.2267 8.3313 15.2261 8.32755 15.2248C8.2644 15.2119 8.20153 15.1987 8.13895 15.1852C6.85386 14.9081 5.69204 14.5033 4.75755 14.0098C4.58255 13.3698 4.48505 12.6948 4.48505 11.9998C4.48505 11.8745 4.48907 11.7513 4.49584 11.6281C4.49975 11.5571 4.50456 11.4861 4.51005 11.4148C4.57291 11.4438 4.63763 11.4726 4.70421 11.5014C5.4823 11.8373 6.51363 12.1577 7.78255 12.4548C7.8238 12.4648 7.8663 12.4736 7.9088 12.4823C7.9513 12.4911 7.9938 12.4998 8.03505 12.5098C8.06253 13.3959 8.15711 14.238 8.3092 15.0168ZM8.0968 14.9713C7.96072 14.2512 7.87305 13.4802 7.8407 12.6725C7.80695 12.6655 4.72696 11.7221 4.6918 11.7136M8.0968 14.9713C6.89476 14.7057 5.80951 14.3278 4.92805 13.8732C4.77163 13.2745 4.68505 12.6458 4.68505 11.9998C4.68505 11.9038 4.68749 11.8088 4.6918 11.7136M15.836 15.3016C17.1686 15.0384 18.3334 14.6139 19.2225 14.0723C19.4125 13.4148 19.515 12.7198 19.515 12.0023C19.515 11.8457 19.5094 11.6913 19.4996 11.5384C19.4948 11.4644 19.4891 11.3907 19.4825 11.3173C19.4201 11.3539 19.3562 11.3901 19.291 11.426C18.4198 11.9054 17.3157 12.3208 16.2225 12.5673C16.1784 12.5764 16.133 12.5841 16.0872 12.5919C16.0448 12.5991 16.0021 12.6064 15.96 12.6148C15.928 13.5039 15.8266 14.3488 15.6674 15.1304C15.66 15.1668 15.6525 15.203 15.6448 15.2391C15.6376 15.2735 15.6301 15.3082 15.6226 15.3423L15.6625 15.3348C15.7207 15.324 15.7785 15.313 15.836 15.3016ZM15.8798 15.0889C17.1272 14.8348 18.2142 14.4383 19.0517 13.9417C19.2229 13.3241 19.315 12.6734 19.315 12.0023C19.315 11.8825 19.3116 11.7638 19.3055 11.6457C18.4296 12.1162 17.3423 12.5198 16.2666 12.7624L16.2629 12.7632C16.2261 12.7708 16.1889 12.7774 16.1533 12.7835C16.1163 13.5935 16.0223 14.3668 15.8798 15.0889ZM15.7858 16.0066C15.742 16.0146 15.6974 16.0211 15.6565 16.0271C15.3245 17.2189 14.8423 18.2303 14.2477 18.9591C16.157 18.341 17.725 16.9577 18.5879 15.1709C17.7726 15.5333 16.8359 15.8138 15.7858 16.0066ZM18.7153 14.8923C17.8699 15.2936 16.879 15.6025 15.75 15.8098C15.7088 15.8173 15.6663 15.8236 15.6238 15.8298C15.5813 15.8361 15.5388 15.8423 15.4976 15.8498M13.605 19.3398C13.7022 19.2555 13.7972 19.1638 13.8899 19.0648ZM18.7153 14.8923C18.8078 14.8484 18.8985 14.8034 18.9875 14.7573C18.9498 14.8527 18.9102 14.9471 18.8687 15.0406C17.9634 17.0793 16.1775 18.6414 13.9964 19.2431C13.8673 19.2788 13.7368 19.311 13.605 19.3398M5.60452 8.45658C5.20638 9.1698 4.92567 9.95438 4.7879 10.7865C5.51419 11.1268 6.52912 11.4548 7.82917 11.762C7.84184 10.8373 7.92824 9.95616 8.07749 9.1378C7.29885 8.95985 6.29301 8.68296 5.60452 8.45658ZM8.31005 8.98481C7.46005 8.79981 6.24255 8.46481 5.51255 8.21481C5.03505 9.02731 4.70755 9.93481 4.56755 10.9023C5.32839 11.279 6.41905 11.6364 7.82758 11.9671C7.84916 11.9722 7.87082 11.9773 7.89255 11.9823L8.02755 12.0123V11.9998C8.02755 11.9356 8.02791 11.8715 8.02862 11.8077C8.03983 10.806 8.13848 9.85674 8.31005 8.98481ZM19.195 10.6879C19.057 9.92658 18.8009 9.20616 18.4467 8.54658C17.8151 8.78725 16.7925 9.14816 15.9543 9.31632C16.0903 10.1166 16.1657 10.9757 16.1721 11.8743C17.277 11.6123 18.3804 11.178 19.195 10.6879ZM16.1708 12.08C17.3608 11.8031 18.5578 11.3268 19.415 10.7873C19.27 9.89481 18.9675 9.05481 18.5375 8.29731C17.9322 8.53287 16.814 8.93933 15.9194 9.11934C15.8645 9.13038 15.8105 9.14056 15.7575 9.14981C15.7513 9.15106 15.7457 9.15168 15.74 9.1523C15.7356 9.1528 15.7311 9.1533 15.7263 9.15412L15.7225 9.15481C15.8805 10.0103 15.9676 10.9389 15.9723 11.9156C15.9725 11.9436 15.9725 11.9717 15.9725 11.9998C15.9725 12.0198 15.9719 12.0398 15.9713 12.0598C15.9707 12.0798 15.97 12.0998 15.97 12.1198C15.9938 12.1148 16.0188 12.1104 16.0438 12.1061C16.0688 12.1017 16.0938 12.0973 16.1175 12.0923C16.1353 12.0883 16.153 12.0842 16.1708 12.08ZM15.2873 12.0376C15.2875 12.025 15.2875 12.0124 15.2875 11.9998C15.2875 11.1095 15.209 10.2494 15.0679 9.45118C14.1975 9.56511 13.3203 9.61968 12.4425 9.61454V12.2643C13.4426 12.2575 14.3937 12.1823 15.2873 12.0376ZM15.485 12.2073C14.5317 12.3721 13.514 12.4571 12.4425 12.4643C12.4086 12.4646 12.3746 12.4647 12.3405 12.4648C12.3079 12.4649 12.2753 12.4649 12.2425 12.4648V9.41231C12.3092 9.4134 12.3759 9.41414 12.4425 9.41453C13.3749 9.42006 14.3066 9.3575 15.23 9.22731C15.395 10.0898 15.4875 11.0273 15.4875 11.9998C15.4875 12.0348 15.4869 12.0692 15.4863 12.1036C15.4857 12.1379 15.485 12.1723 15.485 12.2073ZM8.71264 11.9465C9.6346 12.116 10.599 12.2197 11.5575 12.2557V9.5896C10.6767 9.55106 9.80572 9.45892 8.95625 9.31139C8.80277 10.1326 8.71587 11.0235 8.71264 11.9465ZM8.79755 9.07981C8.61505 9.98231 8.51255 10.9723 8.51255 11.9998V12.1123C9.49617 12.3025 10.5305 12.4177 11.5575 12.4558C11.6243 12.4583 11.6909 12.4605 11.7575 12.4623V9.39731C10.7525 9.36231 9.76005 9.25731 8.79755 9.07981ZM12.4425 8.72884V4.75812C12.9122 4.91187 13.3737 5.3102 13.7895 5.93054C14.2406 6.60351 14.6214 7.51455 14.8866 8.58107C14.1019 8.68144 13.2863 8.73127 12.4425 8.72884ZM15.086 8.55438C14.5618 6.42974 13.5786 4.87369 12.4425 4.5489C12.3764 4.52998 12.3097 4.51524 12.2425 4.50481V8.92731C13.1732 8.93891 14.0715 8.88803 14.9335 8.77668C15.0001 8.76808 15.0664 8.75913 15.1325 8.74981C15.1175 8.68415 15.1019 8.619 15.086 8.55438ZM11.7575 4.50481C11.6904 4.51533 11.6237 4.53018 11.5575 4.5492C10.4486 4.86805 9.48292 6.36172 8.9513 8.41036C8.93462 8.47464 8.91837 8.53946 8.90255 8.60481C8.96822 8.61663 9.03403 8.62814 9.09998 8.63932C9.90344 8.77553 10.7263 8.86349 11.5575 8.9016C11.6242 8.90466 11.6908 8.90739 11.7575 8.90981V4.50481ZM11.5575 4.75852V8.70139C10.7428 8.66367 9.9364 8.5776 9.149 8.44477C9.4179 7.41442 9.7963 6.53635 10.2409 5.88791C10.6492 5.29253 11.0998 4.90921 11.5575 4.75852ZM8.52505 12.6073C8.52772 12.6759 8.53085 12.7443 8.53443 12.8124C8.58108 13.7005 8.70412 14.5495 8.88755 15.3273C9.75188 15.4787 10.6466 15.5716 11.5575 15.6057C11.6241 15.6082 11.6908 15.6104 11.7575 15.6123V12.9473C10.7396 12.9192 9.71293 12.8167 8.72669 12.6437C8.65928 12.6319 8.59206 12.6198 8.52505 12.6073ZM8.73667 12.8485C8.7818 13.6593 8.89139 14.4358 9.05257 15.1527C9.86466 15.2889 10.7036 15.3732 11.5575 15.4056V13.141C10.6094 13.1061 9.65621 13.0076 8.73667 12.8485ZM11.5575 16.2887C10.7931 16.2616 10.04 16.1956 9.30238 16.0865C9.57653 16.9587 9.93187 17.6959 10.3369 18.2448C10.7199 18.7638 11.1358 19.0997 11.5575 19.2385V16.2887ZM11.7575 19.4923C11.6904 19.4818 11.6237 19.4669 11.5575 19.4479C10.5347 19.1536 9.63342 17.8619 9.08255 16.0526C9.06119 15.9825 9.04035 15.9115 9.02005 15.8398C9.09259 15.8518 9.16529 15.8634 9.23815 15.8746C10.0593 16.0004 10.9011 16.0718 11.7575 16.0948V19.4923ZM12.2425 19.4948C12.3097 19.4842 12.3764 19.4694 12.4425 19.4503C13.4481 19.1608 14.3349 17.9067 14.8865 16.1474C14.9082 16.0782 14.9294 16.0081 14.95 15.9373C14.878 15.947 14.8058 15.9563 14.7332 15.9652C13.9644 16.0593 13.1647 16.1073 12.34 16.1073H12.2425V19.4948ZM12.4425 19.241C12.8565 19.1046 13.2646 18.7781 13.6415 18.2749C14.0414 17.741 14.3936 17.0238 14.668 16.1744C13.9503 16.2587 13.207 16.3034 12.4425 16.3071V19.241ZM12.4425 15.4174V13.1544C13.4238 13.1485 14.3642 13.0744 15.2569 12.9407C15.206 13.7557 15.0919 14.5308 14.9247 15.2439C14.1335 15.3555 13.3016 15.4134 12.4425 15.4174ZM15.0875 15.4223C15.2781 14.6486 15.406 13.8016 15.4592 12.9092C15.4633 12.8413 15.4669 12.7732 15.47 12.7048C15.4031 12.7158 15.3358 12.7264 15.2683 12.7367C14.3349 12.8787 13.3478 12.9548 12.315 12.9548H12.2425V15.6173C13.23 15.6223 14.185 15.5573 15.0875 15.4223ZM18.28 7.87731C18.2424 7.82011 18.2039 7.76345 18.1647 7.70736C17.1739 6.28936 15.7061 5.22829 13.9991 4.75666C13.8699 4.72096 13.7394 4.68865 13.6075 4.65981C13.7048 4.74409 13.7998 4.83591 13.8926 4.93493C14.6609 5.75522 15.2706 7.06923 15.6275 8.67981L15.675 8.67231C16.4367 8.53856 17.4307 8.19721 18.0884 7.95019C18.156 7.92479 18.2201 7.90039 18.28 7.87731ZM17.9715 7.78039C17.3585 8.0092 16.4845 8.30757 15.7798 8.44904C15.448 7.0491 14.921 5.86394 14.2502 5.04077C15.7649 5.53171 17.0673 6.50518 17.9715 7.78039ZM10.395 4.65981C10.2631 4.6886 10.1325 4.72086 10.0033 4.75647C8.32749 5.21832 6.88475 6.24537 5.89682 7.62123C5.85629 7.67768 5.81653 7.7347 5.77755 7.79231C5.84064 7.81348 5.90677 7.83513 5.97544 7.85713C6.69316 8.08706 7.68926 8.35487 8.41255 8.51231C8.77251 6.97692 9.36748 5.72592 10.1097 4.93482C10.2026 4.83583 10.2977 4.74405 10.395 4.65981ZM9.75191 5.04042C9.10838 5.82888 8.59687 6.9498 8.2645 8.27429C7.59078 8.12011 6.74036 7.88955 6.09693 7.68593C6.99641 6.45616 8.27164 5.51895 9.75191 5.04042ZM5.2325 14.7767C6.11156 15.1632 7.11512 15.4727 8.23005 15.6998C8.27005 15.7086 8.31067 15.7154 8.3513 15.7223C8.39192 15.7292 8.43255 15.7361 8.47255 15.7448C8.83684 17.1622 9.40586 18.3184 10.1073 19.0669C10.2001 19.166 10.2953 19.2579 10.3925 19.3423C10.2606 19.3134 10.13 19.2809 10.0007 19.2451C7.78013 18.6301 5.96893 17.0197 5.07876 14.9273C5.04084 14.8382 5.00459 14.7481 4.97005 14.6573C5.05626 14.6979 5.14374 14.7377 5.2325 14.7767ZM5.34934 15.0444C6.33123 15.9184 9.74917 18.9607 9.74917 18.9607C9.79166 18.9699 8.27357 15.912 8.31135 15.9184M9.74917 18.9607C7.79594 18.3262 6.19962 16.8908 5.34934 15.0444Z" fill="#F4F4F4"/>
<path d="M21 17.5C21 19.433 19.433 21 17.5 21C15.567 21 14 19.433 14 17.5C14 15.567 15.567 14 17.5 14C19.433 14 21 15.567 21 17.5Z" fill="#00B71D"/>
<path fill-rule="evenodd" clip-rule="evenodd" d="M22.5 17.5C22.5 20.2614 20.2614 22.5 17.5 22.5C14.7386 22.5 12.5 20.2614 12.5 17.5C12.5 14.7386 14.7386 12.5 17.5 12.5C20.2614 12.5 22.5 14.7386 22.5 17.5ZM17.5 21C19.433 21 21 19.433 21 17.5C21 15.567 19.433 14 17.5 14C15.567 14 14 15.567 14 17.5C14 19.433 15.567 21 17.5 21Z" fill="#202020"/>
</svg>
