<svg xmlns="http://www.w3.org/2000/svg" width="24" height="24" viewBox="0 0 24 24" fill="none">
  <path d="M19.7718 10.1572L17.0333 13.0372L16.9626 12.9665C16.5061 13.4223 15.9507 13.7668 15.3394 13.973C14.7281 14.1792 14.0775 14.2417 13.4382 14.1556C12.7989 14.0695 12.188 13.8371 11.6531 13.4765C11.1181 13.1159 10.6736 12.6368 10.3539 12.0764C10.314 12.0088 10.288 11.934 10.2772 11.8563C10.2665 11.7786 10.2714 11.6995 10.2915 11.6237C10.3117 11.5479 10.3467 11.4768 10.3945 11.4146C10.4424 11.3525 10.5022 11.3005 10.5703 11.2616C10.6385 11.2228 10.7137 11.1979 10.7916 11.1884C10.8694 11.1789 10.9484 11.185 11.0239 11.2064C11.0994 11.2277 11.1699 11.2638 11.2313 11.3127C11.2927 11.3615 11.3438 11.4221 11.3815 11.4908C11.6108 11.8934 11.9299 12.2377 12.3139 12.4968C12.698 12.7559 13.1366 12.9229 13.5958 12.9847C14.0549 13.0466 14.5221 13.0017 14.961 12.8534C15.3999 12.7052 15.7987 12.4577 16.1264 12.1302L18.9356 9.32087C19.5001 8.75645 19.8172 7.99091 19.8173 7.19265C19.8173 6.39439 19.5003 5.6288 18.9359 5.06431C18.3715 4.49981 17.606 4.18265 16.8078 4.1826C16.0095 4.18254 15.244 4.49959 14.6795 5.06401L12.1039 7.63971C11.9924 7.74745 11.843 7.80706 11.6879 7.80571C11.5329 7.80437 11.3845 7.74216 11.2749 7.63251C11.1652 7.52285 11.103 7.37451 11.1017 7.21944C11.1003 7.06437 11.1599 6.91497 11.2677 6.80342L13.8433 4.22772C14.6295 3.44151 15.6959 2.99985 16.8078 2.9999C17.3583 2.99993 17.9035 3.1084 18.4121 3.31912C18.9207 3.52984 19.3829 3.83868 19.7721 4.22802C20.1614 4.61735 20.4702 5.07955 20.6809 5.58822C20.8915 6.09689 20.9999 6.64208 20.9999 7.19265C20.9999 7.74322 20.8914 8.28839 20.6807 8.79705C20.47 9.3057 20.1612 9.76786 19.7718 10.1572ZM12.8964 15.3603L10.3208 17.936C10.0412 18.2155 9.70932 18.4371 9.34407 18.5883C8.97881 18.7395 8.58736 18.8173 8.19205 18.8172C7.79674 18.8171 7.40532 18.7392 7.04014 18.5878C6.67495 18.4364 6.34316 18.2146 6.0637 17.935C5.49931 17.3703 5.18235 16.6045 5.18254 15.8061C5.18274 15.0077 5.50007 14.2421 6.06474 13.6777L8.87393 10.8684C9.20183 10.5413 9.60069 10.2943 10.0395 10.1464C10.4784 9.99847 10.9454 9.9537 11.4043 10.0155C11.8633 10.0774 12.3018 10.2442 12.6859 10.5029C13.0699 10.7617 13.3892 11.1055 13.6188 11.5077C13.6566 11.5765 13.7076 11.637 13.769 11.6859C13.8304 11.7347 13.9009 11.7709 13.9764 11.7922C14.0519 11.8135 14.1309 11.8196 14.2088 11.8101C14.2866 11.8006 14.3618 11.7758 14.43 11.7369C14.4982 11.6981 14.5579 11.6461 14.6058 11.5839C14.6536 11.5217 14.6887 11.4507 14.7088 11.3749C14.7289 11.299 14.7338 11.22 14.7231 11.1422C14.7124 11.0645 14.6863 10.9897 14.6464 10.9222C14.3271 10.3614 13.8827 9.88192 13.3477 9.52102C12.8128 9.16011 12.2018 8.92754 11.5623 8.84141C10.9228 8.75527 10.2721 8.8179 9.66073 9.02442C9.04939 9.23094 8.49396 9.57577 8.03768 10.0321L5.22849 12.8414C4.44203 13.6276 4.0001 14.694 3.9999 15.8061C3.99971 16.9182 4.44127 17.9848 5.22745 18.7713C6.01363 19.5578 7.08003 19.9997 8.19205 19.9999C9.30407 20.0001 10.3706 19.5585 11.1571 18.7723L13.7327 16.1966C13.8404 16.0851 13.9 15.9357 13.8987 15.7806C13.8973 15.6255 13.8351 15.4772 13.7255 15.3675C13.6158 15.2579 13.4675 15.1957 13.3124 15.1943C13.1573 15.193 13.0079 15.2526 12.8964 15.3603Z" fill="#F4F4F4"/>
  <path fill-rule="evenodd" clip-rule="evenodd" d="M17.0333 13.0372C16.5659 13.504 15.9972 13.8566 15.3714 14.0677C14.7455 14.2789 14.0794 14.3429 13.4249 14.2547C12.7703 14.1666 12.1448 13.9286 11.5972 13.5594C11.0497 13.1903 10.5947 12.7 10.2674 12.1266C10.221 12.0478 10.1907 11.9606 10.1782 11.87C10.1657 11.7791 10.1713 11.6867 10.1949 11.598C10.2184 11.5094 10.2594 11.4263 10.3153 11.3536C10.3713 11.281 10.4411 11.2202 10.5208 11.1747C10.6005 11.1293 10.6884 11.1002 10.7795 11.0891C10.8705 11.0781 10.9629 11.0852 11.0511 11.1101C11.1394 11.1351 11.2218 11.1773 11.2936 11.2344C11.3651 11.2913 11.4247 11.3619 11.4688 11.442C11.6904 11.8309 11.9988 12.1635 12.3698 12.4139C12.7411 12.6644 13.1652 12.8258 13.6091 12.8856C14.053 12.9454 14.5047 12.902 14.929 12.7587C15.3534 12.6154 15.7389 12.3761 16.0557 12.0595L18.8649 9.25016C19.4106 8.70449 19.7172 7.96438 19.7173 7.19264C19.7173 6.4209 19.4108 5.68075 18.8652 5.13501C18.3195 4.58927 17.5795 4.28265 16.8078 4.28259C16.036 4.28254 15.2959 4.58906 14.7502 5.13472L12.1734 7.71165C12.043 7.8376 11.8683 7.90728 11.6871 7.90571C11.5058 7.90413 11.3324 7.83141 11.2042 7.70322C11.076 7.57502 11.0033 7.4016 11.0017 7.22031C11.0001 7.03902 11.0698 6.86436 11.1957 6.73395L11.1969 6.7327L13.7725 4.15701L13.8433 4.22772L11.2677 6.80342C11.1599 6.91497 11.1003 7.06437 11.1017 7.21944C11.103 7.37451 11.1652 7.52285 11.2749 7.63251C11.3845 7.74216 11.5329 7.80437 11.6879 7.80571C11.843 7.80706 11.9924 7.74745 12.1039 7.63971L14.6795 5.06401C15.244 4.49959 16.0095 4.18254 16.8078 4.1826C17.606 4.18265 18.3715 4.49981 18.9359 5.06431C19.5003 5.6288 19.8173 6.39439 19.8173 7.19265C19.8172 7.99091 19.5001 8.75645 18.9356 9.32087M13.8433 4.22772L13.7725 4.15701C14.5776 3.35204 15.6694 2.89985 16.8078 2.8999C17.3714 2.89993 17.9296 3.01099 18.4504 3.22673C18.9711 3.44248 19.4443 3.75869 19.8429 4.15731C20.2414 4.55593 20.5576 5.02915 20.7733 5.54995C20.9889 6.07076 21.0999 6.62895 21.0999 7.19265C21.0999 7.75636 20.9888 8.31453 20.7731 8.83532C20.5574 9.3561 20.2412 9.82929 19.8426 10.2279L17.0333 13.0372M12.8257 15.2896L12.8269 15.2884C12.9573 15.1624 13.132 15.0927 13.3133 15.0943C13.4946 15.0959 13.668 15.1686 13.7962 15.2968C13.9244 15.425 13.9971 15.5984 13.9987 15.7797C14.0002 15.961 13.9305 16.1357 13.8046 16.2661L13.8034 16.2673L11.2278 18.843C10.4226 19.648 9.33057 20.1001 8.19203 20.0999C7.05349 20.0997 5.96166 19.6472 5.15673 18.842C4.3518 18.0367 3.8997 16.9447 3.8999 15.8061C3.9001 14.6675 4.35257 13.5756 5.15779 12.7707L7.96697 9.96136C8.43413 9.49418 9.00281 9.14112 9.62873 8.92968C10.2546 8.71824 10.9209 8.65411 11.5757 8.7423C12.2304 8.83049 12.856 9.06861 13.4037 9.43812C13.9511 9.80748 14.406 10.2982 14.7329 10.872C14.7793 10.9508 14.8097 11.038 14.8221 11.1286C14.8347 11.2194 14.829 11.3119 14.8055 11.4005C14.7819 11.4892 14.741 11.5723 14.685 11.6449C14.6291 11.7176 14.5592 11.7784 14.4795 11.8238C14.3998 11.8692 14.3119 11.8983 14.2209 11.9094C14.1298 11.9205 14.0375 11.9134 13.9492 11.8884C13.861 11.8635 13.7785 11.8212 13.7068 11.7641C13.6352 11.7072 13.5757 11.6367 13.5316 11.5566C13.3096 11.1681 13.0011 10.8359 12.63 10.5859C12.2587 10.3357 11.8347 10.1744 11.391 10.1146C10.9473 10.0549 10.4957 10.0981 10.0715 10.2411C9.64719 10.3841 9.26157 10.623 8.94455 10.9392L6.13545 13.7484C5.58954 14.2941 5.28273 15.0343 5.28254 15.8061C5.28236 16.578 5.58879 17.3184 6.13443 17.8643C6.40461 18.1346 6.72538 18.3491 7.07843 18.4954C7.43148 18.6417 7.80989 18.7171 8.19207 18.7172C8.57425 18.7173 8.9527 18.6421 9.30582 18.4959C9.65894 18.3498 9.9798 18.1355 10.2501 17.8653L12.8257 15.2896ZM10.3208 17.936C10.0412 18.2155 9.70932 18.4371 9.34407 18.5883C8.97881 18.7395 8.58736 18.8173 8.19205 18.8172C7.79674 18.8171 7.40532 18.7392 7.04014 18.5878C6.67495 18.4364 6.34316 18.2146 6.0637 17.935C5.49931 17.3703 5.18235 16.6045 5.18254 15.8061C5.18274 15.0077 5.50007 14.2421 6.06474 13.6777L8.87393 10.8684C9.20183 10.5413 9.60069 10.2943 10.0395 10.1464C10.4784 9.99847 10.9454 9.9537 11.4043 10.0155C11.8633 10.0774 12.3018 10.2442 12.6859 10.5029C13.0699 10.7617 13.3892 11.1055 13.6188 11.5077C13.6566 11.5765 13.7076 11.637 13.769 11.6859C13.8304 11.7347 13.9009 11.7709 13.9764 11.7922C14.0519 11.8135 14.1309 11.8196 14.2088 11.8101C14.2866 11.8006 14.3618 11.7758 14.43 11.7369C14.4982 11.6981 14.5579 11.6461 14.6058 11.5839C14.6536 11.5217 14.6887 11.4507 14.7088 11.3749C14.7289 11.299 14.7338 11.22 14.7231 11.1422C14.7124 11.0645 14.6863 10.9897 14.6464 10.9222C14.3271 10.3614 13.8827 9.88192 13.3477 9.52102C12.8128 9.16011 12.2018 8.92754 11.5623 8.84141C10.9228 8.75527 10.2721 8.8179 9.66073 9.02442C9.04939 9.23094 8.49396 9.57577 8.03768 10.0321L5.22849 12.8414C4.44203 13.6276 4.0001 14.694 3.9999 15.8061C3.99971 16.9182 4.44127 17.9848 5.22745 18.7713C6.01363 19.5578 7.08003 19.9997 8.19205 19.9999C9.30407 20.0001 10.3706 19.5585 11.1571 18.7723L13.7327 16.1966C13.8404 16.0851 13.9 15.9357 13.8987 15.7806C13.8973 15.6255 13.8351 15.4772 13.7255 15.3675C13.6158 15.2579 13.4675 15.1957 13.3124 15.1943C13.1573 15.193 13.0079 15.2526 12.8964 15.3603L10.3208 17.936ZM16.8093 12.4185L19.7718 10.1572C20.1612 9.76786 20.47 9.3057 20.6807 8.79705C20.8914 8.28839 20.9999 7.74322 20.9999 7.19265C20.9999 6.64208 20.8915 6.09689 20.6809 5.58822C20.4702 5.07955 20.1614 4.61735 19.7721 4.22802C19.3829 3.83868 18.9207 3.52984 18.4121 3.31912C17.9035 3.1084 17.3583 2.99993 16.8078 2.9999C15.6959 2.99985 14.6295 3.44151 13.8433 4.22772" fill="#F4F4F4"/>
</svg>
