<svg xmlns="http://www.w3.org/2000/svg" width="25" height="24" viewBox="0 0 25 24" fill="none">
  <g clip-path="url(#clip0_5229_80065)">
    <rect x="0.5" width="24" height="24" rx="4" fill="#202020"/>
    <path d="M16.1541 4.28564H6.4097C5.51241 4.28564 4.78564 4.91331 4.78564 5.68824V15.5064H6.4097V5.68824H16.1541V4.28564ZM18.5902 7.09084H9.65782C8.76053 7.09084 8.03376 7.7185 8.03376 8.49344V18.3116C8.03376 19.0866 8.76053 19.7142 9.65782 19.7142H18.5902C19.4874 19.7142 20.2142 19.0866 20.2142 18.3116V8.49344C20.2142 7.7185 19.4874 7.09084 18.5902 7.09084ZM18.5902 18.3116H9.65782V8.49344H18.5902V18.3116Z" fill="#B9EEFE"/>
  </g>
  <rect x="0.75" y="0.25" width="23.5" height="23.5" rx="3.75" stroke="#F4F4F4" stroke-opacity="0.25" stroke-width="0.5"/>
  <defs>
    <clipPath id="clip0_5229_80065">
      <rect x="0.5" width="24" height="24" rx="4" fill="white"/>
    </clipPath>
  </defs>
</svg>
