<svg width="14" height="15" viewBox="0 0 14 15" fill="none" xmlns="http://www.w3.org/2000/svg">
<g id="Cross">
<g id="Group">
<g id="Group_2">
<path id="Vector" d="M7.61843 7.49978L10.369 4.74907C10.4108 4.70875 10.4441 4.66052 10.467 4.60719C10.4899 4.55386 10.502 4.4965 10.5025 4.43846C10.503 4.38042 10.4919 4.32287 10.4699 4.26915C10.4479 4.21543 10.4155 4.16662 10.3744 4.12558C10.3334 4.08454 10.2846 4.05209 10.2309 4.03011C10.1772 4.00813 10.1196 3.99707 10.0616 3.99758C10.0035 3.99808 9.94617 4.01014 9.89284 4.03305C9.83951 4.05595 9.79128 4.08925 9.75096 4.131L7.00025 6.8816L4.24965 4.131C4.16738 4.05054 4.05669 4.00576 3.94162 4.0064C3.82654 4.00703 3.71635 4.05302 3.63497 4.13439C3.55359 4.21575 3.50758 4.32593 3.50692 4.44101C3.50627 4.55609 3.55102 4.66678 3.63148 4.74907L6.38218 7.49978L3.63148 10.2505C3.59014 10.2909 3.55724 10.3391 3.53468 10.3924C3.51211 10.4456 3.50033 10.5028 3.50001 10.5606C3.49969 10.6184 3.51084 10.6757 3.53282 10.7292C3.5548 10.7826 3.58717 10.8312 3.62805 10.8721C3.66894 10.913 3.71752 10.9453 3.771 10.9673C3.82448 10.9893 3.88178 11.0004 3.93959 11.0001C3.9974 10.9998 4.05458 10.988 4.1078 10.9654C4.16102 10.9428 4.20924 10.9099 4.24965 10.8686L7.00025 8.11796L9.75096 10.8686C9.83631 10.9539 9.9482 10.9966 10.06 10.9966C10.1718 10.9966 10.2838 10.9539 10.369 10.8686C10.451 10.7866 10.497 10.6754 10.497 10.5595C10.497 10.4436 10.451 10.3325 10.369 10.2505L7.61843 7.49978Z" fill="#F4F4F4"/>
</g>
</g>
</g>
</svg>
