<svg xmlns="http://www.w3.org/2000/svg" width="24" height="24" viewBox="0 0 24 24" fill="none">
  <path fill-rule="evenodd" clip-rule="evenodd" d="M16.7881 4H6.9699C6.3172 4 5.78809 4.52912 5.78809 5.18182V18.8182C5.78809 19.4709 6.3172 20 6.9699 20H16.7881C17.4408 20 17.9699 19.4709 17.9699 18.8182V5.18182C17.9699 4.52912 17.4408 4 16.7881 4ZM6.9699 3C5.76492 3 4.78809 3.97683 4.78809 5.18182V18.8182C4.78809 20.0232 5.76492 21 6.9699 21H16.7881C17.9931 21 18.9699 20.0232 18.9699 18.8182V5.18182C18.9699 3.97683 17.9931 3 16.7881 3H6.9699Z" fill="#F4F4F4"/>
  <path fill-rule="evenodd" clip-rule="evenodd" d="M8.10585 10.091C8.10585 9.81487 8.3297 9.59102 8.60585 9.59102H15.1513C15.4274 9.59102 15.6513 9.81487 15.6513 10.091C15.6513 10.3672 15.4274 10.591 15.1513 10.591H8.60585C8.3297 10.591 8.10585 10.3672 8.10585 10.091Z" fill="#F4F4F4"/>
  <path fill-rule="evenodd" clip-rule="evenodd" d="M8.10585 12.8178C8.10585 12.5417 8.3297 12.3178 8.60585 12.3178H15.1513C15.4274 12.3178 15.6513 12.5417 15.6513 12.8178C15.6513 13.094 15.4274 13.3178 15.1513 13.3178H8.60585C8.3297 13.3178 8.10585 13.094 8.10585 12.8178Z" fill="#F4F4F4"/>
  <path fill-rule="evenodd" clip-rule="evenodd" d="M8.10585 15.5455C8.10585 15.2694 8.3297 15.0455 8.60585 15.0455H12.424C12.7002 15.0455 12.924 15.2694 12.924 15.5455C12.924 15.8216 12.7002 16.0455 12.424 16.0455H8.60585C8.3297 16.0455 8.10585 15.8216 8.10585 15.5455Z" fill="#F4F4F4"/>
  <path fill-rule="evenodd" clip-rule="evenodd" d="M13.5603 15.5455C13.5603 15.2694 13.7842 15.0455 14.0603 15.0455H15.1512C15.4274 15.0455 15.6512 15.2694 15.6512 15.5455C15.6512 15.8216 15.4274 16.0455 15.1512 16.0455H14.0603C13.7842 16.0455 13.5603 15.8216 13.5603 15.5455Z" fill="#F4F4F4"/>
  <path fill-rule="evenodd" clip-rule="evenodd" d="M14.6973 4H9.06093V4.63636C9.06093 4.68657 9.10163 4.72727 9.15183 4.72727H14.6064C14.6566 4.72727 14.6973 4.68657 14.6973 4.63636V4ZM8.06093 3V4.63636C8.06093 5.23886 8.54934 5.72727 9.15183 5.72727H14.6064C15.2089 5.72727 15.6973 5.23886 15.6973 4.63636V3H8.06093Z" fill="#F4F4F4"/>
</svg>
