<svg viewBox="0 0 24 24"
  xmlns="http://www.w3.org/2000/svg">
  <path d="M5.12338 16.5155L4.52705 16.4492V16.4492L5.12338 16.5155ZM5.46126 13.4746L6.05759 13.5408V13.5408L5.46126 13.4746ZM5.74804 12.8779L6.1723 13.3021L6.1723 13.3021L5.74804 12.8779ZM14.3333 4.29265L14.7575 4.71692L14.3333 4.29265ZM15.7047 4.25235L16.1034 3.8039L16.1034 3.8039L15.7047 4.25235ZM18.7073 6.92132L19.106 6.47288V6.47288L18.7073 6.92132ZM5 20.0259C4.66863 20.0259 4.4 20.2945 4.4 20.6259C4.4 20.9573 4.66863 21.2259 5 21.2259V20.0259ZM19 21.2259C19.3314 21.2259 19.6 20.9573 19.6 20.6259C19.6 20.2945 19.3314 20.0259 19 20.0259V21.2259ZM5.71971 16.5817L6.05759 13.5408L4.86493 13.4083L4.52705 16.4492L5.71971 16.5817ZM6.1723 13.3021L14.7575 4.71692L13.909 3.86839L5.32378 12.4536L6.1723 13.3021ZM15.3061 4.70079L18.3087 7.36977L19.106 6.47288L16.1034 3.8039L15.3061 4.70079ZM18.3258 7.95158L9.36863 16.9088L10.2172 17.7573L19.1743 8.8001L18.3258 7.95158ZM9.08579 17.0259H6.11726V18.2259H9.08579V17.0259ZM9.36863 16.9088C9.29361 16.9838 9.19187 17.0259 9.08579 17.0259V18.2259C9.51013 18.2259 9.9171 18.0573 10.2172 17.7573L9.36863 16.9088ZM18.3087 7.36977C18.4807 7.52267 18.4886 7.78884 18.3258 7.95158L19.1743 8.8001C19.8253 8.14914 19.794 7.08449 19.106 6.47288L18.3087 7.36977ZM14.7575 4.71692C14.9073 4.56716 15.1478 4.56009 15.3061 4.70079L16.1034 3.8039C15.4702 3.24108 14.508 3.26935 13.909 3.86839L14.7575 4.71692ZM6.05759 13.5408C6.06762 13.4505 6.10808 13.3664 6.1723 13.3021L5.32378 12.4536C5.06687 12.7105 4.90505 13.0472 4.86493 13.4083L6.05759 13.5408ZM4.52705 16.4492C4.42174 17.397 5.16365 18.2259 6.11726 18.2259V17.0259C5.87886 17.0259 5.69338 16.8187 5.71971 16.5817L4.52705 16.4492ZM12.1014 6.57436L16.6014 10.5744L17.3986 9.67747L12.8986 5.67747L12.1014 6.57436ZM5 21.2259H19V20.0259H5V21.2259Z" />
</svg>
