<svg xmlns="http://www.w3.org/2000/svg" viewBox="0 0 24 24">
  <path fill-rule="evenodd" clip-rule="evenodd" d="M4.79956 5.25014C4.79956 4.65337 5.03663 4.08103 5.45861 3.65905C5.8806 3.23707 6.45293 3 7.0497 3H16.9501C17.5467 3.00018 18.1189 3.23733 18.5407 3.65929C18.9626 4.08125 19.1995 4.65348 19.1995 5.25014V7.72506C19.1995 7.84438 19.1521 7.95881 19.0678 8.04319C18.9834 8.12756 18.869 8.17496 18.7496 8.17496C18.6303 8.17496 18.5159 8.12756 18.4315 8.04319C18.3471 7.95881 18.2997 7.84438 18.2997 7.72506V5.25014C18.2997 4.8921 18.1575 4.54871 17.9043 4.29554C17.6512 4.04236 17.3078 3.90012 16.9497 3.90012H7.04937C6.69132 3.90012 6.34794 4.04236 6.09476 4.29554C5.84158 4.54871 5.69935 4.8921 5.69935 5.25014V18.7503C5.69935 19.1084 5.84158 19.4517 6.09476 19.7049C6.34794 19.9581 6.69132 20.1003 7.04937 20.1003H16.9497C17.3078 20.1003 17.6512 19.9581 17.9043 19.7049C18.1575 19.4517 18.2997 19.1084 18.2997 18.7503V16.2751C18.2997 16.1557 18.3471 16.0413 18.4315 15.9569C18.5159 15.8726 18.6303 15.8252 18.7496 15.8252C18.869 15.8252 18.9834 15.8726 19.0678 15.9569C19.1521 16.0413 19.1995 16.1557 19.1995 16.2751V18.7503C19.1994 19.347 18.9624 19.9192 18.5405 20.3411C18.1186 20.763 17.5464 21 16.9497 21.0001H7.04937C6.45277 20.9999 5.88066 20.7628 5.45883 20.341C5.037 19.9191 4.79999 19.3469 4.7999 18.7503L4.79956 5.25014Z" fill="#F4F4F4"/>
  <path fill-rule="evenodd" clip-rule="evenodd" d="M16.1816 9.43166C16.0061 9.6075 16.0061 9.89235 16.1816 10.0682L17.6636 11.5498H10.6499C10.5306 11.5498 10.4161 11.5973 10.3317 11.6817C10.2473 11.7661 10.1999 11.8805 10.1999 11.9999C10.1999 12.1193 10.2473 12.2337 10.3317 12.3181C10.4161 12.4025 10.5306 12.45 10.6499 12.45H17.6633L16.1816 13.9316C16.1398 13.9734 16.1067 14.023 16.084 14.0776C16.0614 14.1322 16.0497 14.1907 16.0497 14.2498C16.0497 14.3088 16.0613 14.3674 16.0839 14.422C16.1065 14.4766 16.1397 14.5262 16.1814 14.568C16.2232 14.6098 16.2728 14.6429 16.3274 14.6656C16.382 14.6882 16.4405 14.6998 16.4996 14.6999C16.5587 14.6999 16.6172 14.6882 16.6718 14.6656C16.7264 14.643 16.776 14.6099 16.8178 14.5681L19.068 12.3183C19.2435 12.1428 19.2435 11.8576 19.068 11.6818L16.8178 9.432C16.776 9.39018 16.7264 9.357 16.6718 9.33437C16.6172 9.31173 16.5587 9.30008 16.4995 9.30008C16.4404 9.30008 16.3819 9.31173 16.3273 9.33437C16.2727 9.357 16.2234 9.38984 16.1816 9.43166Z" fill="#F4F4F4"/>
  <path fill-rule="evenodd" clip-rule="evenodd" d="M4.59961 5.24995C4.59961 4.60013 4.85775 3.97693 5.31724 3.51743C5.77673 3.05794 6.39993 2.7998 7.04975 2.7998H16.9501C17.5998 2.8 18.2229 3.05822 18.6822 3.51769C19.1415 3.97716 19.3996 4.60026 19.3996 5.24995V7.72487C19.3996 7.89723 19.3311 8.06253 19.2092 8.18441C19.0873 8.30629 18.922 8.37476 18.7497 8.37476C18.5773 8.37476 18.412 8.30629 18.2901 8.18441C18.1683 8.06253 18.0998 7.89723 18.0998 7.72487V5.24995C18.0998 4.94494 17.9786 4.65243 17.763 4.43676C17.5473 4.22109 17.2548 4.09993 16.9498 4.09993H7.04941C6.74441 4.09993 6.4519 4.22109 6.23623 4.43676C6.02056 4.65243 5.8994 4.94494 5.8994 5.24995V18.7501C5.8994 19.0551 6.02056 19.3476 6.23623 19.5633C6.4519 19.779 6.74441 19.9001 7.04941 19.9001H16.9498C17.2548 19.9001 17.5473 19.779 17.763 19.5633C17.9786 19.3476 18.0998 19.0551 18.0998 18.7501V16.2749C18.0998 16.1025 18.1683 15.9372 18.2901 15.8153C18.412 15.6934 18.5773 15.625 18.7497 15.625C18.922 15.625 19.0873 15.6934 19.2092 15.8153C19.3311 15.9372 19.3996 16.1025 19.3996 16.2749V18.7501C19.3995 19.3998 19.1413 20.0229 18.6819 20.4823C18.2225 20.9417 17.5995 21.1998 16.9498 21.1999H7.04941C6.39979 21.1997 5.77677 20.9416 5.31745 20.4822C4.85813 20.0228 4.60004 19.3998 4.59995 18.7502L4.59961 5.24995ZM16.0402 9.29011C16.1007 9.22954 16.1721 9.18203 16.2508 9.14941C16.3296 9.11672 16.4142 9.09989 16.4996 9.09989C16.585 9.09989 16.6695 9.11672 16.7484 9.14941C16.8273 9.1821 16.8989 9.23 16.9593 9.29037L19.2094 11.5402C19.4628 11.794 19.4631 12.2059 19.2094 12.4596L16.9593 14.7094C16.8989 14.7697 16.8272 14.8176 16.7483 14.8502C16.6695 14.8829 16.5849 14.8997 16.4996 14.8997C16.4142 14.8996 16.3297 14.8828 16.2509 14.8501C16.172 14.8174 16.1004 14.7695 16.04 14.7092C15.9797 14.6488 15.9318 14.5771 15.8992 14.4983C15.8665 14.4194 15.8498 14.3349 15.8498 14.2495C15.8498 14.1641 15.8666 14.0796 15.8993 14.0008C15.932 13.9219 15.9799 13.8503 16.0402 13.79C16.0402 13.79 16.0403 13.79 16.0402 13.79L17.1805 12.6498H10.65C10.4776 12.6498 10.3122 12.5813 10.1903 12.4594C10.0684 12.3375 9.9999 12.1721 9.9999 11.9997C9.9999 11.8273 10.0684 11.662 10.1903 11.54C10.3122 11.4181 10.4776 11.3496 10.65 11.3496H17.1807L16.0403 10.2094C15.7868 9.95552 15.7867 9.54402 16.0402 9.29011ZM17.6636 11.5496H10.65C10.5306 11.5496 10.4161 11.5971 10.3317 11.6815C10.2473 11.7659 10.1999 11.8803 10.1999 11.9997C10.1999 12.1191 10.2473 12.2335 10.3317 12.3179C10.4161 12.4024 10.5306 12.4498 10.65 12.4498H17.6633L16.1817 13.9314C16.1399 13.9732 16.1067 14.0228 16.0841 14.0774C16.0615 14.132 16.0498 14.1905 16.0498 14.2496C16.0498 14.3087 16.0614 14.3672 16.084 14.4218C16.1066 14.4764 16.1397 14.526 16.1815 14.5678C16.2233 14.6096 16.2729 14.6427 16.3275 14.6654C16.382 14.688 16.4405 14.6996 16.4996 14.6997C16.5587 14.6997 16.6172 14.688 16.6718 14.6654C16.7264 14.6428 16.7761 14.6097 16.8179 14.5679L19.068 12.3181C19.2435 12.1426 19.2435 11.8574 19.068 11.6816L16.8179 9.4318C16.7761 9.38998 16.7265 9.35681 16.6719 9.33417C16.6172 9.31154 16.5587 9.29989 16.4996 9.29989C16.4405 9.29989 16.3819 9.31154 16.3273 9.33417C16.2727 9.35681 16.2234 9.38965 16.1817 9.43146C16.0062 9.6073 16.0062 9.89216 16.1817 10.068L17.6636 11.5496ZM4.79961 5.24995C4.79961 4.65317 5.03668 4.08084 5.45866 3.65886C5.88064 3.23687 6.45298 2.9998 7.04975 2.9998H16.9501C17.5468 2.99998 18.1189 3.23713 18.5408 3.65909C18.9626 4.08106 19.1996 4.65329 19.1996 5.24995V7.72487C19.1996 7.84419 19.1522 7.95862 19.0678 8.04299C18.9834 8.12736 18.869 8.17476 18.7497 8.17476C18.6304 8.17476 18.5159 8.12736 18.4316 8.04299C18.3472 7.95862 18.2998 7.84419 18.2998 7.72487V5.24995C18.2998 4.8919 18.1576 4.54852 17.9044 4.29534C17.6512 4.04216 17.3078 3.89993 16.9498 3.89993H7.04941C6.69137 3.89993 6.34798 4.04216 6.09481 4.29534C5.84163 4.54852 5.6994 4.8919 5.6994 5.24995V18.7501C5.6994 19.1082 5.84163 19.4516 6.09481 19.7047C6.34798 19.9579 6.69137 20.1001 7.04941 20.1001H16.9498C17.3078 20.1001 17.6512 19.9579 17.9044 19.7047C18.1576 19.4516 18.2998 19.1082 18.2998 18.7501V16.2749C18.2998 16.1555 18.3472 16.0411 18.4316 15.9567C18.5159 15.8724 18.6304 15.825 18.7497 15.825C18.869 15.825 18.9834 15.8724 19.0678 15.9567C19.1522 16.0411 19.1996 16.1555 19.1996 16.2749V18.7501C19.1995 19.3468 18.9624 19.919 18.5405 20.3409C18.1186 20.7628 17.5464 20.9998 16.9498 20.9999H7.04941C6.45282 20.9998 5.88071 20.7627 5.45888 20.3408C5.03705 19.9189 4.80004 19.3467 4.79995 18.7501L4.79961 5.24995Z" fill="#F4F4F4"/>
</svg>
