<svg xmlns="http://www.w3.org/2000/svg" viewBox="0 0 24 24">
  <path fill-rule="evenodd" clip-rule="evenodd" d="M6.66667 4.75C6.42355 4.75 6.19039 4.84658 6.01849 5.01849C5.84658 5.19039 5.75 5.42355 5.75 5.66667V17.3333C5.75 17.5764 5.84658 17.8096 6.01849 17.9815C6.19039 18.1534 6.42355 18.25 6.66667 18.25H18.3333C18.5764 18.25 18.8096 18.1534 18.9815 17.9815C19.1534 17.8096 19.25 17.5764 19.25 17.3333V13.1667C19.25 12.7525 19.5858 12.4167 20 12.4167C20.4142 12.4167 20.75 12.7525 20.75 13.1667V17.3333C20.75 17.9743 20.4954 18.589 20.0422 19.0422C19.589 19.4954 18.9743 19.75 18.3333 19.75H6.66667C6.02573 19.75 5.41104 19.4954 4.95783 19.0422C4.50461 18.589 4.25 17.9743 4.25 17.3333V5.66667C4.25 5.02573 4.50461 4.41104 4.95783 3.95783C5.41104 3.50461 6.02573 3.25 6.66667 3.25H10.8333C11.2475 3.25 11.5833 3.58579 11.5833 4C11.5833 4.41421 11.2475 4.75 10.8333 4.75H6.66667ZM15.0833 4C15.0833 3.58579 15.4191 3.25 15.8333 3.25H20C20.4142 3.25 20.75 3.58579 20.75 4V8.16667C20.75 8.58088 20.4142 8.91667 20 8.91667C19.5858 8.91667 19.25 8.58088 19.25 8.16667V5.81066L14.2803 10.7803C13.9874 11.0732 13.5126 11.0732 13.2197 10.7803C12.9268 10.4874 12.9268 10.0126 13.2197 9.71967L18.1893 4.75H15.8333C15.4191 4.75 15.0833 4.41421 15.0833 4Z" />
</svg>
