<svg viewBox="0 0 24 24" fill="none"
  xmlns="http://www.w3.org/2000/svg">
  <path d="M20.8962 12.2918L20.8962 12.2918L21.0782 12.0616L21.1273 11.9995L21.0782 11.9375L20.8962 11.7073L20.8962 11.7073C20.8134 11.6027 19.8114 10.3557 18.2221 9.134C16.6343 7.91346 14.4484 6.70908 11.9999 6.70908C9.55141 6.70908 7.36553 7.91346 5.77768 9.134C4.18836 10.3557 3.18637 11.6027 3.10361 11.7073L3.10359 11.7073L2.92156 11.9375L2.87252 11.9995L2.92156 12.0616L3.10359 12.2918L3.10361 12.2918C3.18637 12.3964 4.18836 13.6434 5.77768 14.8651C7.36553 16.0856 9.55141 17.29 11.9999 17.29C14.4484 17.29 16.6343 16.0856 18.2221 14.8651C19.8114 13.6434 20.8134 12.3964 20.8962 12.2918ZM11.9999 7.65058C13.916 7.65058 15.7004 8.51486 17.1137 9.50386C18.4633 10.4483 19.4654 11.5002 19.9082 11.9996C19.466 12.4994 18.4652 13.5512 17.1161 14.4955C15.7035 15.4844 13.9188 16.3485 11.9999 16.3485C10.0838 16.3485 8.2994 15.4842 6.88614 14.4952C5.53654 13.5508 4.53438 12.4989 4.09155 11.9995C4.53376 11.4997 5.53461 10.4479 6.88365 9.50357C8.29631 8.51469 10.081 7.65058 11.9999 7.65058Z" fill="#F4F4F4" stroke="#F4F4F4" stroke-width="0.2"/>
  <path d="M11.9998 15.437C13.8951 15.437 15.4365 13.8952 15.4365 12.0003C15.4365 10.1054 13.8951 8.56357 11.9998 8.56357C10.1046 8.56357 8.56309 10.1054 8.56309 12.0003C8.56309 13.8952 10.1046 15.437 11.9998 15.437ZM11.9998 9.50507C13.3753 9.50507 14.495 10.6245 14.495 12.0003C14.495 13.3761 13.3753 14.4955 11.9998 14.4955C10.6243 14.4955 9.50458 13.3761 9.50458 12.0003C9.50458 10.6245 10.6243 9.50507 11.9998 9.50507Z" fill="#F4F4F4" stroke="#F4F4F4" stroke-width="0.2"/>
  <path d="M6.2557 3.84508C5.89399 3.42772 5.26243 3.38261 4.84508 3.74432C4.42772 4.10603 4.38261 4.73758 4.74432 5.15494L17.7443 20.1549C18.106 20.5723 18.7376 20.6174 19.1549 20.2557C19.5723 19.894 19.6174 19.2624 19.2557 18.8451L6.2557 3.84508Z" fill="#F4F4F4" stroke="#010101" stroke-linecap="round"/>
</svg>
