<svg width="33" height="32" viewBox="0 0 33 32" fill="none" xmlns="http://www.w3.org/2000/svg">
<g id="File">
<path id="path7" d="M8.85548 2C7.00557 2 5.5 3.51972 5.5 5.38703V26.613C5.5 28.4803 7.00557 30 8.85548 30H24.1445C25.9944 30 27.5 28.4803 27.5 26.613V10.2474C27.5 10.2339 27.4866 10.2243 27.4847 10.2108C27.4816 10.0975 27.4381 9.98919 27.3623 9.90565L19.7101 2.18152C19.6305 2.10525 19.5269 2.05949 19.4174 2.05214C19.3734 2.03862 19.3351 2 19.2873 2H8.85548ZM8.85548 2.96552H18.8913V7.37021C18.8913 9.224 20.3835 10.7302 22.2162 10.7302H26.5435V26.613C26.5435 27.9473 25.4645 29.0345 24.1445 29.0345H8.85548C7.53548 29.0345 6.45652 27.9473 6.45652 26.613V5.38703C6.45652 4.05269 7.53548 2.96552 8.85548 2.96552ZM19.8517 3.72828L25.8663 9.76469H22.2162C21.5884 9.76265 20.987 9.50947 20.5437 9.06064C20.1005 8.61181 19.8516 8.00393 19.8517 7.37021V3.72828ZM21.1563 19.7443C21.0918 19.7451 21.028 19.7591 20.9688 19.7853C20.9097 19.8115 20.8563 19.8494 20.812 19.8968L18.3158 22.5652C18.1355 22.7579 18.1441 23.0598 18.335 23.242Lnan nanL18.335 23.242C18.5286 23.4267 18.8357 23.4179 19.0185 23.2225L20.6838 21.4417V26.6439H21.6403V21.4243L23.3802 23.2306C23.5662 23.4237 23.874 23.428 24.0654 23.2402Lnan nanL24.0654 23.2402C24.2543 23.0548 24.2585 22.7518 24.0748 22.5612L21.5026 19.893C21.4108 19.7964 21.317 19.7578 21.1563 19.7443Z" fill="#F4F4F4"/>
<path id="path7 (Stroke)" fill-rule="evenodd" clip-rule="evenodd" d="M19.7101 2.18152L27.3623 9.90565C27.4381 9.98919 27.4816 10.0975 27.4847 10.2108C27.4856 10.2171 27.489 10.2226 27.4924 10.228C27.4962 10.2342 27.5 10.2403 27.5 10.2474V26.613C27.5 28.4803 25.9944 30 24.1445 30H8.85548C7.00557 30 5.5 28.4803 5.5 26.613V5.38703C5.5 3.51972 7.00557 2 8.85548 2H19.2873C19.3164 2 19.342 2.01429 19.3674 2.02853C19.3838 2.0377 19.4002 2.04684 19.4174 2.05214C19.5269 2.05949 19.6305 2.10525 19.7101 2.18152ZM19.5667 1.56811C19.5174 1.54332 19.4163 1.5 19.2873 1.5H8.85548C6.72502 1.5 5 3.248 5 5.38703V26.613C5 28.752 6.72502 30.5 8.85548 30.5H24.1445C26.275 30.5 28 28.752 28 26.613V10.2474C28 10.1854 27.989 10.1321 27.9756 10.0899C27.9489 9.89699 27.8648 9.71532 27.7325 9.5696L27.7252 9.56152L20.0653 1.82962L20.0559 1.82041C19.9202 1.6904 19.7501 1.60299 19.5667 1.56811ZM21.1741 19.244L21.1983 19.246C21.3078 19.2553 21.4292 19.2755 21.5511 19.3274C21.6784 19.3816 21.7791 19.4585 21.8635 19.5469C21.864 19.5474 21.8644 19.5479 21.8649 19.5484L24.4348 22.2142C24.809 22.6023 24.8004 23.2195 24.4156 23.5971C24.0258 23.9796 23.3989 23.9708 23.02 23.5774L22.1403 22.6641V27.1439H20.1838V22.7084L19.3837 23.564C19.011 23.9625 18.3847 23.9804 17.9899 23.6038C17.6005 23.2323 17.583 22.6166 17.9506 22.2236L20.4468 19.5553C20.4468 19.5553 20.4468 19.5553 20.4468 19.5553C20.5369 19.459 20.6455 19.3816 20.7663 19.3281C20.8871 19.2746 21.0176 19.246 21.1498 19.2443L21.1741 19.244ZM20.812 19.8968L18.3158 22.5652C18.1355 22.7579 18.1441 23.0598 18.335 23.242C18.5286 23.4267 18.8357 23.4179 19.0185 23.2225L20.6838 21.4417V26.6439H21.6403V21.4243L23.3802 23.2306C23.5662 23.4237 23.874 23.428 24.0654 23.2402C24.2543 23.0548 24.2585 22.7518 24.0748 22.5612L21.5026 19.893C21.4108 19.7964 21.317 19.7578 21.1563 19.7443C21.0918 19.7451 21.028 19.7591 20.9688 19.7853C20.9097 19.8115 20.8563 19.8494 20.812 19.8968ZM18.3913 3.46552H8.85548C7.81576 3.46552 6.95652 4.32467 6.95652 5.38703V26.613C6.95652 27.6753 7.81576 28.5345 8.85548 28.5345H24.1445C25.1842 28.5345 26.0435 27.6753 26.0435 26.613V11.2302H22.2162C20.1026 11.2302 18.3913 9.49534 18.3913 7.37021V3.46552ZM19.8517 3.72828V7.37021C19.8516 8.00393 20.1005 8.61181 20.5437 9.06064C20.987 9.50947 21.5884 9.76265 22.2162 9.76469H25.8663L19.8517 3.72828ZM20.3517 4.93848L24.6622 9.26469H22.217C21.7233 9.26286 21.2495 9.06372 20.8995 8.70932C20.5492 8.35455 20.3516 7.8731 20.3517 7.37021V4.93848ZM8.85548 2.96552C7.53548 2.96552 6.45652 4.05269 6.45652 5.38703V26.613C6.45652 27.9473 7.53548 29.0345 8.85548 29.0345H24.1445C25.4645 29.0345 26.5435 27.9473 26.5435 26.613V10.7302H22.2162C20.3835 10.7302 18.8913 9.224 18.8913 7.37021V2.96552H8.85548Z" fill="#F4F4F4"/>
</g>
</svg>
