<svg viewBox="0 0 24 24" fill="none"
  xmlns="http://www.w3.org/2000/svg">
  <g id="Icons">
    <path id="Vector" d="M12.128 17.331V17.3251C12.3327 17.3047 12.5109 17.2205 12.6587 17.0727L12.6592 17.0722C12.8294 16.8998 12.915 16.6877 12.915 16.442C12.915 16.1949 12.8286 15.9825 12.6566 15.8111C12.4846 15.64 12.2724 15.554 12.026 15.554C11.7789 15.554 11.5665 15.6404 11.3951 15.8124C11.224 15.9844 11.138 16.1966 11.138 16.443C11.138 16.6901 11.2247 16.9025 11.3973 17.0737C11.5687 17.2451 11.781 17.331 12.028 17.331H12.128ZM12.8111 12.9053L12.8112 12.9052C12.9415 12.6483 13.2155 12.311 13.643 11.8914L13.6437 11.8907C14.0933 11.4411 14.4311 11.035 14.6541 10.6725C14.883 10.3016 14.996 9.8743 14.996 9.394C14.996 8.57949 14.7085 7.92245 14.1306 7.43365L14.1305 7.43361C13.5577 6.94966 12.8792 6.708 12.1 6.708C11.3615 6.708 10.7284 6.90898 10.2066 7.31508L10.2065 7.31513C9.84983 7.59319 9.55793 7.90119 9.33211 8.23952C9.13556 8.53398 9.29425 8.90376 9.60053 9.0306C9.90181 9.15537 10.2307 9.00969 10.3987 8.75385C10.5223 8.56552 10.6694 8.39122 10.8404 8.23096L10.8405 8.23088C11.1139 7.97394 11.5158 7.838 12.062 7.838C12.6934 7.838 13.133 8.01087 13.4053 8.33619L13.4055 8.33636C13.6911 8.67608 13.831 9.04506 13.831 9.446C13.831 9.77347 13.7429 10.0628 13.5676 10.3173L13.5675 10.3175C13.386 10.5826 13.148 10.851 12.8524 11.1223L12.8522 11.1225C12.2698 11.6593 11.8784 12.123 11.69 12.5124L11.6899 12.5126C11.503 12.901 11.412 13.371 11.412 13.919C11.412 13.9748 11.4572 14.02 11.513 14.02H11.9945C12.3216 14.02 12.5743 13.7647 12.6319 13.4597C12.6728 13.2433 12.733 13.059 12.8111 12.9053ZM8.45338 20.3838L8.45345 20.3838C9.56247 20.8615 10.746 21.1 12.003 21.1C13.2607 21.1 14.4439 20.8611 15.5516 20.3828C16.6574 19.9053 17.6201 19.2566 18.4388 18.4367C19.258 17.6167 19.9064 16.653 20.3838 15.5466L20.3838 15.5466C20.8615 14.4375 21.1 13.254 21.1 11.997C21.1 10.7393 20.8611 9.55609 20.3828 8.44836C19.9053 7.34257 19.2567 6.37989 18.4367 5.56126C17.6167 4.74197 16.6531 4.09364 15.5466 3.61618L15.5466 3.61615C14.4375 3.13855 13.254 2.9 11.997 2.9C10.7393 2.9 9.55609 3.13888 8.44836 3.61719C7.34255 4.09467 6.37987 4.74336 5.56123 5.56335C4.74196 6.3833 4.09364 7.34695 3.61618 8.45338L3.61615 8.45345C3.13855 9.56247 2.9 10.746 2.9 12.003C2.9 13.2607 3.13888 14.4439 3.61719 15.5516C4.09467 16.6574 4.74336 17.6201 5.56335 18.4388C6.3833 19.258 7.34695 19.9064 8.45338 20.3838ZM17.6043 17.6043C16.0734 19.1351 14.2074 19.9 12 19.9C9.79263 19.9 7.92656 19.1351 6.39571 17.6043C4.86486 16.0734 4.1 14.2074 4.1 12C4.1 9.79263 4.86486 7.92656 6.39571 6.39571C7.92656 4.86486 9.79263 4.1 12 4.1C14.2074 4.1 16.0734 4.86486 17.6043 6.39571C19.1351 7.92656 19.9 9.79263 19.9 12C19.9 14.2074 19.1351 16.0734 17.6043 17.6043Z" fill="#F4F4F4" stroke="#F4F4F4" stroke-width="0.2"/>
  </g>
</svg>
