<svg xmlns="http://www.w3.org/2000/svg" width="24" height="24" viewBox="0 0 24 24" fill="none">
  <path fill-rule="evenodd" clip-rule="evenodd" d="M7.6214 20.2499C9.77475 20.2476 11.5199 18.5021 11.5222 16.3488L11.5209 16.2996C11.4997 15.4804 11.4869 14.9837 10.8279 14.1621L15.2642 9.6953L16.4661 10.8971C16.8229 11.2551 17.2749 11.0466 17.4563 10.8976C17.7298 10.6242 17.7298 10.1809 17.4565 9.90748L16.2543 8.70525L17.5279 7.43177L18.7301 8.63401C18.8613 8.76537 19.0396 8.83952 19.2254 8.83938C19.4517 8.83938 19.6497 8.70271 19.7204 8.63438C19.9938 8.36102 19.9939 7.91772 19.7205 7.64427L18.518 6.44177L20.1197 4.84011L20.1234 4.83644C20.3855 4.56512 20.3855 4.13494 20.1234 3.86362C19.8548 3.58551 19.4116 3.57782 19.1334 3.84644L9.82841 13.1506C9.20306 12.7147 8.44751 12.4477 7.62108 12.4477C5.46655 12.4477 3.71997 14.1943 3.71997 16.3488C3.71997 18.5033 5.46687 20.2499 7.6214 20.2499ZM7.60005 19.2001C9.14645 19.2001 10.4 17.9465 10.4 16.4001C10.4 14.8537 9.14645 13.6001 7.60005 13.6001C6.05365 13.6001 4.80005 14.8537 4.80005 16.4001C4.80005 17.9465 6.05365 19.2001 7.60005 19.2001Z" fill="#F4F4F4"/>
</svg>
