<svg xmlns="http://www.w3.org/2000/svg" viewBox="0 0 24 24" fill="none">
  <path d="M19.2177 4.00441L19.2177 4.00443C19.4362 3.79336 19.7845 3.79941 19.9955 4.01792C19.9955 4.01792 19.9955 4.01793 19.9955 4.01793L19.2177 4.00441ZM19.2177 4.00441L19.2158 4.00625M19.2177 4.00441L19.2158 4.00625M19.2158 4.00625L14.8801 8.34162M19.2158 4.00625L14.8801 8.34162M7.60127 20.15H7.60111C5.52942 20.15 3.85 18.4706 3.85 16.3989C3.85 14.3272 5.52942 12.6478 7.60111 12.6478C8.43941 12.6478 9.20277 12.9338 9.82426 13.397L14.8255 8.39628C14.8255 8.3962 14.8256 8.39612 14.8256 8.39604C14.8305 8.3884 14.8377 8.3782 14.848 8.36762L7.60127 20.15ZM7.60127 20.15C9.6719 20.1478 11.35 18.4697 11.3522 16.3991V16.3989M7.60127 20.15L11.3522 16.3989M11.3522 16.3989C11.3522 15.5602 11.0659 14.7965 10.6023 14.1749M11.3522 16.3989L10.6023 14.1749M17.3303 10.8416L17.3303 10.8416C17.2272 10.9447 17.0874 11.0026 16.9417 11.0027C16.9416 11.0027 16.9416 11.0027 16.9415 11.0027L16.9415 10.8527L17.3303 10.8416ZM17.3303 10.8416C17.5452 10.6268 17.5452 10.2785 17.3305 10.0636L17.3304 10.0636M17.3303 10.8416L17.3304 10.0636M17.3304 10.0636L16.0222 8.75535M17.3304 10.0636L16.0222 8.75535M14.8801 8.34162C14.8789 8.34237 14.8777 8.34318 14.8764 8.34402C14.8688 8.34916 14.8587 8.3567 14.8484 8.36726L14.8801 8.34162ZM10.6023 14.1749L15.2443 9.53327L16.5523 10.8413C16.5524 10.8414 16.5525 10.8415 16.5525 10.8415L10.6023 14.1749ZM16.0222 8.75535L17.5079 7.26974L18.8164 8.57818L18.8165 8.57832L18.9226 8.47225L16.0222 8.75535ZM19.2057 8.73947C19.3514 8.73942 19.4913 8.68148 19.5943 8.57843L19.2055 8.73947C19.2055 8.73947 19.2056 8.73947 19.2057 8.73947ZM7.60111 19.0498C6.13709 19.0498 4.95025 17.8629 4.95025 16.3989C4.95025 14.9349 6.13699 13.7481 7.60093 13.748C9.06431 13.7498 10.2502 14.9357 10.252 16.3991C10.2519 17.863 9.06507 19.0498 7.60111 19.0498Z" fill="#F4F4F4" stroke="#F4F4F4" stroke-width="0.3"/>
</svg>
