<svg width="16" height="16" viewBox="0 0 16 16" fill="none" xmlns="http://www.w3.org/2000/svg">
<g id="loading">
<path id="Vector" d="M3.40016 10.6668C3.20016 10.3335 2.80016 10.2668 2.46683 10.4002C2.1335 10.6002 2.06683 11.0002 2.20016 11.3335C2.40016 11.6668 2.80016 11.7335 3.1335 11.6002C3.46683 11.4002 3.5335 11.0002 3.40016 10.6668ZM3.1335 4.40016C2.80016 4.26683 2.40016 4.3335 2.20016 4.66683C2.06683 5.00016 2.1335 5.40016 2.46683 5.60016C2.80016 5.7335 3.20016 5.66683 3.40016 5.3335C3.5335 5.00016 3.46683 4.60016 3.1335 4.40016ZM13.5335 5.60016C13.8668 5.40016 13.9335 5.00016 13.8002 4.66683C13.6002 4.3335 13.2002 4.26683 12.8668 4.40016C12.5335 4.60016 12.4668 5.00016 12.6002 5.3335C12.8002 5.66683 13.2002 5.7335 13.5335 5.60016ZM2.66683 8.00016C2.66683 7.60016 2.40016 7.3335 2.00016 7.3335C1.60016 7.3335 1.3335 7.60016 1.3335 8.00016C1.3335 8.40016 1.60016 8.66683 2.00016 8.66683C2.40016 8.66683 2.66683 8.40016 2.66683 8.00016ZM4.80016 12.5335C4.46683 12.6002 4.20016 13.0002 4.3335 13.3335C4.40016 13.6668 4.80016 13.9335 5.1335 13.8002C5.46683 13.7335 5.7335 13.3335 5.60016 13.0002C5.5335 12.6668 5.20016 12.4668 4.80016 12.5335ZM14.0002 7.3335C13.6002 7.3335 13.3335 7.60016 13.3335 8.00016C13.3335 8.40016 13.6002 8.66683 14.0002 8.66683C14.4002 8.66683 14.6668 8.40016 14.6668 8.00016C14.6668 7.60016 14.4002 7.3335 14.0002 7.3335ZM13.5335 10.4002C13.2002 10.2002 12.8002 10.3335 12.6002 10.6668C12.4002 11.0002 12.5335 11.4002 12.8668 11.6002C13.2002 11.8002 13.6002 11.6668 13.8002 11.3335C13.9335 11.0002 13.8668 10.6002 13.5335 10.4002ZM11.3335 2.20016C11.0002 2.00016 10.6002 2.1335 10.4002 2.46683C10.2002 2.80016 10.3335 3.20016 10.6668 3.40016C11.0002 3.60016 11.4002 3.46683 11.6002 3.1335C11.7335 2.80016 11.6668 2.40016 11.3335 2.20016ZM11.2002 12.5335C10.8668 12.4668 10.4668 12.6668 10.4002 13.0002C10.3335 13.3335 10.5335 13.7335 10.8668 13.8002C11.2002 13.8668 11.6002 13.6668 11.6668 13.3335C11.7335 13.0002 11.5335 12.6668 11.2002 12.5335ZM8.00016 13.3335C7.60016 13.3335 7.3335 13.6002 7.3335 14.0002C7.3335 14.4002 7.60016 14.6668 8.00016 14.6668C8.40016 14.6668 8.66683 14.4002 8.66683 14.0002C8.66683 13.6002 8.40016 13.3335 8.00016 13.3335ZM8.00016 1.3335C7.60016 1.3335 7.3335 1.60016 7.3335 2.00016C7.3335 2.40016 7.60016 2.66683 8.00016 2.66683C8.40016 2.66683 8.66683 2.40016 8.66683 2.00016C8.66683 1.60016 8.40016 1.3335 8.00016 1.3335Z" fill="#F4F4F4"/>
</g>
</svg>
