<svg width="25" height="24" viewBox="0 0 25 24" fill="none" xmlns="http://www.w3.org/2000/svg">
<g id="Icons">
<path id="Vector" d="M17.8333 6.30147C18.2406 6.30147 18.625 6.0326 18.625 5.64706C18.625 5.26151 18.2406 4.99265 17.8333 4.99265H13.2917V3.52941C13.2917 3.14386 12.9073 2.875 12.5 2.875C12.0927 2.875 11.7083 3.14386 11.7083 3.52941V4.99265H11.1667C8.55271 4.99265 6.375 6.68563 6.375 8.82353C6.375 10.9614 8.55271 12.6544 11.1667 12.6544H11.7083V17.6985H7.16667C6.75937 17.6985 6.375 17.9674 6.375 18.3529C6.375 18.7385 6.75937 19.0074 7.16667 19.0074H11.7083V20.4706C11.7083 20.8561 12.0927 21.125 12.5 21.125C12.9073 21.125 13.2917 20.8561 13.2917 20.4706V19.0074H13.8333C16.4473 19.0074 18.625 17.3144 18.625 15.1765C18.625 13.0386 16.4473 11.3456 13.8333 11.3456H13.2917V6.30147H17.8333ZM11.7083 11.3456H11.1667C9.36729 11.3456 7.95833 10.1903 7.95833 8.82353C7.95833 7.45672 9.36729 6.30147 11.1667 6.30147H11.7083V11.3456ZM13.8333 12.6544C15.6327 12.6544 17.0417 13.8097 17.0417 15.1765C17.0417 16.5433 15.6327 17.6985 13.8333 17.6985H13.2917V12.6544H13.8333Z" fill="#5F58FF" stroke="#5F58FF" stroke-width="0.25"/>
</g>
</svg>
