<svg width="24" height="24" viewBox="0 0 24 24" fill="none" xmlns="http://www.w3.org/2000/svg">
<mask id="path-1-inside-1_7578_102944" fill="white">
<path d="M15.7682 6.81862C16.0552 6.59056 16.1048 6.17109 15.8559 5.90197C14.7755 4.73382 13.397 3.87516 11.8631 3.42217C10.1165 2.90635 8.25328 2.94162 6.52742 3.52318C4.80156 4.10475 3.29699 5.20431 2.21874 6.67203C1.1405 8.13976 0.541029 9.90424 0.50203 11.725C0.463032 13.5458 0.986399 15.3344 2.00081 16.8469C3.01522 18.3595 4.47133 19.5224 6.17071 20.1774C7.87009 20.8323 9.73008 20.9473 11.4972 20.5068C13.0491 20.1199 14.463 19.321 15.5925 18.2002C15.8527 17.942 15.8211 17.5208 15.5442 17.2806C15.2672 17.0405 14.8499 17.0728 14.5863 17.3275C13.6382 18.2438 12.4629 18.8979 11.1761 19.2187C9.67386 19.5932 8.09271 19.4954 6.64809 18.9387C5.20346 18.382 3.96564 17.3933 3.1033 16.1075C2.24096 14.8217 1.79605 13.3013 1.8292 11.7535C1.86235 10.2056 2.37195 8.70566 3.28856 7.45796C4.20516 6.21026 5.48418 5.27554 6.95132 4.78116C8.41846 4.28678 10.0023 4.25679 11.4871 4.69529C12.7591 5.07092 13.9053 5.7747 14.8133 6.73073C15.0657 6.99653 15.4813 7.04667 15.7682 6.81862Z"/>
</mask>
<path d="M15.7682 6.81862C16.0552 6.59056 16.1048 6.17109 15.8559 5.90197C14.7755 4.73382 13.397 3.87516 11.8631 3.42217C10.1165 2.90635 8.25328 2.94162 6.52742 3.52318C4.80156 4.10475 3.29699 5.20431 2.21874 6.67203C1.1405 8.13976 0.541029 9.90424 0.50203 11.725C0.463032 13.5458 0.986399 15.3344 2.00081 16.8469C3.01522 18.3595 4.47133 19.5224 6.17071 20.1774C7.87009 20.8323 9.73008 20.9473 11.4972 20.5068C13.0491 20.1199 14.463 19.321 15.5925 18.2002C15.8527 17.942 15.8211 17.5208 15.5442 17.2806C15.2672 17.0405 14.8499 17.0728 14.5863 17.3275C13.6382 18.2438 12.4629 18.8979 11.1761 19.2187C9.67386 19.5932 8.09271 19.4954 6.64809 18.9387C5.20346 18.382 3.96564 17.3933 3.1033 16.1075C2.24096 14.8217 1.79605 13.3013 1.8292 11.7535C1.86235 10.2056 2.37195 8.70566 3.28856 7.45796C4.20516 6.21026 5.48418 5.27554 6.95132 4.78116C8.41846 4.28678 10.0023 4.25679 11.4871 4.69529C12.7591 5.07092 13.9053 5.7747 14.8133 6.73073C15.0657 6.99653 15.4813 7.04667 15.7682 6.81862Z" stroke="#5F58FF" stroke-width="2.69472" mask="url(#path-1-inside-1_7578_102944)"/>
<path d="M12.8323 14.4834L11.8293 14.4759L11.8641 9.85747C11.8652 9.70685 11.6863 9.62669 11.5716 9.72437L9.66996 11.3516L9.64655 14.4568L8.67913 14.4496L8.7044 11.0994C8.70591 10.8995 8.65884 10.7162 8.56318 10.5536C8.46753 10.3896 8.33743 10.2591 8.17429 10.1636C8.01258 10.068 7.8263 10.0188 7.62256 10.0173L7.58694 10.017C7.3832 10.0155 7.19619 10.062 7.03306 10.1551C6.8685 10.2481 6.73645 10.3767 6.63833 10.5392C6.54165 10.7004 6.4904 10.883 6.4889 11.0829L6.46363 14.4331L5.49622 14.4258L5.52148 11.0757C5.52411 10.728 5.60916 10.4077 5.77377 10.1189C5.93981 9.83016 6.1795 9.59827 6.48854 9.43025C6.79614 9.26221 7.17009 9.17772 7.60037 9.18093L7.61889 9.18107C8.04774 9.18427 8.42181 9.27293 8.72683 9.44694C9.03329 9.62097 9.27089 9.85642 9.43113 10.1462C9.45363 10.1858 9.47327 10.2268 9.49291 10.2677L10.5283 9.38296C10.5541 9.36063 10.587 9.3482 10.6226 9.34847L12.7284 9.36418C12.8068 9.36477 12.869 9.42717 12.8684 9.50459L12.8309 14.482L12.8323 14.4834Z" fill="#5F58FF"/>
<path d="M14.738 10.7513H17.993V8.54102C17.993 8.32503 18.2436 8.20566 18.4113 8.34172L23.2494 12.2661C23.3776 12.37 23.3757 12.5662 23.2455 12.6677L18.4075 16.4411C18.239 16.5725 17.993 16.4525 17.993 16.2388V14.1873H14.738" stroke="#5F58FF" stroke-width="1.14605"/>
</svg>
