<svg width="24" height="24" viewBox="0 0 24 24" fill="none" xmlns="http://www.w3.org/2000/svg">
<path d="M4 21.0002C5.01423 20.5081 7.05852 19.8457 9.91313 19.4455M21.0002 19.5057C16.6117 18.9007 12.8373 19.0356 9.91313 19.4455M9.91313 19.4455C9.86895 17.8932 9.88655 15.4195 10.0963 13.2786M11.145 9.29329C10.5815 7.33983 10.8861 3.61498 16.4691 4.03234C16.6725 4.04754 16.8464 4.19356 16.8817 4.39437C17.2426 6.4498 16.5577 9.85938 11.145 9.29329ZM11.145 9.29329C10.5985 9.84579 10.2765 11.4394 10.0963 13.2786M10.0963 13.2786L8.68122 12.0332M8.68122 12.0332C8.92048 10.5819 8.46272 7.86223 4.82615 8.25359C4.62566 8.27516 4.4631 8.42742 4.43762 8.62745C4.2309 10.25 4.81652 12.7774 8.68122 12.0332Z" stroke="#5F58FF" stroke-linecap="round"/>
</svg>
