<svg width="24" height="24" viewBox="0 0 24 24" fill="none" xmlns="http://www.w3.org/2000/svg">
<path d="M12 3.21951C7.07632 3.21951 3.21951 5.5671 3.21951 8.56413V15.4358C3.21951 18.4328 7.07632 20.7804 12 20.7804C16.9236 20.7804 20.7804 18.4328 20.7804 15.4358V8.56413C20.7804 5.5671 16.9236 3.21951 12 3.21951ZM20.0487 15.4358C20.0487 17.9619 16.438 20.0169 12 20.0169C7.56186 20.0169 3.95122 17.9619 3.95122 15.4358V14.1707C5.294 16.0562 8.35343 17.3446 12 17.3446C15.6465 17.3446 18.7059 16.0562 20.0487 14.1707V15.4358ZM20.0487 12C20.0487 14.5261 16.438 16.581 12 16.581C7.56186 16.581 3.95122 14.5261 3.95122 12V10.7349C5.294 12.6204 8.35343 13.9087 12 13.9087C15.6465 13.9087 18.7059 12.6204 20.0487 10.7349V12ZM12 13.1452C7.56186 13.1452 3.95122 11.0903 3.95122 8.56413C3.95122 6.03796 7.56186 3.98303 12 3.98303C16.438 3.98303 20.0487 6.03796 20.0487 8.56413C20.0487 11.0903 16.438 13.1452 12 13.1452Z" fill="#5F58FF"/>
<path fill-rule="evenodd" clip-rule="evenodd" d="M5.64923 4.58043C7.26957 3.59414 9.50593 3 11.9999 3C14.494 3 16.7303 3.59414 18.3507 4.58043C19.9687 5.56533 20.9999 6.96193 20.9999 8.56413V15.4358C20.9999 17.038 19.9687 18.4346 18.3507 19.4195C16.7303 20.4058 14.494 20.9999 11.9999 20.9999C9.50593 20.9999 7.26957 20.4058 5.64923 19.4195C4.03118 18.4346 3 17.038 3 15.4358V8.56413C3 6.96193 4.03118 5.56533 5.64923 4.58043ZM17.58 18.4829C19.0053 17.6716 19.8292 16.5854 19.8292 15.4358V14.7892C18.2836 16.4778 15.3676 17.5641 11.9999 17.5641C8.63233 17.5641 5.71626 16.4778 4.17073 14.7892V15.4358C4.17073 16.5854 4.99455 17.6716 6.41988 18.4829C7.83864 19.2904 9.81201 19.7974 11.9999 19.7974C14.1879 19.7974 16.1613 19.2904 17.58 18.4829ZM3.95122 15.4358C3.95122 17.9619 7.56186 20.0169 12 20.0169C16.438 20.0169 20.0487 17.9619 20.0487 15.4358V14.1707C19.98 14.2672 19.9067 14.3621 19.8292 14.4554C18.3912 16.1847 15.4598 17.3446 12 17.3446C8.54006 17.3446 5.6087 16.1847 4.17073 14.4554C4.09316 14.3621 4.01994 14.2672 3.95122 14.1707V15.4358ZM17.58 15.047C19.0053 14.2358 19.8292 13.1496 19.8292 11.9999V11.3534C18.2836 13.042 15.3676 14.1283 11.9999 14.1283C8.63233 14.1283 5.71626 13.042 4.17073 11.3534V11.9999C4.17073 13.1496 4.99455 14.2358 6.41988 15.047C7.83864 15.8545 9.81201 16.3615 11.9999 16.3615C14.1879 16.3615 16.1613 15.8545 17.58 15.047ZM3.95122 12C3.95122 14.5261 7.56186 16.581 12 16.581C16.438 16.581 20.0487 14.5261 20.0487 12V10.7349C19.98 10.8314 19.9067 10.9263 19.8292 11.0196C18.3912 12.7489 15.4598 13.9087 12 13.9087C8.54006 13.9087 5.6087 12.7489 4.17073 11.0196C4.09316 10.9263 4.01994 10.8314 3.95122 10.7349V12ZM6.41988 11.6112C7.83864 12.4187 9.81201 12.9257 11.9999 12.9257C14.1879 12.9257 16.1613 12.4187 17.58 11.6112C19.0053 10.8 19.8292 9.71378 19.8292 8.56413C19.8292 7.41447 19.0053 6.32828 17.58 5.51704C16.1613 4.70954 14.1879 4.20254 11.9999 4.20254C9.81201 4.20254 7.83864 4.70954 6.41988 5.51704C4.99455 6.32828 4.17073 7.41447 4.17073 8.56413C4.17073 9.71378 4.99455 10.8 6.41988 11.6112ZM3.21951 8.56413C3.21951 5.5671 7.07632 3.21951 12 3.21951C16.9236 3.21951 20.7804 5.5671 20.7804 8.56413V15.4358C20.7804 18.4328 16.9236 20.7804 12 20.7804C7.07632 20.7804 3.21951 18.4328 3.21951 15.4358V8.56413ZM3.95122 8.56413C3.95122 11.0903 7.56186 13.1452 12 13.1452C16.438 13.1452 20.0487 11.0903 20.0487 8.56413C20.0487 6.03796 16.438 3.98303 12 3.98303C7.56186 3.98303 3.95122 6.03796 3.95122 8.56413Z" fill="#5F58FF"/>
</svg>
