<svg width="24" height="24" viewBox="0 0 24 24" fill="none" xmlns="http://www.w3.org/2000/svg">
<path d="M7.88428 19.1H4.48554C4.33081 19.1 4.18207 19.0396 4.07213 18.9316C3.96213 18.8236 3.9 18.6766 3.9 18.523V9.93701C3.9 9.7834 3.96213 9.63645 4.07213 9.52839C4.18207 9.42038 4.33081 9.36001 4.48554 9.36001H7.88428L9.32311 9.36001L11.2524 7.2548L11.9244 5.27229L11.9244 5.27225C12.0347 4.9473 12.2277 4.65565 12.4848 4.42489C12.7419 4.19415 13.0546 4.03195 13.3932 3.95351C13.7317 3.87508 14.0851 3.88298 14.4197 3.97647C14.7543 4.06996 15.0592 4.24599 15.3054 4.48801L15.5005 4.67974L15.5006 4.67975C15.7435 4.91851 15.9215 5.2138 16.0176 5.53836C16.1138 5.86292 16.1251 6.20612 16.0504 6.53613M7.88428 19.1L15.9529 6.51406M7.88428 19.1L17.8834 19.1H17.8834C18.3475 19.0999 18.7979 18.9444 19.1603 18.6588C19.5227 18.3732 19.7755 17.9744 19.8765 17.5281L19.8765 17.5281L21.0398 12.3841C21.122 12.0207 21.12 11.6437 21.0341 11.2811C20.9481 10.9186 20.7805 10.5797 20.5435 10.2895C20.3066 9.9993 20.0065 9.76522 19.6655 9.6044C19.3244 9.44359 18.951 9.36009 18.5729 9.36001H18.5728H15.4119M7.88428 19.1L15.2867 9.46001H15.3893L15.4119 9.36001M16.0504 6.53613L15.9529 6.51406M16.0504 6.53613L16.0504 6.53612L15.9529 6.51406M16.0504 6.53613L15.4119 9.36001M15.9529 6.51406L15.3094 9.36001H15.4119M8.46982 17.946H17.8834C17.8834 17.946 17.8834 17.946 17.8834 17.946C18.082 17.946 18.2744 17.8794 18.429 17.7576C18.5835 17.6358 18.6908 17.4662 18.7336 17.277C18.7336 17.277 18.7336 17.277 18.7336 17.2769M8.46982 17.946L18.7336 17.2769M8.46982 17.946V10.514V17.946ZM18.7336 17.2769L19.897 12.133M18.7336 17.2769L19.897 12.133M19.897 12.133C19.897 12.133 19.897 12.133 19.897 12.133C19.9408 11.9387 19.9398 11.7373 19.8938 11.5435C19.8479 11.3496 19.7582 11.1683 19.6312 11.0128C19.5043 10.8574 19.3433 10.7317 19.1601 10.6454C18.9769 10.559 18.7762 10.5141 18.5728 10.514C18.5728 10.514 18.5728 10.514 18.5728 10.514H14.6818H14.6817C14.5944 10.514 14.5081 10.4947 14.4293 10.4575C14.3504 10.4203 14.2808 10.3661 14.2259 10.2989C14.1709 10.2316 14.1319 10.1529 14.1118 10.0686C14.0918 9.98424 14.0913 9.89656 14.1103 9.81201L14.1104 9.81193L14.9076 6.285L14.9076 6.28498C14.9393 6.14502 14.9345 5.9995 14.8937 5.86181C14.8529 5.72412 14.7773 5.59857 14.6738 5.49688L14.4787 5.30513L14.4786 5.3051C14.3738 5.20199 14.2437 5.12678 14.1006 5.08677C13.9576 5.04677 13.8065 5.04335 13.6617 5.07685C13.5169 5.11035 13.3834 5.17962 13.2738 5.2779C13.1642 5.37618 13.0822 5.50018 13.0353 5.63804L19.897 12.133ZM8.21375 9.46001L7.88428 9.46001H7.55481L8.21375 9.46001ZM5.07107 10.514H7.29875V17.946H5.07107V10.514Z" fill="#5F58FF" stroke="#5F58FF" stroke-width="0.2"/>
</svg>
