<svg width="25" height="24" viewBox="0 0 25 24" fill="none"
  xmlns="http://www.w3.org/2000/svg">
  <g id="Icons">
    <path id="Vector" d="M19.65 13.2C19.4246 13.2 19.2084 13.2896 19.049 13.449C18.8896 13.6084 18.8 13.8246 18.8 14.05V17.45C18.8 17.6754 18.7104 17.8916 18.551 18.051C18.3916 18.2104 18.1754 18.3 17.95 18.3H6.05C5.82457 18.3 5.60837 18.2104 5.44896 18.051C5.28955 17.8916 5.2 17.6754 5.2 17.45V14.05C5.2 13.8246 5.11045 13.6084 4.95104 13.449C4.79163 13.2896 4.57543 13.2 4.35 13.2C4.12457 13.2 3.90837 13.2896 3.74896 13.449C3.58955 13.6084 3.5 13.8246 3.5 14.05V17.45C3.5 18.1263 3.76866 18.7749 4.24688 19.2531C4.7251 19.7313 5.3737 20 6.05 20H17.95C18.6263 20 19.2749 19.7313 19.7531 19.2531C20.2313 18.7749 20.5 18.1263 20.5 17.45V14.05C20.5 13.8246 20.4104 13.6084 20.251 13.449C20.0916 13.2896 19.8754 13.2 19.65 13.2ZM11.3965 14.6535C11.4773 14.7309 11.5727 14.7915 11.677 14.832C11.7787 14.877 11.8888 14.9002 12 14.9002C12.1112 14.9002 12.2213 14.877 12.323 14.832C12.4273 14.7915 12.5227 14.7309 12.6035 14.6535L16.0035 11.2535C16.1636 11.0934 16.2535 10.8764 16.2535 10.65C16.2535 10.4236 16.1636 10.2066 16.0035 10.0465C15.8434 9.88644 15.6264 9.79652 15.4 9.79652C15.1736 9.79652 14.9566 9.88644 14.7965 10.0465L12.85 12.0015V3.85C12.85 3.62457 12.7604 3.40837 12.601 3.24896C12.4416 3.08955 12.2254 3 12 3C11.7746 3 11.5584 3.08955 11.399 3.24896C11.2396 3.40837 11.15 3.62457 11.15 3.85V12.0015L9.2035 10.0465C9.12425 9.96725 9.03016 9.90438 8.92661 9.86149C8.82306 9.8186 8.71208 9.79652 8.6 9.79652C8.48792 9.79652 8.37694 9.8186 8.27339 9.86149C8.16984 9.90438 8.07575 9.96725 7.9965 10.0465C7.91725 10.1258 7.85438 10.2198 7.81149 10.3234C7.7686 10.4269 7.74652 10.5379 7.74652 10.65C7.74652 10.7621 7.7686 10.8731 7.81149 10.9766C7.85438 11.0802 7.91725 11.1742 7.9965 11.2535L11.3965 14.6535Z" fill="#5F58FF"/>
  </g>
</svg>
