<svg width="24" height="24" viewBox="0 0 24 24" fill="none" xmlns="http://www.w3.org/2000/svg">
<g id="Icons">
<path id="Vector" d="M15.7292 15.3225C15.7369 15.2872 15.7444 15.2519 15.7518 15.2164C15.7165 15.2232 15.681 15.2299 15.6454 15.2365L15.7292 15.3225ZM15.7292 15.3225C15.707 15.3267 15.6848 15.3309 15.6625 15.335M20.1 12C20.1 10.4931 19.686 9.08122 18.9654 7.87222L18.9625 7.8664V7.86477L18.9566 7.85487C18.9556 7.85319 18.9546 7.85162 18.9537 7.85014L18.9482 7.841C17.531 5.48227 14.9467 3.9 12 3.9C7.86875 3.9 4.45431 7.00841 3.96325 11.0078L3.9625 11.0077V11.0187C3.92145 11.3441 3.90058 11.6718 3.9 11.9998V12C3.9 16.4652 7.53477 20.1 12 20.1C15.6494 20.1 18.7415 17.6738 19.7523 14.3494C19.7607 14.3263 19.7669 14.3027 19.7705 14.2787C19.9843 13.5543 20.1 12.7897 20.1 12ZM8.22388 15.1013C6.93804 14.8291 5.77641 14.4291 4.84264 13.9418C4.67699 13.3224 4.585 12.6705 4.585 12C4.585 11.8537 4.59058 11.7099 4.5997 11.5651C5.39281 11.9147 6.45243 12.2463 7.75932 12.5523C7.80212 12.5626 7.84589 12.5717 7.88768 12.5803L7.88858 12.5804C7.90523 12.5839 7.92157 12.5872 7.93763 12.5906C7.96913 13.4781 8.06769 14.3214 8.22388 15.1013Z" fill="#F4F4F4" stroke="#F4F4F4" stroke-width="0.2"/>
<circle id="Ellipse 1606" cx="17.5" cy="17.5" r="4.25" fill="#999999" stroke="#202020" stroke-width="1.5"/>
</g>
</svg>
