<svg xmlns="http://www.w3.org/2000/svg" width="24" height="24" viewBox="0 0 24 24" fill="none">
  <path d="M19.6723 14.2573C19.8848 13.5398 19.9998 12.7823 19.9998 11.9998C19.9998 10.5048 19.5873 9.10481 18.8698 7.90731V7.90481C18.8673 7.89981 18.8623 7.89731 18.8623 7.89231C17.4623 5.56231 14.9098 3.99981 11.9998 3.99981C7.91976 3.99981 4.54726 7.06981 4.06226 11.0198V11.0248C4.02121 11.3482 4.00033 11.6738 3.99976 11.9998C3.99976 16.4098 7.58976 19.9998 11.9998 19.9998C15.6048 19.9998 18.6598 17.6023 19.6573 14.3173C19.6648 14.2973 19.6698 14.2773 19.6723 14.2573ZM4.48476 11.9998C4.48476 11.8023 4.49476 11.6098 4.50976 11.4148C5.30726 11.7823 6.40476 12.1323 7.78226 12.4548C7.86476 12.4748 7.95226 12.4898 8.03476 12.5098C8.06476 13.4773 8.17476 14.3923 8.35226 15.2298C8.34476 15.2273 8.33476 15.2273 8.32726 15.2248C6.96726 14.9473 5.73726 14.5273 4.75726 14.0098C4.58226 13.3698 4.48476 12.6948 4.48476 11.9998ZM5.51226 8.21481C6.24226 8.46481 7.45976 8.79981 8.30976 8.98481C8.12726 9.91231 8.02726 10.9273 8.02726 11.9998V12.0123L7.89226 11.9823C6.45226 11.6473 5.33976 11.2848 4.56726 10.9023C4.70726 9.93481 5.03476 9.02731 5.51226 8.21481ZM19.4148 10.7873C18.5448 11.3348 17.3248 11.8173 16.1173 12.0923C16.0698 12.1023 16.0173 12.1098 15.9698 12.1198C15.9698 12.0798 15.9723 12.0398 15.9723 11.9998C15.9723 10.9923 15.8848 10.0348 15.7223 9.15481C15.7348 9.15231 15.7448 9.15231 15.7573 9.14981C16.6748 8.98981 17.8948 8.54731 18.5373 8.29731C18.9673 9.05481 19.2698 9.89481 19.4148 10.7873ZM15.4873 11.9998C15.4873 12.0698 15.4848 12.1373 15.4848 12.2073C14.4723 12.3823 13.3873 12.4673 12.2423 12.4648V9.41231C13.2414 9.42866 14.2403 9.3668 15.2298 9.22731C15.3948 10.0898 15.4873 11.0273 15.4873 11.9998ZM8.51226 11.9998C8.51226 10.9723 8.61476 9.98231 8.79726 9.07981C9.75976 9.25731 10.7523 9.36231 11.7573 9.39731V12.4623C10.6648 12.4323 9.55976 12.3148 8.51226 12.1123V11.9998ZM12.2423 8.92731V4.50481C13.4973 4.69981 14.5923 6.39981 15.1323 8.74981C14.2098 8.87981 13.2448 8.93981 12.2423 8.92731ZM11.7573 4.50481V8.90981C10.7898 8.87481 9.83226 8.77231 8.90226 8.60481C9.45226 6.33231 10.5298 4.69731 11.7573 4.50481ZM8.52476 12.6073C9.57226 12.8023 10.6698 12.9173 11.7573 12.9473V15.6123C10.7773 15.5848 9.81476 15.4898 8.88726 15.3273C8.68976 14.4898 8.56226 13.5698 8.52476 12.6073ZM11.7573 16.0948V19.4923C10.6123 19.3123 9.59726 17.8798 9.01976 15.8398C9.90976 15.9873 10.8248 16.0698 11.7573 16.0948ZM12.2423 19.4948V16.1073H12.3398C13.2423 16.1073 14.1148 16.0498 14.9498 15.9373C14.3698 17.9248 13.3698 19.3173 12.2423 19.4948ZM12.2423 15.6173V12.9548H12.3148C13.4223 12.9548 14.4773 12.8673 15.4698 12.7048C15.4248 13.6723 15.2923 14.5898 15.0873 15.4223C14.1848 15.5573 13.2298 15.6223 12.2423 15.6173ZM15.9598 12.6148C16.0473 12.5973 16.1373 12.5848 16.2223 12.5673C17.3973 12.3023 18.5848 11.8423 19.4823 11.3173C19.5023 11.5423 19.5148 11.7698 19.5148 12.0023C19.5148 12.7198 19.4123 13.4148 19.2223 14.0723C18.2948 14.6373 17.0673 15.0748 15.6623 15.3348L15.6223 15.3423C15.8073 14.5023 15.9248 13.5848 15.9598 12.6148ZM18.2798 7.87731C17.6373 8.12481 16.5148 8.52481 15.6748 8.67231L15.6273 8.67981C15.2273 6.87481 14.5098 5.44231 13.6073 4.65981C15.5498 5.08481 17.2173 6.26481 18.2798 7.87731ZM10.3948 4.65981C9.51976 5.41731 8.81726 6.78481 8.41226 8.51231C7.61976 8.33981 6.49976 8.03481 5.77726 7.79231C6.83976 6.22231 8.48226 5.07731 10.3948 4.65981ZM4.96976 14.6573C5.90976 15.0998 7.00226 15.4498 8.22976 15.6998C8.30976 15.7173 8.39226 15.7273 8.47226 15.7448C8.88476 17.3498 9.55976 18.6198 10.3923 19.3423C7.89726 18.7948 5.86226 17.0048 4.96976 14.6573ZM13.6048 19.3398C14.4173 18.6348 15.0823 17.4048 15.4973 15.8498C15.5798 15.8348 15.6673 15.8248 15.7498 15.8098C17.0023 15.5798 18.0848 15.2248 18.9873 14.7573C18.0773 17.0573 16.0648 18.8023 13.6048 19.3398Z" fill="#F4F4F4"/>
  <path fill-rule="evenodd" clip-rule="evenodd" d="M18.8698 7.90481V7.90731C19.5873 9.10481 19.9998 10.5048 19.9998 11.9998C19.9998 12.7823 19.8848 13.5398 19.6723 14.2573C19.6698 14.2773 19.6648 14.2973 19.6573 14.3173C18.6598 17.6023 15.6048 19.9998 11.9998 19.9998C7.58976 19.9998 3.99976 16.4098 3.99976 11.9998C4.00033 11.6738 4.02121 11.3482 4.06226 11.0248V11.0198C4.54726 7.06981 7.91976 3.99981 11.9998 3.99981C14.9098 3.99981 17.4623 5.56231 18.8623 7.89231C18.8623 7.89533 18.8641 7.89744 18.8661 7.89975C18.8661 7.89975 18.8688 7.90283 18.8698 7.90481ZM3.8623 11.0122C3.82126 11.3397 3.80039 11.6694 3.7998 11.9995C3.7998 16.5199 7.47935 20.1998 11.9998 20.1998C15.6936 20.1998 18.8231 17.7447 19.847 14.3808C19.8563 14.3548 19.8634 14.3281 19.8681 14.3006C20.0833 13.5691 20.1998 12.7971 20.1998 11.9998C20.1998 10.4821 19.7849 9.0595 19.0623 7.83965V7.83684L19.0426 7.80401C19.0413 7.80177 19.04 7.79964 19.0387 7.79761L19.0337 7.7893C17.5992 5.40184 14.9831 3.7998 11.9998 3.7998C7.8173 3.7998 4.36093 6.94662 3.8638 10.9954L3.8623 11.0076V11.0122ZM8.30896 15.0168C8.31877 15.0671 8.32883 15.1171 8.33912 15.1669C8.34008 15.1715 8.34104 15.1761 8.342 15.1807C8.34541 15.1971 8.34879 15.2135 8.35226 15.2298C8.34851 15.2286 8.34418 15.2279 8.3398 15.2273C8.33543 15.2267 8.33101 15.2261 8.32726 15.2248C8.26411 15.2119 8.20128 15.1987 8.1387 15.1852C6.85361 14.9081 5.69175 14.5033 4.75726 14.0098C4.58226 13.3698 4.48476 12.6948 4.48476 11.9998C4.48476 11.8745 4.48883 11.7513 4.4956 11.6281C4.4995 11.5571 4.50427 11.4861 4.50976 11.4148C4.57262 11.4438 4.63739 11.4726 4.70397 11.5014C5.48206 11.8373 6.51333 12.1577 7.78226 12.4548C7.82351 12.4648 7.86605 12.4736 7.90855 12.4823C7.95105 12.4911 7.99351 12.4998 8.03476 12.5098C8.06223 13.3959 8.15687 14.238 8.30896 15.0168ZM8.09655 14.9713C7.96048 14.2512 7.8728 13.4802 7.84046 12.6725C7.8067 12.6655 6.2998 12.2998 4.69156 11.7136M8.09655 14.9713C6.89451 14.7057 5.80926 14.3278 4.9278 13.8732C4.77138 13.2745 4.6848 12.6458 4.6848 11.9998C4.6848 11.9038 4.68725 11.8088 4.69156 11.7136M15.8358 15.3016C17.1684 15.0384 18.3331 14.6139 19.2223 14.0723C19.4123 13.4148 19.5148 12.7198 19.5148 12.0023C19.5148 11.8457 19.5091 11.6913 19.4993 11.5384C19.4946 11.4644 19.4888 11.3907 19.4823 11.3173C19.4198 11.3539 19.3559 11.3901 19.2907 11.426C18.4195 11.9054 17.3154 12.3208 16.2223 12.5673C16.1782 12.5764 16.1328 12.5841 16.087 12.5919C16.0446 12.5991 16.0019 12.6064 15.9598 12.6148C15.9277 13.5039 15.8263 14.3488 15.6672 15.1304C15.6598 15.1668 15.6523 15.203 15.6446 15.2391C15.6373 15.2735 15.6298 15.3082 15.6223 15.3423L15.6623 15.3348C15.7204 15.324 15.7783 15.313 15.8358 15.3016ZM15.8795 15.0889C17.1269 14.8348 18.2139 14.4383 19.0514 13.9417C19.2227 13.3241 19.3148 12.6734 19.3148 12.0023C19.3148 11.8825 19.3114 11.7638 19.3052 11.6457C18.4294 12.1162 17.342 12.5198 16.2663 12.7624L16.2626 12.7632C16.2259 12.7708 16.1887 12.7774 16.1531 12.7835C16.1161 13.5935 16.0221 14.3668 15.8795 15.0889ZM15.7856 16.0066C15.7417 16.0146 15.8265 16.0006 15.7856 16.0066C15.0873 17.7294 14.4998 19 13.9998 19C15.9091 18.3819 17.7248 16.9577 18.5876 15.1709C17.7723 15.5333 16.8356 15.8138 15.7856 16.0066ZM18.715 14.8923C17.8696 15.2936 16.8787 15.6025 15.7498 15.8098C15.7085 15.8173 15.5423 15.8036 15.4998 15.8098C15.4573 15.8161 13.646 19.3323 13.6048 19.3398M18.715 14.8923C18.8075 14.8484 18.8982 14.8034 18.9873 14.7573C18.9495 14.8527 18.9099 14.9471 18.8684 15.0406C17.9632 17.0793 16.1773 18.6414 13.9961 19.2431C13.8671 19.2788 13.7365 19.311 13.6048 19.3398M5.60428 8.45658C5.20613 9.1698 4.92542 9.95438 4.78766 10.7865C5.51394 11.1268 6.52887 11.4548 7.82893 11.762C7.8416 10.8373 7.92799 9.95616 8.07725 9.1378C7.29861 8.95985 6.29277 8.68296 5.60428 8.45658ZM8.30976 8.98481C7.45976 8.79981 6.24226 8.46481 5.51226 8.21481C5.03476 9.02731 4.70726 9.93481 4.56726 10.9023C5.3281 11.279 6.4188 11.6364 7.82734 11.9671C7.84892 11.9722 7.87053 11.9773 7.89226 11.9823L8.02726 12.0123V11.9998C8.02726 11.9356 8.02766 11.8715 8.02838 11.8077C8.03958 10.806 8.13819 9.85674 8.30976 8.98481ZM19.1948 10.6879C19.0567 9.92658 18.8006 9.20616 18.4465 8.54658C17.8149 8.78725 16.7923 9.14816 15.954 9.31632C16.09 10.1166 16.1654 10.9757 16.1719 11.8743C17.2768 11.6123 18.3801 11.178 19.1948 10.6879ZM16.1705 12.08C17.3606 11.8031 18.5575 11.3268 19.4148 10.7873C19.2698 9.89481 18.9673 9.05481 18.5373 8.29731C17.9319 8.53287 16.8138 8.93933 15.9191 9.11934C15.8643 9.13038 15.8102 9.14056 15.7573 9.14981C15.751 9.15106 15.7454 9.15168 15.7398 9.1523C15.7353 9.1528 15.7308 9.1533 15.726 9.15412L15.7223 9.15481C15.8802 10.0103 15.9674 10.9389 15.9721 11.9156C15.9722 11.9436 15.9723 11.9717 15.9723 11.9998C15.9723 12.0198 15.9717 12.0398 15.9711 12.0598C15.9704 12.0798 15.9698 12.0998 15.9698 12.1198C15.9935 12.1148 16.0186 12.1104 16.0436 12.1061C16.0686 12.1017 16.0935 12.0973 16.1173 12.0923C16.135 12.0883 16.1528 12.0842 16.1705 12.08ZM15.2871 12.0376C15.2872 12.025 15.2873 12.0124 15.2873 11.9998C15.2873 11.1095 15.2088 10.2494 15.0676 9.45118C14.1972 9.56511 13.3201 9.61968 12.4423 9.61454V12.2643C13.4424 12.2575 14.3934 12.1823 15.2871 12.0376ZM15.4848 12.2073C14.5314 12.3721 13.5138 12.4571 12.4423 12.4643C12.4083 12.4646 12.3743 12.4647 12.3403 12.4648C12.3077 12.4649 12.275 12.4649 12.2423 12.4648V9.41231C12.3089 9.4134 12.3756 9.41414 12.4423 9.41453C13.3747 9.42006 14.3063 9.3575 15.2298 9.22731C15.3948 10.0898 15.4873 11.0273 15.4873 11.9998C15.4873 12.0348 15.4867 12.0692 15.4861 12.1036C15.4854 12.1379 15.4848 12.1723 15.4848 12.2073ZM8.7124 11.9465C9.63435 12.116 10.5988 12.2197 11.5573 12.2557V9.5896C10.6764 9.55106 9.80547 9.45892 8.956 9.31139C8.80253 10.1326 8.71562 11.0235 8.7124 11.9465ZM8.79726 9.07981C8.61476 9.98231 8.51226 10.9723 8.51226 11.9998V12.1123C9.49587 12.3025 10.5302 12.4177 11.5573 12.4558C11.624 12.4583 11.6906 12.4605 11.7573 12.4623V9.39731C10.7523 9.36231 9.75976 9.25731 8.79726 9.07981ZM12.4423 8.72884V4.75812C12.9119 4.91187 13.3735 5.3102 13.7893 5.93054C14.2404 6.60351 14.6211 7.51455 14.8863 8.58107C14.1017 8.68144 13.286 8.73127 12.4423 8.72884ZM15.0858 8.55438C14.5615 6.42974 13.5783 4.87369 12.4423 4.5489C12.3761 4.52998 12.3094 4.51524 12.2423 4.50481V8.92731C13.1729 8.93891 14.0713 8.88803 14.9333 8.77668C14.9998 8.76808 15.0661 8.75913 15.1323 8.74981C15.1172 8.68415 15.1017 8.619 15.0858 8.55438ZM11.7573 4.50481C11.6901 4.51533 11.6235 4.53018 11.5573 4.5492C10.4483 4.86805 9.48268 6.36172 8.95105 8.41036C8.93437 8.47464 8.91807 8.53946 8.90226 8.60481C8.96793 8.61663 9.03379 8.62814 9.09973 8.63932C9.9032 8.77553 10.7261 8.86349 11.5573 8.9016C11.6239 8.90466 11.6905 8.90739 11.7573 8.90981V4.50481ZM11.5573 4.75852V8.70139C10.7426 8.66367 9.93616 8.5776 9.14876 8.44477C9.41766 7.41442 9.79605 6.53635 10.2407 5.88791C10.6489 5.29253 11.0996 4.90921 11.5573 4.75852ZM8.52476 12.6073C8.52743 12.6759 8.53061 12.7443 8.53419 12.8124C8.58083 13.7005 8.70383 14.5495 8.88726 15.3273C9.75158 15.4787 10.6464 15.5716 11.5573 15.6057C11.6239 15.6082 11.6905 15.6104 11.7573 15.6123V12.9473C10.7393 12.9192 9.71269 12.8167 8.72644 12.6437C8.65903 12.6319 8.59177 12.6198 8.52476 12.6073ZM8.73643 12.8485C8.78156 13.6593 8.89115 14.4358 9.05232 15.1527C9.86441 15.2889 10.7034 15.3732 11.5573 15.4056V13.141C10.6091 13.1061 9.65596 13.0076 8.73643 12.8485ZM11.5573 16.2887C10.7929 16.2616 10.0397 16.1956 9.30213 16.0865C9.57628 16.9587 9.93163 17.6959 10.3367 18.2448C10.7197 18.7638 11.1356 19.0997 11.5573 19.2385V16.2887ZM11.7573 19.4923C11.6901 19.4818 11.6235 19.4669 11.5573 19.4479C10.5345 19.1536 9.63317 17.8619 9.08231 16.0526C9.06094 15.9825 9.04005 15.9115 9.01976 15.8398C9.09229 15.8518 9.16504 15.8634 9.23791 15.8746C10.0591 16.0004 10.9008 16.0718 11.7573 16.0948V19.4923ZM12.2423 19.4948C12.3094 19.4842 12.3761 19.4694 12.4423 19.4503C13.4478 19.1608 14.3347 17.9067 14.8862 16.1474C14.9079 16.0782 14.9291 16.0081 14.9498 15.9373C14.8778 15.947 14.8055 15.9563 14.733 15.9652C13.9641 16.0593 13.1644 16.1073 12.3398 16.1073H12.2423V19.4948ZM12.4423 19.241C12.8562 19.1046 13.2644 18.7781 13.6413 18.2749C14.0412 17.741 14.3934 17.0238 14.6678 16.1744C13.9501 16.2587 13.2067 16.3034 12.4423 16.3071V19.241ZM12.4423 15.4174V13.1544C13.4235 13.1485 14.364 13.0744 15.2567 12.9407C15.2057 13.7557 15.0917 14.5308 14.9245 15.2439C14.1333 15.3555 13.3013 15.4134 12.4423 15.4174ZM15.0873 15.4223C15.2778 14.6486 15.4057 13.8016 15.459 12.9092C15.463 12.8413 15.4666 12.7732 15.4698 12.7048C15.4028 12.7158 15.3356 12.7264 15.2681 12.7367C14.3347 12.8787 13.3475 12.9548 12.3148 12.9548H12.2423V15.6173C13.2298 15.6223 14.1848 15.5573 15.0873 15.4223ZM18.2798 7.87731C18.2421 7.82011 18.2037 7.76345 18.1645 7.70736C17.1736 6.28936 15.7058 5.22829 13.9989 4.75666C13.8697 4.72096 13.7391 4.68865 13.6073 4.65981C13.7045 4.74409 13.7996 4.83591 13.8923 4.93493C14.6607 5.75522 15.2703 7.06923 15.6273 8.67981L15.6748 8.67231C16.4364 8.53856 17.4304 8.19721 18.0882 7.95019C18.1558 7.92479 18.2198 7.90039 18.2798 7.87731ZM17.9713 7.78039C17.3582 8.0092 16.4842 8.30757 15.7796 8.44904C15.4478 7.0491 14.9207 5.86394 14.25 5.04077C15.7647 5.53171 17.0671 6.50518 17.9713 7.78039ZM10.3948 4.65981C10.2629 4.6886 10.1323 4.72086 10.003 4.75647C8.32724 5.21832 6.8845 6.24537 5.89658 7.62123C5.85605 7.67768 5.81624 7.7347 5.77726 7.79231C5.84035 7.81348 5.90652 7.83513 5.9752 7.85713C6.69292 8.08706 7.68896 8.35487 8.41226 8.51231C8.77222 6.97692 9.36723 5.72592 10.1094 4.93482C10.2023 4.83583 10.2974 4.74405 10.3948 4.65981ZM9.75167 5.04042C9.10814 5.82888 8.59662 6.9498 8.26426 8.27429C7.59053 8.12011 6.74012 7.88955 6.09669 7.68593C6.99617 6.45616 8.2714 5.51895 9.75167 5.04042ZM5.23225 14.7767C6.11132 15.1632 7.11483 15.4727 8.22976 15.6998C8.26976 15.7086 8.31043 15.7154 8.35105 15.7223C8.39168 15.7292 8.43226 15.7361 8.47226 15.7448C8.83655 17.1622 9.40562 18.3184 10.107 19.0669C10.1999 19.166 10.295 19.2579 10.3923 19.3423C10.2603 19.3134 10.1297 19.2809 10.0005 19.2451C7.77989 18.6301 5.96868 17.0197 5.07851 14.9273C5.04059 14.8382 5.00429 14.7481 4.96976 14.6573C5.05596 14.6979 5.14349 14.7377 5.23225 14.7767ZM5.34909 15.0444C6.4818 16.0526 8.80624 18.1216 9.74893 18.9607C9.79142 18.9699 8.7998 18.2998 8.31111 15.9184M9.74893 18.9607C7.79569 18.3262 6.2998 16.7998 5.34909 15.0444L9.74893 18.9607Z" fill="#F4F4F4"/>
</svg>
