<svg xmlns="http://www.w3.org/2000/svg" width="24" height="24" viewBox="0 0 24 24" fill="none">
  <path d="M12 3C7.02975 3 3 7.09285 3 12.1409C3 16.4242 5.904 20.0082 9.819 21C9.777 20.8766 9.75 20.7334 9.75 20.5559V18.9936C9.38475 18.9936 8.77275 18.9936 8.619 18.9936C8.00325 18.9936 7.45575 18.7247 7.19025 18.225C6.8955 17.6697 6.8445 16.8203 6.114 16.3008C5.89725 16.1279 6.06225 15.9306 6.312 15.9573C6.77325 16.0898 7.15575 16.4113 7.51575 16.8881C7.87425 17.3657 8.043 17.4739 8.71275 17.4739C9.0375 17.4739 9.5235 17.4548 9.981 17.3817C10.227 16.7472 10.6522 16.1629 11.172 15.8872C8.175 15.5741 6.74475 14.0598 6.74475 12.0038C6.74475 11.1187 7.116 10.2625 7.74675 9.54109C7.53975 8.82505 7.2795 7.36479 7.82625 6.80872C9.17475 6.80872 9.99 7.69691 10.1858 7.93686C10.8578 7.703 11.5957 7.57046 12.3713 7.57046C13.1482 7.57046 13.8892 7.703 14.5627 7.93838C14.7562 7.69996 15.5723 6.80872 16.9237 6.80872C17.4728 7.36555 17.2095 8.83191 17.0002 9.54642C17.6272 10.2663 17.9963 11.1202 17.9963 12.0038C17.9963 14.0582 16.5682 15.5718 13.5758 15.8864C14.3993 16.3229 15 17.5493 15 18.4733V20.5559C15 20.6351 14.9827 20.6923 14.9738 20.7601C18.4808 19.5116 21 16.1294 21 12.1409C21 7.09285 16.9703 3 12 3Z" fill="#F4F4F4"/>
</svg>
