<svg viewBox="0 0 24 24" fill="none"
  xmlns="http://www.w3.org/2000/svg">
  <path d="M8.45338 20.3838L8.45345 20.3838C9.56247 20.8615 10.746 21.1 12.003 21.1C13.2607 21.1 14.4439 20.8611 15.5516 20.3828C16.6574 19.9053 17.6201 19.2566 18.4388 18.4367C19.258 17.6167 19.9064 16.653 20.3838 15.5466L20.3838 15.5466C20.8615 14.4375 21.1 13.254 21.1 11.997C21.1 10.7393 20.8611 9.55609 20.3828 8.44836C19.9053 7.34257 19.2567 6.37989 18.4367 5.56126C17.6167 4.74197 16.6531 4.09364 15.5466 3.61618L15.5466 3.61615C14.4375 3.13855 13.254 2.9 11.997 2.9C10.7393 2.9 9.55609 3.13888 8.44836 3.61719C7.34255 4.09467 6.37987 4.74336 5.56123 5.56335C4.74196 6.3833 4.09364 7.34695 3.61618 8.45338L3.61615 8.45345C3.13855 9.56247 2.9 10.746 2.9 12.003C2.9 13.2607 3.13888 14.4439 3.61719 15.5516C4.09467 16.6574 4.74336 17.6201 5.56335 18.4388C6.3833 19.258 7.34695 19.9064 8.45338 20.3838ZM17.6043 17.6043C16.0734 19.1351 14.2074 19.9 12 19.9C9.79263 19.9 7.92656 19.1351 6.39571 17.6043C4.86486 16.0734 4.1 14.2074 4.1 12C4.1 9.79263 4.86486 7.92656 6.39571 6.39571C7.92656 4.86486 9.79263 4.1 12 4.1C14.2074 4.1 16.0734 4.86486 17.6043 6.39571C19.1351 7.92656 19.9 9.79263 19.9 12C19.9 14.2074 19.1351 16.0734 17.6043 17.6043Z" fill="#F4F4F4" stroke="#F4F4F4" stroke-width="0.2"/>
  <path d="M12 11V17" stroke="#F4F4F4" stroke-width="1.5" stroke-linecap="round"/>
  <circle cx="12" cy="8" r="1" fill="#F4F4F4"/>
</svg>
