<svg xmlns="http://www.w3.org/2000/svg" viewBox="0 0 24 24">
  <path d="M15.9831 4.67963C16.1197 4.7579 16.1978 4.91443 16.1783 5.07096C16.1588 5.18836 16.1588 5.30575 16.1588 5.40359C16.1588 6.73409 17.2522 7.8298 18.5994 7.8298C18.697 7.8298 18.7946 7.8298 18.9313 7.81023L15.9831 4.67963ZM15.9831 4.67963C15.4754 4.40571 14.9287 4.17091 14.3625 4.01438M15.9831 4.67963L14.3625 4.01438M14.3625 4.01438C14.2063 3.97525 14.0306 4.03395 13.933 4.15135M14.3625 4.01438L13.933 4.15135M13.933 4.15135C13.8549 4.24918 13.7768 4.34701 13.7182 4.40571C13.2496 4.85573 12.6443 5.11009 12 5.11009C11.3557 5.11009 10.7309 4.85573 10.2818 4.40571C10.2171 4.34087 10.1658 4.27603 10.1057 4.20007C10.0933 4.18434 10.0804 4.16813 10.067 4.15135C9.96942 4.01438 9.7937 3.97525 9.6375 4.01438M13.933 4.15135L9.6375 4.01438M9.6375 4.01438C9.07128 4.19048 8.52458 4.40571 8.01694 4.67963M9.6375 4.01438L8.01694 4.67963M8.01694 4.67963C7.88026 4.7579 7.80217 4.91443 7.82169 5.07096M8.01694 4.67963L7.82169 5.07096M7.82169 5.07096C7.84122 5.20792 7.84122 5.30575 7.84122 5.40359C7.84122 6.75366 6.74783 7.8298 5.40061 7.8298C5.30299 7.8298 5.18584 7.8298 5.06869 7.81023M7.82169 5.07096L5.06869 7.81023M5.06869 7.81023C4.91249 7.79067 4.75629 7.86893 4.6782 8.0059M5.06869 7.81023L4.6782 8.0059M4.6782 8.0059C4.40485 8.51462 4.17055 9.06247 4.01435 9.62989M4.6782 8.0059L4.01435 9.62989M4.01435 9.62989C3.9753 9.78642 4.01435 9.96252 4.15103 10.0603M4.01435 9.62989L4.15103 10.0603M4.15103 10.0603C4.26817 10.1386 4.34627 10.2169 4.40484 10.2756L4.15103 10.0603ZM9.6375 19.9804C9.07128 19.8239 8.52458 19.5891 8.01694 19.3152C7.88026 19.2369 7.80217 19.0804 7.82169 18.9239C7.84122 18.8065 7.84122 18.6891 7.84122 18.5912C7.84122 17.2607 6.74783 16.165 5.40061 16.165C5.30299 16.165 5.20537 16.165 5.06869 16.1846L9.6375 19.9804ZM9.6375 19.9804C9.7937 20.0196 9.96942 19.9804 10.067 19.8435C10.1451 19.7456 10.2232 19.6478 10.2818 19.5891C10.7504 19.1391 11.3557 18.8847 12 18.8847C12.6443 18.8847 13.2691 19.1391 13.7182 19.5891C13.7829 19.654 13.8342 19.7188 13.8943 19.7948C13.9067 19.8105 13.9196 19.8267 13.933 19.8435C14.0111 19.9413 14.1282 20 14.2454 20C14.2844 20 14.3235 20 14.3625 19.9804C14.9287 19.8043 15.4754 19.5891 15.9831 19.3152M9.6375 19.9804L15.9831 19.3152M15.9831 19.3152C16.1197 19.2369 16.1978 19.0804 16.1783 18.9239M15.9831 19.3152L16.1783 18.9239M16.1783 18.9239C16.1588 18.7869 16.1588 18.6891 16.1588 18.5912C16.1588 17.2412 17.2522 16.165 18.5994 16.165C18.697 16.165 18.8142 16.165 18.9313 16.1846M16.1783 18.9239L18.9313 16.1846M18.9313 16.1846C19.0875 16.2042 19.2437 16.1259 19.3218 15.9889M18.9313 16.1846L19.3218 15.9889M19.3218 15.9889C19.5952 15.4802 19.8294 14.9323 19.9856 14.3649M19.3218 15.9889L19.9856 14.3649M19.9856 14.3649C20.0247 14.2084 19.9856 14.0323 19.849 13.9345L19.9856 14.3649ZM19.6752 13.6593L19.6703 13.6528L19.6644 13.6471C19.2164 13.2168 18.9727 12.6172 18.9727 11.9974C18.9727 11.3789 19.2156 10.7976 19.6659 10.3462C19.7262 10.2858 19.7858 10.2385 19.8613 10.1784C19.8767 10.1662 19.8927 10.1535 19.9095 10.14C20.0863 10.0117 20.1286 9.78962 20.0827 9.60569L20.0827 9.60568L20.0821 9.60335C19.9235 9.02733 19.686 8.47248 19.4099 7.95856L19.4099 7.95855L19.4087 7.95636C19.3106 7.78436 19.1153 7.68641 18.9189 7.71101L18.9189 7.71099L18.9171 7.71124C18.7879 7.72974 18.6963 7.7298 18.5994 7.7298C17.3071 7.7298 16.2588 6.67854 16.2588 5.40359C16.2588 5.30479 16.259 5.19541 16.277 5.08737L16.277 5.08738L16.2775 5.08334C16.302 4.88687 16.2045 4.6912 16.0328 4.59286L16.0328 4.59283L16.0306 4.59163C15.5177 4.31489 14.964 4.07691 14.3891 3.918L14.3892 3.91797L14.3868 3.91738C14.1938 3.86903 13.9786 3.94008 13.8561 4.08741L13.8561 4.0874L13.8548 4.08896C13.7755 4.18832 13.7018 4.28042 13.6481 4.33434C13.1973 4.76689 12.6169 5.01009 12 5.01009C11.3815 5.01009 10.7824 4.76581 10.3526 4.33507C10.2923 4.27465 10.2451 4.215 10.1852 4.13931C10.173 4.12391 10.1603 4.10784 10.1468 4.09096C10.0188 3.91376 9.79699 3.87133 9.6132 3.91738L9.61316 3.91723L9.6078 3.91889C9.03709 4.09639 8.48413 4.31391 7.96945 4.59163L7.96944 4.5916L7.96725 4.59286C7.7955 4.6912 7.69795 4.88687 7.72246 5.08334L7.72244 5.08334L7.72269 5.08507C7.74116 5.2146 7.74122 5.30646 7.74122 5.40359C7.74122 6.69758 6.69345 7.7298 5.40061 7.7298C5.30203 7.7298 5.19292 7.7296 5.08517 7.7116L5.08518 7.71152L5.08112 7.71101C4.88474 7.68641 4.6894 7.78436 4.59133 7.95636L4.5913 7.95635L4.59011 7.95856C4.31397 8.47248 4.07651 9.02733 3.91794 9.60335L3.91791 9.60334L3.91733 9.60569C3.87124 9.79043 3.91402 10.0137 4.09282 10.1417L4.09279 10.1417L4.09547 10.1435C4.20384 10.2159 4.27608 10.2881 4.33406 10.3462L4.33479 10.3469C5.25118 11.2465 5.25223 12.7285 4.33406 13.6486C4.27377 13.709 4.21425 13.7563 4.13873 13.8164C4.12336 13.8286 4.10732 13.8413 4.09048 13.8548C3.91365 13.9831 3.87144 14.2052 3.91733 14.3891L3.91717 14.3892L3.91883 14.3945C4.09594 14.9664 4.31299 15.5205 4.59011 16.0363L4.59008 16.0363L4.59133 16.0385C4.6894 16.2105 4.88474 16.3084 5.08112 16.2838L5.08112 16.2838L5.08286 16.2836C5.21207 16.2651 5.3037 16.265 5.40061 16.265C6.69292 16.265 7.74122 17.3163 7.74122 18.5912C7.74122 18.69 7.74101 18.7994 7.72305 18.9075L7.72296 18.9074L7.72246 18.9115C7.69795 19.1079 7.7955 19.3036 7.96725 19.402L7.96723 19.402L7.96945 19.4032C8.4823 19.6799 9.036 19.9179 9.61084 20.0768L9.6132 20.0774C9.79699 20.1235 10.0188 20.0811 10.1468 19.9039C10.2255 19.8053 10.2986 19.714 10.3519 19.6605C10.8027 19.2279 11.3831 18.9847 12 18.9847C12.6185 18.9847 13.2176 19.229 13.6474 19.6597C13.7077 19.7202 13.7549 19.7798 13.8148 19.8555C13.8275 19.8715 13.8408 19.8883 13.8548 19.9059C13.9504 20.0256 14.0955 20.1 14.2454 20.1L14.25 20.1C14.2853 20.1001 14.3414 20.1002 14.399 20.0738C14.9673 19.8967 15.5179 19.6798 16.0306 19.4032L16.0306 19.4032L16.0328 19.402C16.2045 19.3036 16.302 19.1079 16.2775 18.9115L16.2776 18.9115L16.2773 18.9097C16.2588 18.7802 16.2588 18.6884 16.2588 18.5912C16.2588 17.2972 17.3066 16.265 18.5994 16.265C18.698 16.265 18.8071 16.2652 18.9148 16.2832L18.9148 16.2833L18.9189 16.2838C19.1153 16.3084 19.3106 16.2105 19.4087 16.0385L19.4087 16.0385L19.4099 16.0363C19.686 15.5223 19.9235 14.9675 20.0821 14.3915L20.0827 14.3891C20.1286 14.2052 20.0863 13.9831 19.9095 13.8548C19.8824 13.8332 19.8503 13.8092 19.8214 13.7876C19.8014 13.7727 19.783 13.759 19.7689 13.748C19.7268 13.7152 19.6963 13.6875 19.6752 13.6593ZM4.98383 9.63807L4.98328 9.63752L4.91071 9.5648C5.01507 9.27431 5.13451 8.98367 5.26908 8.69288H5.38109C7.21288 8.69288 8.70268 7.2004 8.70268 5.38402V5.26998C8.97697 5.13559 9.26658 5.01614 9.57158 4.91168L9.64481 4.98507C10.2688 5.61041 11.0948 5.95361 11.9805 5.95361C12.8661 5.95361 13.6921 5.61041 14.3161 4.98507L14.3885 4.91252C14.6783 5.01706 14.9682 5.13672 15.2583 5.27152V5.38402C15.2583 7.22037 16.7485 8.69288 18.5799 8.69288H18.6934C18.8276 8.96785 18.9468 9.25819 19.0511 9.56397L18.9777 9.63752C18.3537 10.2629 18.0113 11.0905 18.0113 11.9778C18.0113 12.8652 18.3537 13.6928 18.9777 14.3182L19.0518 14.3925C18.9475 14.7144 18.828 15.0064 18.6934 15.2824H18.5799C16.7481 15.2824 15.2583 16.7748 15.2583 18.5912V18.7053C14.984 18.8397 14.6944 18.9591 14.3894 19.0636L14.3161 18.9902C13.6921 18.3648 12.8661 18.0216 11.9805 18.0216C11.0948 18.0216 10.2688 18.3648 9.64481 18.9902L9.57242 19.0627C9.28266 18.9582 8.99274 18.8385 8.70268 18.7037V18.5912C8.70268 16.7549 7.21248 15.2824 5.38109 15.2824H5.26753C5.13338 15.0074 5.01415 14.7171 4.90988 14.4113L4.98328 14.3377C6.27212 13.0462 6.27134 10.9485 4.98383 9.63807ZM12 7.24064C9.38682 7.24064 7.2531 9.3792 7.2531 11.9974C7.2531 14.6156 9.38682 16.7542 12 16.7542C14.6132 16.7542 16.7469 14.6156 16.7469 11.9974C16.7469 9.3792 14.6132 7.24064 12 7.24064ZM12 15.7715C9.92722 15.7715 8.23409 14.0751 8.23409 11.9974C8.23409 9.91972 9.92722 8.22329 12 8.22329C14.0728 8.22329 15.7659 9.91972 15.7659 11.9974C15.7659 14.0751 14.0728 15.7715 12 15.7715Z" fill="#F4F4F4" stroke="#F4F4F4" stroke-width="0.2"/>
</svg>
