<svg xmlns="http://www.w3.org/2000/svg" width="24" height="24" viewBox="0 0 24 24" fill="none">
  <path d="M12.2826 3.09856C15.1533 5.40342 19.5284 5.57485 19.5727 5.57485C19.633 5.57727 19.6921 5.5916 19.7465 5.61696C19.8008 5.64231 19.8493 5.67815 19.8888 5.72228M12.2826 3.09856L4.11133 5.71899C4.07148 5.76254 4.04121 5.81348 4.02235 5.86872C4.0035 5.92395 3.99646 5.98233 4.00166 6.04028M12.2826 3.09856C12.2032 3.03486 12.1033 3 12.0001 3C11.897 3 11.7971 3.03486 11.7177 3.09856C8.84697 5.40942 4.47362 5.57485 4.42757 5.57485L12.2826 3.09856ZM19.8888 5.72228C19.9282 5.76542 19.9583 5.81582 19.9772 5.87045C19.996 5.92509 20.0033 5.98285 19.9986 6.04028M19.8888 5.72228L19.9626 5.6548C19.9628 5.65505 19.9631 5.65531 19.9633 5.65556M19.8888 5.72228L19.9633 5.65556M19.9986 6.04028C19.9986 6.04028 19.5913 10.6209 19.4142 12.5169C19.2415 14.3846 18.9201 17.8586 12.1905 20.9589C12.1309 20.986 12.0659 21 12.0001 21C11.9343 21 11.8693 20.986 11.8098 20.9589C5.09303 17.8641 4.76432 14.397 4.58702 12.5269L4.58607 12.5169C4.41164 10.6209 4.00166 6.04028 4.00166 6.04028M19.9986 6.04028L20.0982 6.04919L20.0982 6.04935L20.0981 6.04997L20.0979 6.05247L20.097 6.06234L20.0936 6.10105L20.0804 6.24968L20.0318 6.79451C19.9908 7.25357 19.9344 7.88541 19.8724 8.57651C19.7484 9.95863 19.6023 11.578 19.5138 12.5262L19.5136 12.5277C19.4271 13.464 19.3018 14.8192 18.3457 16.3292C17.3895 17.8393 15.6093 19.494 12.2324 21.0497L12.2319 21.0499C12.1592 21.0829 12.0801 21.1 12.0001 21.1C11.9201 21.1 11.841 21.0829 11.7684 21.0499L11.7679 21.0497C8.39137 19.494 6.61232 17.8393 5.65656 16.3291C4.70442 14.8247 4.57635 13.4738 4.48764 12.5381L4.48652 12.5263L4.48649 12.526C4.39927 11.5779 4.25315 9.95866 4.12886 8.57653L3.96885 6.79455L3.92002 6.24973L3.90671 6.1011L3.90324 6.06239L3.90236 6.05252L3.90214 6.05003L3.90208 6.0494L3.90207 6.04925L4.00166 6.04028M19.9986 6.04028L20.0982 6.04914L20.0983 6.04847C20.1041 5.97718 20.0951 5.90552 20.0717 5.83782C20.0484 5.77044 20.0115 5.70849 19.9633 5.65556M4.00166 6.04028L3.90206 6.04922C3.8956 5.97728 3.90435 5.90486 3.92771 5.83641C3.95107 5.76798 3.98851 5.70508 4.03755 5.65148C4.08659 5.59789 4.14621 5.55472 4.21266 5.52444C4.2791 5.49415 4.35109 5.47733 4.42426 5.47491L4.42757 5.4748V5.47485C4.42741 5.47485 4.44443 5.47437 4.48047 5.47255C4.51508 5.47081 4.56518 5.46794 4.62934 5.46347C4.75766 5.45452 4.94209 5.43916 5.17127 5.41351C5.6297 5.36222 6.26664 5.26988 6.99129 5.10575C8.44245 4.77707 10.2366 4.16243 11.655 3.02066L11.6551 3.02055C11.7525 2.94241 11.8746 2.9 12.0001 2.9C12.1257 2.9 12.2477 2.94241 12.3452 3.02055L12.3452 3.02058C13.7636 4.15941 15.5583 4.77407 17.0097 5.10351C17.7345 5.26802 18.3715 5.36092 18.8299 5.41268C19.059 5.43856 19.2434 5.45413 19.3716 5.46323C19.4357 5.46778 19.4857 5.47071 19.5202 5.4725C19.5563 5.47436 19.5731 5.47485 19.5727 5.47485H19.5767L19.5767 5.47493C19.6502 5.47788 19.7223 5.49534 19.7888 5.52633C19.8552 5.55732 19.9146 5.60123 19.9633 5.65556M11.3728 12.6698L13.5475 10.1561C13.6403 10.0486 13.7727 9.98198 13.9152 9.96966C14.0576 9.95733 14.1998 10.0002 14.3104 10.0897C14.4211 10.1793 14.4912 10.3084 14.5042 10.4492C14.5172 10.59 14.4718 10.7295 14.3789 10.8371L14.3789 10.8372L11.7713 13.8498C11.7713 13.8499 11.7712 13.8499 11.7712 13.85C11.7201 13.9094 11.6563 13.9569 11.5846 13.9894C11.5128 14.022 11.4346 14.0388 11.3555 14.0389H11.3555H11.3475H11.3456L11.3456 14.0389C11.2648 14.0373 11.1854 14.0181 11.1131 13.9828C11.0408 13.9474 10.9773 13.8967 10.9275 13.8341L11.3728 12.6698ZM11.3728 12.6698L10.4668 11.5326C10.4241 11.4758 10.3703 11.428 10.3086 11.3919C10.2465 11.3555 10.1776 11.3317 10.1061 11.3217C10.0345 11.3117 9.96165 11.3157 9.89169 11.3335C9.82172 11.3513 9.75598 11.3826 9.6984 11.4256L9.75829 11.5057L9.6984 11.4256C9.64083 11.4687 9.59256 11.5226 9.55662 11.5845C9.52068 11.6463 9.49786 11.7147 9.48963 11.7855C9.48141 11.8563 9.48799 11.928 9.50892 11.9962C9.52969 12.0639 9.56412 12.1267 9.61003 12.181L10.9275 13.834L11.3728 12.6698ZM17.4068 15.7737C16.5713 17.0925 15.0052 18.5676 12.0001 19.9886C8.99509 18.5677 7.4292 17.0925 6.5938 15.7737C5.75563 14.4504 5.64587 13.2744 5.56775 12.4375L5.56759 12.4357C5.56758 12.4357 5.56758 12.4357 5.56758 12.4356C5.42971 10.9343 5.14098 7.76156 5.03091 6.49741C7.52914 6.2974 9.93104 5.4713 12.0001 4.09986C14.0692 5.47125 16.471 6.29735 18.9691 6.49739C18.8559 7.76216 18.5705 10.9372 18.4327 12.4357C18.355 13.2727 18.2457 14.4494 17.4068 15.7737Z" fill="#F4F4F4" stroke="#F4F4F4" stroke-width="0.2"/>
</svg>
