<svg xmlns="http://www.w3.org/2000/svg" width="24" height="24" viewBox="0 0 24 24" fill="none">
  <path d="M19.8886 5.72208C19.849 5.67796 19.8006 5.64211 19.7462 5.61676C19.6919 5.59141 19.6327 5.57708 19.5724 5.57466C19.5282 5.57466 15.153 5.40323 12.2823 3.09836C12.2029 3.03466 12.103 2.99981 11.9999 2.99981C11.8967 2.99981 11.7968 3.03466 11.7174 3.09836C8.84671 5.40923 4.47336 5.57466 4.42732 5.57466C4.36726 5.57665 4.30825 5.59045 4.25388 5.61524C4.19951 5.64002 4.15092 5.67525 4.11107 5.7188C4.07122 5.76234 4.04095 5.81329 4.02209 5.86852C4.00324 5.92376 3.9962 5.98213 4.00141 6.04009C4.00141 6.04009 4.41138 10.6207 4.58582 12.5167C4.76291 14.3844 5.0808 17.8584 11.8095 20.9587C11.8691 20.9858 11.9341 20.9998 11.9999 20.9998C12.0657 20.9998 12.1307 20.9858 12.1903 20.9587C18.9198 17.8584 19.2413 14.3844 19.4139 12.5167C19.591 10.6207 19.9984 6.04009 19.9984 6.04009C20.0031 5.98266 19.9958 5.9249 19.9769 5.87026C19.958 5.81562 19.928 5.76523 19.8886 5.72208ZM18.532 12.4447C18.3762 14.1238 18.0893 17.2336 11.9999 20.099C5.91048 17.2336 5.62448 14.1238 5.46775 12.4447C5.32607 10.9018 5.02501 7.59323 4.9223 6.40523C7.46213 6.21925 9.905 5.382 11.9999 3.97951C14.0948 5.382 16.5376 6.21925 19.0775 6.40523C18.9712 7.59323 18.6737 10.9044 18.532 12.4447Z" fill="#F4F4F4"/>
  <path fill-rule="evenodd" clip-rule="evenodd" d="M19.5724 5.57466C19.6327 5.57708 19.6919 5.59141 19.7462 5.61676C19.8006 5.64211 19.849 5.67796 19.8886 5.72208C19.928 5.76523 19.958 5.81562 19.9769 5.87026C19.9958 5.9249 20.0031 5.98266 19.9984 6.04009C19.9984 6.04009 19.591 10.6207 19.4139 12.5167C19.2413 14.3844 18.9198 17.8584 12.1903 20.9587C12.1307 20.9858 12.0657 20.9998 11.9999 20.9998C11.9341 20.9998 11.8691 20.9858 11.8095 20.9587C5.09278 17.8639 4.76406 14.3968 4.58676 12.5267L4.58582 12.5167C4.41138 10.6207 4.00141 6.04009 4.00141 6.04009C3.9962 5.98213 4.00324 5.92376 4.02209 5.86852C4.04095 5.81329 4.07122 5.76234 4.11107 5.7188C4.15092 5.67525 4.19951 5.64002 4.25388 5.61524C4.30825 5.59045 4.36726 5.57665 4.42732 5.57466C4.47336 5.57466 8.84671 5.40923 11.7174 3.09836C11.7968 3.03466 11.8967 2.99981 11.9999 2.99981C12.103 2.99981 12.2029 3.03466 12.2823 3.09836C15.153 5.40323 19.5282 5.57466 19.5724 5.57466ZM19.6131 12.5353L19.6128 12.5384C19.526 13.4772 19.3989 14.8522 18.4299 16.3825C17.4606 17.9132 15.6631 19.579 12.2739 21.1404L12.273 21.1408C12.1873 21.1797 12.0941 21.1998 11.9999 21.1998C11.9057 21.1998 11.8125 21.1797 11.7268 21.1408L11.7258 21.1404C8.33707 19.579 6.54063 17.9132 5.57181 16.3824C4.60685 14.8578 4.47693 13.4872 4.38799 12.5491L4.38671 12.5356C4.29947 11.5873 4.1533 9.96741 4.029 8.58529L3.80228 6.05875C3.79456 5.97282 3.80495 5.88557 3.83282 5.80392C3.86068 5.72228 3.90528 5.64743 3.96352 5.58378C4.02175 5.52015 4.09239 5.46904 4.17093 5.43325C4.24945 5.39746 4.33441 5.37763 4.42069 5.37476L4.42732 5.37454L4.42984 5.37454C4.44321 5.37402 4.50861 5.37143 4.62213 5.36352C4.74917 5.35466 4.93221 5.33941 5.15989 5.31394C5.61542 5.26297 6.24861 5.17117 6.96894 5.00802C8.41333 4.68087 10.1906 4.07067 11.592 2.94257C11.7074 2.85 11.8519 2.7998 11.9999 2.7998C12.1479 2.7998 12.2921 2.84977 12.4075 2.94234C13.809 4.06758 15.5869 4.67788 17.0316 5.00579C17.7521 5.16933 18.3853 5.26169 18.8408 5.31312C19.0685 5.33883 19.2514 5.35428 19.3784 5.36329C19.4899 5.37121 19.5547 5.3739 19.5693 5.37451C19.5718 5.37461 19.5724 5.37465 19.5724 5.37465H19.5805C19.6671 5.37814 19.7522 5.39888 19.8308 5.4355C19.909 5.47198 19.9792 5.5237 20.0368 5.58785C20.0941 5.65075 20.1382 5.72454 20.166 5.80498C20.1938 5.88574 20.2047 5.9713 20.1977 6.05646L20.1976 6.0578L20.1311 6.8032C20.0902 7.26228 20.0337 7.89413 19.9718 8.58525C19.8478 9.96725 19.7017 11.5868 19.6131 12.5353Z" fill="#F4F4F4"/>
  <path d="M11.6231 12.7985L13.8766 10.1937C13.952 10.1064 14.0601 10.0516 14.1772 10.0415C14.2943 10.0314 14.4107 10.0667 14.5009 10.1397C14.5911 10.2126 14.6476 10.3173 14.6581 10.4306C14.6685 10.5439 14.6321 10.6567 14.5567 10.7439L11.949 13.7568C11.9074 13.8051 11.8555 13.8439 11.7967 13.8706C11.7379 13.8972 11.6738 13.9111 11.6089 13.9111H11.601C11.5347 13.9098 11.4696 13.8941 11.4104 13.8652C11.3513 13.8362 11.2996 13.7948 11.2592 13.744L9.94072 12.0897C9.90299 12.0454 9.87485 11.9942 9.85796 11.9391C9.84107 11.8841 9.83578 11.8263 9.8424 11.7692C9.84903 11.7122 9.86743 11.657 9.89651 11.6069C9.9256 11.5569 9.96478 11.513 10.0117 11.4779C10.0587 11.4428 10.1124 11.4172 10.1698 11.4026C10.2272 11.388 10.287 11.3847 10.3457 11.3929C10.4044 11.4011 10.4608 11.4207 10.5115 11.4504C10.5623 11.4801 10.6064 11.5194 10.6411 11.566L11.6231 12.7985Z" fill="#F4F4F4"/>
  <path fill-rule="evenodd" clip-rule="evenodd" d="M11.6089 13.9111H11.601C11.5347 13.9098 11.4696 13.8941 11.4104 13.8652C11.3513 13.8362 11.2996 13.7948 11.2592 13.744L9.94072 12.0897C9.90299 12.0454 9.87485 11.9942 9.85796 11.9391C9.84107 11.8841 9.83578 11.8263 9.8424 11.7692C9.84903 11.7122 9.86743 11.657 9.89651 11.6069C9.9256 11.5569 9.96478 11.513 10.0117 11.4779C10.0587 11.4428 10.1124 11.4172 10.1698 11.4026C10.2272 11.388 10.287 11.3847 10.3457 11.3929C10.4044 11.4011 10.4608 11.4207 10.5115 11.4504C10.5623 11.4801 10.6064 11.5194 10.6411 11.566L11.6231 12.7985L13.8766 10.1937C13.952 10.1064 14.0601 10.0516 14.1772 10.0415C14.2943 10.0314 14.4107 10.0667 14.5009 10.1397C14.5911 10.2126 14.6476 10.3173 14.6581 10.4306C14.6685 10.5439 14.6321 10.6567 14.5567 10.7439L11.949 13.7568C11.9074 13.8051 11.8555 13.8439 11.7967 13.8706C11.7379 13.8972 11.6738 13.9111 11.6089 13.9111ZM11.6295 12.4855L13.7253 10.0629C13.7252 10.063 13.7253 10.0629 13.7253 10.0629C13.8354 9.93545 13.9921 9.85677 14.16 9.84225C14.3279 9.82773 14.4957 9.8782 14.6267 9.98419C14.7579 10.0904 14.8417 10.244 14.8572 10.4122C14.8728 10.5805 14.8184 10.7469 14.7081 10.8747L12.1006 13.8873C12.1005 13.8873 12.1006 13.8872 12.1006 13.8873C12.0399 13.9577 11.9641 14.0142 11.8793 14.0527C11.7945 14.0912 11.7022 14.1111 11.609 14.1111H11.597C11.5018 14.1092 11.4081 14.0866 11.3226 14.0448C11.2371 14.003 11.1619 13.9429 11.1027 13.8685M11.1027 13.8685L9.78614 12.2166C9.73208 12.1524 9.69138 12.078 9.66676 11.9978C9.64178 11.9164 9.63392 11.8308 9.64374 11.7462C9.65356 11.6616 9.68081 11.5801 9.7236 11.5064C9.76638 11.4328 9.82374 11.3688 9.89196 11.3177C9.96016 11.2668 10.0379 11.2298 10.1205 11.2088C10.203 11.1878 10.289 11.1831 10.3734 11.1949C10.4578 11.2067 10.5391 11.2348 10.6126 11.2778C10.6851 11.3203 10.7487 11.3765 10.7993 11.4435L11.6295 12.4855" fill="#F4F4F4"/>
</svg>
