<svg xmlns="http://www.w3.org/2000/svg" viewBox="0 0 24 24">
  <path d="M15.0723 4.00003C12.3437 4.00003 10.1447 6.19898 10.1447 8.92765C10.1447 9.0724 10.1675 9.26827 10.1835 9.44752L4.90913 14.7213C4.62102 15.0075 4.39238 15.3479 4.23635 15.7229C4.08032 16.0979 4 16.5 4 16.9061C4 17.3122 4.08032 17.7143 4.23635 18.0893C4.39238 18.4642 4.62102 18.8046 4.90913 19.0909C5.19537 19.379 5.53576 19.6076 5.91072 19.7636C6.28567 19.9197 6.68779 20 7.09391 20C7.50003 20 7.90215 19.9197 8.2771 19.7636C8.65206 19.6076 8.99246 19.379 9.27869 19.0909L14.5525 13.8165C14.7311 13.8325 14.9282 13.8553 15.0723 13.8553C17.801 13.8553 20 11.6563 20 8.92765C20.0032 8.13369 19.8044 7.35195 19.4222 6.65602L19.0372 5.94398L18.4601 6.52174L15.8035 9.15802L14.8414 8.1959L17.4776 5.53991L18.0566 4.96215L17.344 4.57718C16.6478 4.19574 15.8662 3.99716 15.0723 4.00003ZM15.0723 5.23194C15.3717 5.23194 15.5947 5.36129 15.8608 5.42473L13.5325 7.75303L13.089 8.19652L13.5325 8.61968L15.3803 10.4675L15.8041 10.911L16.2463 10.4675L18.5759 8.13923C18.6393 8.40532 18.7681 8.6283 18.7681 8.92765C18.7681 11.0034 17.1481 12.6234 15.0723 12.6234C14.826 12.6234 14.6289 12.6234 14.4749 12.5846L14.1484 12.4885L13.8983 12.7392L8.41205 18.2255C7.65443 18.9831 6.53339 18.9831 5.77577 18.2255L5.75606 18.2057C5.01692 17.4481 5.02308 16.3394 5.77454 15.5879L11.2608 10.1023L11.5115 9.8522L11.4142 9.52574C11.3772 9.37175 11.376 9.17465 11.376 8.92827C11.376 6.85251 12.996 5.23255 15.0717 5.23255L15.0723 5.23194Z" />
</svg>
