<svg xmlns="http://www.w3.org/2000/svg" viewBox="0 0 19 19" fill="none">
  <path d="M9.37489 5.43028H9.18985L9.72487 4.89526C9.91835 4.70179 9.91835 4.38877 9.72487 4.1953C9.5314 4.00183 9.21839 4.00183 9.02491 4.1953L7.64491 5.5753C7.45144 5.76877 7.45144 6.08179 7.64491 6.27526L9.02491 7.65526C9.12138 7.75173 9.24832 7.80028 9.37489 7.80028C9.50146 7.80028 9.6284 7.75173 9.72487 7.65526C9.91835 7.46179 9.91835 7.14877 9.72487 6.9553L9.18985 6.42028H9.37489C11.3845 6.42028 13.0199 8.0557 13.0199 10.0653C13.0199 10.3389 13.2413 10.5603 13.5149 10.5603C13.7885 10.5603 14.0099 10.3389 14.0099 10.0653C14.0099 7.50948 11.9307 5.43028 9.37489 5.43028ZM9.72487 11.0953C9.5314 10.9018 9.21839 10.9018 9.02491 11.0953C8.83144 11.2888 8.83144 11.6018 9.02491 11.7953L9.55993 12.3303H9.37489C7.36531 12.3303 5.72989 10.6949 5.72989 8.68528C5.72989 8.412 5.50818 8.19028 5.23489 8.19028C4.96161 8.19028 4.73989 8.412 4.73989 8.68528C4.73989 11.2411 6.81909 13.3203 9.37489 13.3203H9.55993L9.02491 13.8553C8.83144 14.0488 8.83144 14.3618 9.02491 14.5553C9.12138 14.6517 9.24832 14.7003 9.37489 14.7003C9.50146 14.7003 9.6284 14.6517 9.72487 14.5553L11.1049 13.1753C11.2983 12.9818 11.2983 12.6688 11.1049 12.4753L9.72487 11.0953Z" fill="#F4F4F4" stroke="#F4F4F4" stroke-width="0.3"/>
  <path d="M9.375 0.6C4.53633 0.6 0.6 4.53633 0.6 9.375C0.6 14.2137 4.53633 18.15 9.375 18.15C14.2137 18.15 18.15 14.2137 18.15 9.375C18.15 4.53633 14.2137 0.6 9.375 0.6ZM9.375 17.16C5.08255 17.16 1.59 13.6678 1.59 9.375C1.59 5.08255 5.08255 1.59 9.375 1.59C13.6678 1.59 17.16 5.08255 17.16 9.375C17.16 13.6678 13.6678 17.16 9.375 17.16Z" fill="#F4F4F4" stroke="#F4F4F4" stroke-width="0.3"/>
</svg>
