<svg xmlns="http://www.w3.org/2000/svg" viewBox="0 0 24 24" fill="none">
  <path d="M19.988 5.15167L17.9879 18.1237C17.9411 18.4279 17.7575 18.6931 17.4889 18.844C17.3375 18.929 17.1679 18.9721 16.9988 18.9721C16.868 18.9721 16.7389 18.9466 16.6148 18.8948L12.7834 17.2979L11.194 19.682C11.0721 19.8906 10.8689 20 10.6502 20C10.2908 20 10.0002 19.7094 10.0002 19.35V16.3443C10.0002 16.122 10.0743 15.9059 10.2109 15.7306L17.0004 6.99982L7.82196 15.2593L4.61529 13.9218C4.26365 13.7749 4.02534 13.4437 4.0019 13.0343C3.97847 12.6249 4.17282 12.293 4.5038 12.104L18.5043 4.13197C18.8384 3.94106 19.2506 3.95863 19.5668 4.17591C19.8831 4.39319 20.0474 4.77229 19.988 5.15167Z" fill="#F4F4F4"/>
</svg>
