<svg viewBox="0 0 24 24" fill="none"
  xmlns="http://www.w3.org/2000/svg">
  <path fill-rule="evenodd" clip-rule="evenodd" d="M17.5198 7.4002H6.47979V18.3602C6.47979 19.4648 7.37522 20.3602 8.47978 20.3602H15.5198C16.6244 20.3602 17.5198 19.4648 17.5198 18.3602V7.4002ZM5.27979 6.2002V18.3602C5.27979 20.1275 6.71247 21.5602 8.47978 21.5602H15.5198C17.2871 21.5602 18.7198 20.1275 18.7198 18.3602V6.2002H5.27979Z" fill="#F4F4F4"/>
  <path fill-rule="evenodd" clip-rule="evenodd" d="M13.5999 4.2H10.3999C10.3557 4.2 10.3199 4.23582 10.3199 4.28V6.28H13.6799V4.28C13.6799 4.23582 13.6441 4.2 13.5999 4.2ZM10.3999 3C9.69295 3 9.11987 3.57308 9.11987 4.28V7.48H14.8799V4.28C14.8799 3.57308 14.3068 3 13.5999 3H10.3999Z" fill="#F4F4F4"/>
  <path d="M4 6.8402C4 6.48673 4.28654 6.2002 4.64 6.2002H19.36C19.7135 6.2002 20 6.48673 20 6.8402C20 7.19366 19.7135 7.4802 19.36 7.4802H4.64C4.28654 7.4802 4 7.19366 4 6.8402Z" fill="#F4F4F4"/>
  <path fill-rule="evenodd" clip-rule="evenodd" d="M9.75977 10.7198C10.0911 10.7198 10.3598 10.9885 10.3598 11.3198V16.4398C10.3598 16.7712 10.0911 17.0398 9.75977 17.0398C9.42839 17.0398 9.15977 16.7712 9.15977 16.4398V11.3198C9.15977 10.9885 9.42839 10.7198 9.75977 10.7198Z" fill="#F4F4F4"/>
  <path fill-rule="evenodd" clip-rule="evenodd" d="M14.24 10.7198C14.5714 10.7198 14.84 10.9885 14.84 11.3198V16.4398C14.84 16.7712 14.5714 17.0398 14.24 17.0398C13.9086 17.0398 13.64 16.7712 13.64 16.4398V11.3198C13.64 10.9885 13.9086 10.7198 14.24 10.7198Z" fill="#F4F4F4"/>
</svg>
