<svg xmlns="http://www.w3.org/2000/svg" width="24" height="25" viewBox="0 0 24 25" fill="none">
  <g clip-path="url(#clip0_7401_12142)">
    <mask id="mask0_7401_12142" style="mask-type:luminance" maskUnits="userSpaceOnUse" x="0" y="0" width="24" height="25">
      <path d="M0 0.5H24V24.5H0V0.5Z" fill="white"/>
    </mask>
    <g mask="url(#mask0_7401_12142)">
      <path d="M2.3071 22.5C1.14373 22.5 0.630886 21.7291 1.16646 20.787L11.0248 3.46973C11.5604 2.52767 12.4383 2.52767 12.9745 3.46973L22.8328 20.787C23.3696 21.7291 22.8561 22.5 21.6921 22.5H2.3071Z" fill="#E68226"/>
      <path d="M10.5908 8.47571C10.5908 7.72551 11.1977 7.2611 12.0004 7.2611C12.7842 7.2611 13.4108 7.74337 13.4108 8.47571V15.3542C13.4108 16.0865 12.7842 16.5688 12.0004 16.5688C11.1977 16.5688 10.5908 16.1038 10.5908 15.3542V8.47571ZM10.4727 19.0159C10.4733 18.6465 10.6345 18.2924 10.9209 18.0312C11.2073 17.77 11.5955 17.6231 12.0004 17.6227C12.4054 17.6231 12.7936 17.77 13.08 18.0312C13.3664 18.2924 13.5276 18.6465 13.5282 19.0159C13.5277 19.3854 13.3666 19.7396 13.0802 20.0009C12.7938 20.2622 12.4055 20.4092 12.0004 20.4097C11.5954 20.4092 11.2071 20.2622 10.9207 20.0009C10.6343 19.7396 10.4732 19.3854 10.4727 19.0159Z" fill="#231F20"/>
    </g>
  </g>
  <defs>
    <clipPath id="clip0_7401_12142">
      <rect width="24" height="24" fill="white" transform="translate(0 0.5)"/>
    </clipPath>
  </defs>
</svg>
