<svg viewBox="0 0 32 32" fill="none"
  xmlns="http://www.w3.org/2000/svg">
  <rect x="0.4" y="0.4" width="31.2" height="31.2" rx="15.6" fill="#202020"/>
  <rect x="0.4" y="0.4" width="31.2" height="31.2" rx="15.6" stroke="#5F58FF" stroke-width="0.8"/>
  <g clip-path="url(#clip0_9620_31147)">
    <path d="M20.2655 9.90148C20.627 9.90148 20.9238 9.60814 20.9238 9.24706C20.9238 8.88598 20.627 8.59265 20.2655 8.59265H16.6572V7.12942C16.6572 6.76834 16.3603 6.47501 15.9988 6.47501C15.6373 6.47501 15.3405 6.76834 15.3405 7.12942V8.59265H14.9322C12.8053 8.59265 11.0738 10.3101 11.0738 12.4235C11.0738 14.537 12.8053 16.2544 14.9322 16.2544H15.3405V21.2985H11.7322C11.3707 21.2985 11.0738 21.5919 11.0738 21.9529C11.0738 22.314 11.3707 22.6074 11.7322 22.6074H15.3405V24.0706C15.3405 24.4317 15.6373 24.725 15.9988 24.725C16.3603 24.725 16.6572 24.4317 16.6572 24.0706V22.6074H17.0655C19.1923 22.6074 20.9238 20.8899 20.9238 18.7765C20.9238 16.663 19.1923 14.9456 17.0655 14.9456H16.6572V9.90148H20.2655ZM15.3405 14.9456H14.9322C13.5283 14.9456 12.3905 13.8148 12.3905 12.4235C12.3905 11.0323 13.5283 9.90148 14.9322 9.90148H15.3405V14.9456ZM17.0655 16.2544C18.4693 16.2544 19.6072 17.3852 19.6072 18.7765C19.6072 20.1677 18.4693 21.2985 17.0655 21.2985H16.6572V16.2544H17.0655Z" fill="#5F58FF" stroke="#5F58FF" stroke-width="0.25"/>
  </g>
  <defs>
    <clipPath id="clip0_9620_31147">
      <rect width="19.2" height="19.2" fill="white" transform="matrix(-1 0 0 -1 25.5996 25.6)"/>
    </clipPath>
  </defs>
</svg>
