<svg viewBox="0 0 44 44" fill="none"
  xmlns="http://www.w3.org/2000/svg">
  <circle cx="22" cy="22" r="21.4" fill="#202020" stroke="#5F58FF" stroke-width="1.2"/>
  <path d="M14 31.0002C15.0142 30.5081 17.0585 29.8457 19.9131 29.4455M31.0002 29.5057C26.6117 28.9007 22.8373 29.0356 19.9131 29.4455M19.9131 29.4455C19.8689 27.8932 19.8866 25.4195 20.0963 23.2786M21.145 19.2933C20.5815 17.3398 20.8861 13.615 26.4691 14.0323C26.6725 14.0475 26.8464 14.1936 26.8817 14.3944C27.2426 16.4498 26.5577 19.8594 21.145 19.2933ZM21.145 19.2933C20.5985 19.8458 20.2765 21.4394 20.0963 23.2786M20.0963 23.2786L18.6812 22.0332M18.6812 22.0332C18.9205 20.5819 18.4627 17.8622 14.8262 18.2536C14.6257 18.2752 14.4631 18.4274 14.4376 18.6275C14.2309 20.25 14.8165 22.7774 18.6812 22.0332Z" stroke="#5F58FF" stroke-linecap="round"/>
</svg>
