<svg width="44" height="44" viewBox="0 0 44 44" fill="none"
  xmlns="http://www.w3.org/2000/svg">
  <circle cx="22" cy="22" r="21.4" fill="#202020" stroke="#5F58FF" stroke-width="1.2"/>
  <path d="M27.8476 18.4651C27.9794 18.4486 28.1112 18.5146 28.1771 18.6302L27.8476 18.4651ZM27.8476 18.4651C27.7323 18.4816 27.65 18.4816 27.5676 18.4816M27.8476 18.4651L27.5676 18.4816M28.1771 25.3655C28.1112 25.4811 27.9794 25.5471 27.8476 25.5306C27.7488 25.5141 27.65 25.5141 27.5676 25.5141H27.5676C26.4309 25.5141 25.5084 26.422 25.5084 27.5611C25.5084 27.6436 25.5084 27.7262 25.5249 27.8417L28.1771 25.3655ZM28.1771 25.3655C28.4077 24.9363 28.6054 24.4741 28.7372 23.9953L28.1771 25.3655ZM27.5676 18.4816C26.4309 18.4816 25.5084 17.5571 25.5084 16.4346M27.5676 18.4816L25.5084 16.4346M25.5084 16.4346C25.5084 16.352 25.5084 16.253 25.5249 16.1539L25.5084 16.4346ZM28.4878 23.3906L28.4829 23.3841L28.477 23.3784C28.1022 23.0185 27.8982 22.5167 27.8982 21.9978C27.8982 21.4802 28.1014 20.9937 28.4785 20.6157C28.5287 20.5655 28.5781 20.5262 28.6418 20.4756C28.6547 20.4653 28.6682 20.4545 28.6824 20.4431C28.8379 20.3302 28.874 20.1356 28.8342 19.9761L28.8342 19.9761L28.8336 19.9738C28.6995 19.4865 28.4986 19.0172 28.2652 18.5828L28.2652 18.5828L28.264 18.5806C28.1781 18.43 28.0072 18.3443 27.8352 18.3659L27.8352 18.3658L27.8335 18.3661C27.7256 18.3815 27.6493 18.3816 27.5676 18.3816C26.4858 18.3816 25.6084 17.5016 25.6084 16.4346C25.6084 16.3511 25.6086 16.26 25.6236 16.1703L25.6236 16.1704L25.6241 16.1663C25.6456 15.9943 25.5603 15.8231 25.4099 15.737L25.4099 15.737L25.4077 15.7358C24.9742 15.5019 24.5059 15.3006 24.0196 15.1661L24.0196 15.1661L24.0172 15.1655C23.8486 15.1233 23.6609 15.1851 23.5536 15.3141L23.5536 15.3141L23.5523 15.3157C23.4852 15.3997 23.4237 15.4766 23.3792 15.5213C23.0017 15.8835 22.5158 16.087 21.9997 16.087C21.4819 16.087 20.9804 15.8824 20.6208 15.522C20.5706 15.4717 20.5314 15.4222 20.4809 15.3584C20.4706 15.3455 20.4599 15.3319 20.4485 15.3177C20.3358 15.1619 20.1415 15.1256 19.9821 15.1655L19.9821 15.1653L19.9767 15.167C19.4945 15.317 19.027 15.5009 18.5916 15.7358L18.5916 15.7357L18.5894 15.737C18.439 15.8231 18.3537 15.9943 18.3752 16.1663L18.3751 16.1663L18.3754 16.1681C18.3908 16.2762 18.3909 16.3527 18.3909 16.4346C18.3909 17.5176 17.514 18.3816 16.4317 18.3816C16.3484 18.3816 16.2576 18.3814 16.1681 18.3664L16.1681 18.3664L16.1641 18.3659C15.9921 18.3443 15.8212 18.43 15.7353 18.5806L15.7353 18.5806L15.7341 18.5828C15.5007 19.0172 15.2999 19.4865 15.1657 19.9738L15.1657 19.9738L15.1651 19.9761C15.1251 20.1364 15.1618 20.3321 15.3192 20.4448L15.3192 20.4449L15.3219 20.4467C15.4119 20.5068 15.472 20.5668 15.5208 20.6157L15.5215 20.6165C16.2884 21.3693 16.2894 22.6096 15.5208 23.3799C15.4706 23.4302 15.4212 23.4695 15.3575 23.5201C15.3446 23.5304 15.3311 23.5411 15.3169 23.5525C15.1614 23.6655 15.1253 23.8601 15.1651 24.0195L15.1649 24.0196L15.1666 24.0249C15.3162 24.5081 15.4997 24.9766 15.7341 25.4128L15.7341 25.4128L15.7353 25.415C15.8212 25.5656 15.9921 25.6513 16.1641 25.6298L16.1641 25.6298L16.1658 25.6296C16.2737 25.6141 16.35 25.6141 16.4317 25.6141C17.5135 25.6141 18.3909 26.4941 18.3909 27.5611C18.3909 27.6446 18.3907 27.7356 18.3757 27.8253L18.3757 27.8253L18.3752 27.8293C18.3537 28.0013 18.439 28.1725 18.5894 28.2587L18.5894 28.2587L18.5916 28.2599C19.0251 28.4938 19.4934 28.6951 19.9797 28.8295L19.9797 28.8296L19.9821 28.8302C20.1415 28.8701 20.3358 28.8338 20.4485 28.678C20.515 28.5947 20.5759 28.5188 20.6201 28.4744C20.9976 28.1122 21.4835 27.9087 21.9997 27.9087C22.5174 27.9087 23.0189 28.1132 23.3785 28.4736C23.4287 28.5239 23.4679 28.5735 23.5184 28.6373C23.5292 28.6508 23.5404 28.665 23.5523 28.68C23.6357 28.7844 23.7625 28.8497 23.8941 28.8497C23.8954 28.8497 23.8969 28.8497 23.8983 28.8497C23.9279 28.8497 23.9778 28.8498 24.0293 28.8266C24.5092 28.677 24.9744 28.4937 25.4077 28.2599L25.4077 28.2599L25.4099 28.2587C25.5603 28.1725 25.6456 28.0013 25.6241 27.8293L25.6242 27.8293L25.6239 27.8276C25.6085 27.7195 25.6084 27.6429 25.6084 27.5611C25.6084 26.4781 26.4853 25.6141 27.5676 25.6141C27.6509 25.6141 27.7417 25.6143 27.8312 25.6292L27.8311 25.6293L27.8352 25.6298C28.0072 25.6513 28.1781 25.5656 28.264 25.415L28.264 25.415L28.2652 25.4128C28.4986 24.9784 28.6995 24.5092 28.8336 24.0219L28.8336 24.0219L28.8342 24.0195C28.874 23.86 28.8379 23.6654 28.6824 23.5525C28.6597 23.5344 28.6318 23.5136 28.6072 23.4951C28.5904 23.4826 28.5751 23.4712 28.5639 23.4625C28.5287 23.435 28.5043 23.4127 28.4878 23.3906ZM16.0912 19.9963L16.0907 19.9957L16.0364 19.9414C16.1224 19.7029 16.2205 19.4642 16.3307 19.2254H16.4152C17.9693 19.2254 19.2333 17.9592 19.2333 16.4181V16.3316C19.4587 16.2216 19.6965 16.1236 19.9466 16.0375L20.0015 16.0925C20.5309 16.6231 21.2318 16.9143 21.9832 16.9143C22.7346 16.9143 23.4354 16.6231 23.9649 16.0925L24.0189 16.0383C24.2568 16.1245 24.4949 16.2227 24.733 16.3331V16.4181C24.733 17.9761 25.9974 19.2254 27.5511 19.2254H27.6372C27.747 19.4514 27.8448 19.6898 27.9307 19.9406L27.8757 19.9957C27.3463 20.5263 27.0558 21.2285 27.0558 21.9813C27.0558 22.7341 27.3463 23.4364 27.8757 23.9669L27.9315 24.0228C27.8455 24.2867 27.7474 24.5268 27.6371 24.7537H27.5511C25.997 24.7537 24.733 26.0199 24.733 27.5611V27.6475C24.5076 27.7575 24.2699 27.8556 24.0197 27.9416L23.9649 27.8866C23.4354 27.3561 22.7346 27.0649 21.9832 27.0649C21.2318 27.0649 20.5309 27.3561 20.0015 27.8866L19.9474 27.9408C19.7095 27.8547 19.4715 27.7564 19.2333 27.646V27.5611C19.2333 26.003 17.9689 24.7537 16.4152 24.7537H16.3292C16.2194 24.5277 16.1215 24.2894 16.0356 24.0386L16.0907 23.9834C17.1842 22.8876 17.1834 21.1079 16.0912 19.9963ZM21.9997 17.9689C19.7862 17.9689 17.979 19.7802 17.979 21.9978C17.979 24.2154 19.7862 26.0268 21.9997 26.0268C24.2131 26.0268 26.0203 24.2154 26.0203 21.9978C26.0203 19.7802 24.2131 17.9689 21.9997 17.9689ZM21.9997 25.1664C20.2595 25.1664 18.838 23.7422 18.838 21.9978C18.838 20.2535 20.2595 18.8292 21.9997 18.8292C23.7398 18.8292 25.1613 20.2535 25.1613 21.9978C25.1613 23.7422 23.7398 25.1664 21.9997 25.1664Z" fill="#5F58FF" stroke="#5F58FF" stroke-width="0.2"/>
  <mask id="path-3-inside-1_9631_133234" fill="white">
    <path d="M32.6864 22C32.997 22 33.2503 22.2521 33.2348 22.5623C33.1057 25.1437 32.0906 27.6086 30.3515 29.536C28.4866 31.603 25.9214 32.905 23.1521 33.1902C20.3828 33.4755 17.6061 32.7237 15.3589 31.0804C13.1117 29.437 11.5537 27.0187 10.9862 24.2932C10.4187 21.5677 10.882 18.7286 12.2864 16.3249C13.6909 13.9211 15.9368 12.1236 18.5898 11.2798C21.2428 10.436 24.1145 10.6059 26.6495 11.7567C29.0133 12.8298 30.9279 14.6847 32.0766 17C32.2146 17.2783 32.083 17.6104 31.7982 17.7344C31.5133 17.8584 31.1833 17.7272 31.0437 17.4497C30.0072 15.3893 28.2948 13.739 26.1845 12.781C23.903 11.7453 21.3185 11.5924 18.9308 12.3518C16.5431 13.1112 14.5218 14.729 13.2577 16.8924C11.9937 19.0557 11.5768 21.611 12.0875 24.0639C12.5983 26.5169 14.0005 28.6933 16.0229 30.1723C18.0454 31.6514 20.5444 32.3279 23.0368 32.0712C25.5292 31.8145 27.8379 30.6427 29.5163 28.7824C31.0689 27.0617 31.9803 24.8651 32.1083 22.5623C32.1255 22.2521 32.3757 22 32.6864 22Z"/>
  </mask>
  <path d="M32.6864 22C32.997 22 33.2503 22.2521 33.2348 22.5623C33.1057 25.1437 32.0906 27.6086 30.3515 29.536C28.4866 31.603 25.9214 32.905 23.1521 33.1902C20.3828 33.4755 17.6061 32.7237 15.3589 31.0804C13.1117 29.437 11.5537 27.0187 10.9862 24.2932C10.4187 21.5677 10.882 18.7286 12.2864 16.3249C13.6909 13.9211 15.9368 12.1236 18.5898 11.2798C21.2428 10.436 24.1145 10.6059 26.6495 11.7567C29.0133 12.8298 30.9279 14.6847 32.0766 17C32.2146 17.2783 32.083 17.6104 31.7982 17.7344C31.5133 17.8584 31.1833 17.7272 31.0437 17.4497C30.0072 15.3893 28.2948 13.739 26.1845 12.781C23.903 11.7453 21.3185 11.5924 18.9308 12.3518C16.5431 13.1112 14.5218 14.729 13.2577 16.8924C11.9937 19.0557 11.5768 21.611 12.0875 24.0639C12.5983 26.5169 14.0005 28.6933 16.0229 30.1723C18.0454 31.6514 20.5444 32.3279 23.0368 32.0712C25.5292 31.8145 27.8379 30.6427 29.5163 28.7824C31.0689 27.0617 31.9803 24.8651 32.1083 22.5623C32.1255 22.2521 32.3757 22 32.6864 22Z" stroke="#5F58FF" stroke-width="2" stroke-linejoin="round" mask="url(#path-3-inside-1_9631_133234)"/>
  <path d="M33.2498 14.6879L32.1248 18.0627L28.75 16.9378" stroke="#5F58FF" stroke-linecap="round"/>
</svg>
