<svg viewBox="0 0 32 32" fill="none"
  xmlns="http://www.w3.org/2000/svg">
  <rect x="0.4" y="0.4" width="31.2" height="31.2" rx="15.6" fill="#202020"/>
  <rect x="0.4" y="0.4" width="31.2" height="31.2" rx="15.6" stroke="#5F58FF" stroke-width="0.8"/>
  <g clip-path="url(#clip0_9461_30440)">
    <mask id="path-2-inside-1_9461_30440" fill="white">
      <path d="M19.0149 11.8547C19.2445 11.6723 19.2841 11.3367 19.085 11.1214C18.2207 10.1869 17.1179 9.49995 15.8908 9.13755C14.4935 8.72489 13.0029 8.75311 11.6222 9.21836C10.2415 9.68361 9.03788 10.5633 8.17529 11.7374C7.31269 12.9116 6.83312 14.3232 6.80192 15.7799C6.77072 17.2365 7.18941 18.6673 8.00094 19.8774C8.81247 21.0874 9.97736 22.0178 11.3369 22.5417C12.6964 23.0657 14.1844 23.1577 15.5981 22.8052C16.8395 22.4957 17.9707 21.8566 18.8743 20.96C19.0824 20.7534 19.0572 20.4164 18.8356 20.2243C18.6141 20.0322 18.2802 20.0581 18.0694 20.2619C17.3109 20.9949 16.3706 21.5181 15.3412 21.7748C14.1394 22.0744 12.8745 21.9962 11.7188 21.5508C10.5631 21.1054 9.5728 20.3145 8.88293 19.2858C8.19306 18.2572 7.83713 17.0409 7.86365 15.8026C7.89018 14.5643 8.29786 13.3643 9.03114 12.3662C9.76442 11.368 10.7876 10.6202 11.9613 10.2247C13.1351 9.82924 14.4022 9.80525 15.59 10.156C16.6076 10.4566 17.5245 11.0196 18.2509 11.7844C18.4529 11.997 18.7853 12.0372 19.0149 11.8547Z"/>
    </mask>
    <path d="M19.0149 11.8547C19.2445 11.6723 19.2841 11.3367 19.085 11.1214C18.2207 10.1869 17.1179 9.49995 15.8908 9.13755C14.4935 8.72489 13.0029 8.75311 11.6222 9.21836C10.2415 9.68361 9.03788 10.5633 8.17529 11.7374C7.31269 12.9116 6.83312 14.3232 6.80192 15.7799C6.77072 17.2365 7.18941 18.6673 8.00094 19.8774C8.81247 21.0874 9.97736 22.0178 11.3369 22.5417C12.6964 23.0657 14.1844 23.1577 15.5981 22.8052C16.8395 22.4957 17.9707 21.8566 18.8743 20.96C19.0824 20.7534 19.0572 20.4164 18.8356 20.2243C18.6141 20.0322 18.2802 20.0581 18.0694 20.2619C17.3109 20.9949 16.3706 21.5181 15.3412 21.7748C14.1394 22.0744 12.8745 21.9962 11.7188 21.5508C10.5631 21.1054 9.5728 20.3145 8.88293 19.2858C8.19306 18.2572 7.83713 17.0409 7.86365 15.8026C7.89018 14.5643 8.29786 13.3643 9.03114 12.3662C9.76442 11.368 10.7876 10.6202 11.9613 10.2247C13.1351 9.82924 14.4022 9.80525 15.59 10.156C16.6076 10.4566 17.5245 11.0196 18.2509 11.7844C18.4529 11.997 18.7853 12.0372 19.0149 11.8547Z" stroke="#5F58FF" stroke-width="2.69472" mask="url(#path-2-inside-1_9461_30440)"/>
    <path d="M16.6662 17.9865L15.8638 17.9805L15.8917 14.2858C15.8926 14.1653 15.7494 14.1012 15.6577 14.1793L14.1364 15.4811L14.1176 17.9653L13.3437 17.9595L13.3639 15.2794C13.3651 15.1195 13.3275 14.9728 13.2509 14.8427C13.1744 14.7115 13.0703 14.6071 12.9398 14.5307C12.8105 14.4543 12.6614 14.4149 12.4984 14.4136L12.4699 14.4134C12.3069 14.4122 12.1573 14.4494 12.0268 14.5239C11.8952 14.5983 11.7895 14.7012 11.7111 14.8312C11.6337 14.9601 11.5927 15.1062 11.5915 15.2661L11.5713 17.9463L10.7974 17.9405L10.8176 15.2604C10.8197 14.9822 10.8877 14.726 11.0194 14.4949C11.1522 14.2639 11.344 14.0784 11.5912 13.944C11.8373 13.8096 12.1365 13.742 12.4807 13.7446L12.4955 13.7447C12.8386 13.7472 13.1378 13.8182 13.3819 13.9574C13.627 14.0966 13.8171 14.285 13.9453 14.5168C13.9633 14.5484 13.979 14.5812 13.9947 14.614L14.823 13.9062C14.8437 13.8883 14.87 13.8784 14.8985 13.8786L16.5831 13.8912C16.6458 13.8916 16.6956 13.9416 16.6951 14.0035L16.6651 17.9854L16.6662 17.9865Z" fill="#5F58FF"/>
    <path d="M18.1904 15.0008H20.7944V13.3403C20.7944 13.1244 21.045 13.005 21.2127 13.141L24.9494 16.172C25.0776 16.276 25.0757 16.4722 24.9456 16.5737L21.2089 19.488C21.0404 19.6195 20.7944 19.4994 20.7944 19.2857V17.7497H18.1904" stroke="#5F58FF" stroke-width="1.14605"/>
  </g>
  <defs>
    <clipPath id="clip0_9461_30440">
      <rect width="19.2" height="19.2" fill="white" transform="matrix(-1 0 0 -1 25.6001 25.6)"/>
    </clipPath>
  </defs>
</svg>
