<svg viewBox="0 0 33 32" fill="none"
  xmlns="http://www.w3.org/2000/svg">
  <rect x="0.9" y="0.4" width="31.2" height="31.2" rx="15.6" fill="#202020"/>
  <rect x="0.9" y="0.4" width="31.2" height="31.2" rx="15.6" stroke="#5F58FF" stroke-width="0.8"/>
  <path fill-rule="evenodd" clip-rule="evenodd" d="M11.3161 11.0001C11.3161 10.6688 11.5848 10.4001 11.9161 10.4001H21.9001C22.2315 10.4001 22.5001 10.6688 22.5001 11.0001V20.9841C22.5001 21.3155 22.2315 21.5841 21.9001 21.5841C21.5688 21.5841 21.3001 21.3155 21.3001 20.9841V12.4487L11.9244 21.8244C11.6901 22.0587 11.3102 22.0587 11.0759 21.8244C10.8416 21.5901 10.8416 21.2102 11.0759 20.9759L20.4516 11.6001H11.9161C11.5848 11.6001 11.3161 11.3315 11.3161 11.0001Z" fill="#5F58FF"/>
</svg>
