<svg viewBox="0 0 33 32" fill="none"
  xmlns="http://www.w3.org/2000/svg">
  <rect x="0.9" y="0.4" width="31.2" height="31.2" rx="15.6" fill="#202020"/>
  <rect x="0.9" y="0.4" width="31.2" height="31.2" rx="15.6" stroke="#5F58FF" stroke-width="0.8"/>
  <path fill-rule="evenodd" clip-rule="evenodd" d="M21.4841 20.8001C21.4841 21.1315 21.2155 21.4001 20.8841 21.4001H10.9001C10.5688 21.4001 10.3001 21.1315 10.3001 20.8001V10.8161C10.3001 10.4848 10.5688 10.2161 10.9001 10.2161C11.2315 10.2161 11.5001 10.4848 11.5001 10.8161V19.3516L20.8759 9.97588C21.1102 9.74157 21.4901 9.74157 21.7244 9.97588C21.9587 10.2102 21.9587 10.5901 21.7244 10.8244L12.3487 20.2001H20.8841C21.2155 20.2001 21.4841 20.4688 21.4841 20.8001Z" fill="#5F58FF"/>
</svg>
