<svg viewBox="0 0 32 32" fill="none"
  xmlns="http://www.w3.org/2000/svg">
  <rect x="0.4" y="0.4" width="31.2" height="31.2" rx="15.6" fill="#202020"/>
  <rect x="0.4" y="0.4" width="31.2" height="31.2" rx="15.6" stroke="#5F58FF" stroke-width="0.8"/>
  <path d="M22.8001 17.2C22.5879 17.2 22.3844 17.2843 22.2344 17.4343C22.0844 17.5843 22.0001 17.7878 22.0001 18V21.2C22.0001 21.4121 21.9158 21.6156 21.7658 21.7657C21.6158 21.9157 21.4123 22 21.2001 22H10.0001C9.78792 22 9.58444 21.9157 9.43441 21.7657C9.28438 21.6156 9.2001 21.4121 9.2001 21.2V18C9.2001 17.7878 9.11581 17.5843 8.96578 17.4343C8.81575 17.2843 8.61227 17.2 8.4001 17.2C8.18792 17.2 7.98444 17.2843 7.83441 17.4343C7.68438 17.5843 7.6001 17.7878 7.6001 18V21.2C7.6001 21.8365 7.85295 22.4469 8.30304 22.897C8.75313 23.3471 9.36358 23.6 10.0001 23.6H21.2001C21.8366 23.6 22.4471 23.3471 22.8972 22.897C23.3472 22.4469 23.6001 21.8365 23.6001 21.2V18C23.6001 17.7878 23.5158 17.5843 23.3658 17.4343C23.2158 17.2843 23.0123 17.2 22.8001 17.2ZM15.0321 18.568C15.1082 18.6408 15.1979 18.6979 15.2961 18.736C15.3919 18.7783 15.4954 18.8002 15.6001 18.8002C15.7048 18.8002 15.8083 18.7783 15.9041 18.736C16.0023 18.6979 16.092 18.6408 16.1681 18.568L19.3681 15.368C19.5187 15.2173 19.6034 15.013 19.6034 14.8C19.6034 14.5869 19.5187 14.3826 19.3681 14.232C19.2175 14.0813 19.0131 13.9967 18.8001 13.9967C18.5871 13.9967 18.3827 14.0813 18.2321 14.232L16.4001 16.072V8.39998C16.4001 8.1878 16.3158 7.98432 16.1658 7.83429C16.0158 7.68426 15.8123 7.59998 15.6001 7.59998C15.3879 7.59998 15.1844 7.68426 15.0344 7.83429C14.8844 7.98432 14.8001 8.1878 14.8001 8.39998V16.072L12.9681 14.232C12.8935 14.1574 12.805 14.0982 12.7075 14.0578C12.61 14.0175 12.5056 13.9967 12.4001 13.9967C12.2946 13.9967 12.1902 14.0175 12.0927 14.0578C11.9952 14.0982 11.9067 14.1574 11.8321 14.232C11.7575 14.3066 11.6983 14.3951 11.658 14.4926C11.6176 14.59 11.5968 14.6945 11.5968 14.8C11.5968 14.9055 11.6176 15.0099 11.658 15.1074C11.6983 15.2048 11.7575 15.2934 11.8321 15.368L15.0321 18.568Z" fill="#5F58FF"/>
</svg>
