<svg width="253" height="113" viewBox="0 0 253 113" fill="none" xmlns="http://www.w3.org/2000/svg">
<g opacity="0.1">
<path d="M406.978 -92.4996C411.45 -84.3848 411.94 -74.531 408.929 -63.6129C405.917 -52.6916 399.409 -40.7389 389.938 -28.4815C370.997 -3.96791 340.266 21.6861 302.228 42.6463C264.189 63.6064 226.085 75.881 195.245 78.798C179.823 80.2566 166.242 79.3732 155.401 76.0854C144.563 72.7985 136.495 67.1203 132.023 59.0055C127.552 50.8907 127.062 41.0368 130.073 30.1187C133.085 19.1975 139.593 7.24479 149.063 -5.01268C168.004 -29.5262 198.735 -55.1803 236.774 -76.1404C274.813 -97.1005 312.916 -109.375 343.757 -112.292C359.178 -113.751 372.759 -112.867 383.6 -109.58C394.439 -106.293 402.507 -100.614 406.978 -92.4996Z" stroke="url(#paint0_linear_6034_17784)"/>
<path d="M363.984 -68.8097C367.037 -63.2701 367.378 -56.5325 365.313 -49.0446C363.247 -41.5536 358.78 -33.3451 352.269 -24.9188C339.249 -8.06759 318.116 9.57631 291.949 23.9946C265.783 38.4129 239.578 46.8527 218.377 48.8579C207.776 49.8606 198.451 49.252 191.015 46.9969C183.581 44.7427 178.068 40.8549 175.016 35.3154C171.963 29.7758 171.622 23.0382 173.687 15.5503C175.753 8.05929 180.22 -0.149215 186.731 -8.57552C199.751 -25.4267 220.884 -43.0706 247.05 -57.4889C273.217 -71.9073 299.422 -80.347 320.622 -82.3522C331.224 -83.3549 340.549 -82.7464 347.985 -80.4912C355.418 -78.237 360.932 -74.3492 363.984 -68.8097Z" stroke="url(#paint1_linear_6034_17784)"/>
<path d="M459.294 -121.326C465.492 -110.078 466.163 -96.4323 462.001 -81.3402C457.838 -66.2451 448.846 -49.7364 435.773 -32.8171C409.629 1.02005 367.219 36.421 314.734 65.3413C262.248 94.2616 209.667 111.202 167.096 115.229C145.809 117.242 127.051 116.024 112.066 111.48C97.0841 106.937 85.907 99.0797 79.709 87.8313C73.5109 76.583 72.8397 62.9372 77.0019 47.8451C81.1649 32.75 90.1562 16.2413 103.229 -0.677994C129.374 -34.5152 171.784 -69.9161 224.269 -98.8364C276.754 -127.757 329.336 -144.698 371.907 -148.724C393.193 -150.737 411.952 -149.519 426.937 -144.975C441.918 -140.432 453.096 -132.575 459.294 -121.326Z" stroke="url(#paint2_linear_6034_17784)"/>
</g>
<defs>
<linearGradient id="paint0_linear_6034_17784" x1="135.82" y1="48.1192" x2="403.736" y2="-52.2329" gradientUnits="userSpaceOnUse">
<stop stop-color="#D7D5D5"/>
<stop offset="0.491388" stop-color="#CACACA" stop-opacity="0.36"/>
<stop offset="1" stop-color="#DDDDDD"/>
</linearGradient>
<linearGradient id="paint1_linear_6034_17784" x1="177.492" y1="27.8979" x2="361.889" y2="-41.1708" gradientUnits="userSpaceOnUse">
<stop stop-color="#D7D5D5"/>
<stop offset="0.491388" stop-color="#CACACA" stop-opacity="0.36"/>
<stop offset="1" stop-color="#DDDDDD"/>
</linearGradient>
<linearGradient id="paint2_linear_6034_17784" x1="85.1121" y1="72.7241" x2="454.655" y2="-65.6941" gradientUnits="userSpaceOnUse">
<stop stop-color="#D7D5D5"/>
<stop offset="0.491388" stop-color="#CACACA" stop-opacity="0.36"/>
<stop offset="1" stop-color="#DDDDDD"/>
</linearGradient>
</defs>
</svg>
