<svg width="350" height="103" viewBox="0 0 350 103" fill="none" xmlns="http://www.w3.org/2000/svg">
<g opacity="0.1">
<path d="M406.978 -97.4991C411.45 -89.3844 411.94 -79.5305 408.929 -68.6124C405.917 -57.6911 399.409 -45.7384 389.938 -33.481C370.997 -8.96743 340.266 16.6866 302.228 37.6468C264.189 58.6069 226.085 70.8815 195.245 73.7985C179.823 75.2571 166.242 74.3737 155.401 71.0859C144.563 67.799 136.495 62.1208 132.023 54.006C127.552 45.8912 127.062 36.0373 130.073 25.1192C133.085 14.198 139.593 2.24527 149.063 -10.0122C168.004 -34.5257 198.735 -60.1798 236.774 -81.1399C274.813 -102.1 312.916 -114.375 343.757 -117.292C359.178 -118.75 372.759 -117.867 383.6 -114.579C394.439 -111.292 402.507 -105.614 406.978 -97.4991Z" stroke="url(#paint0_linear_10944_35428)"/>
<path d="M363.984 -73.8077C367.037 -68.2682 367.378 -61.5306 365.313 -54.0427C363.247 -46.5517 358.78 -38.3432 352.269 -29.9169C339.249 -13.0656 318.116 4.57826 291.949 18.9966C265.783 33.4149 239.578 41.8546 218.377 43.8598C207.776 44.8625 198.451 44.254 191.015 41.9988C183.581 39.7446 178.068 35.8568 175.016 30.3173C171.963 24.7778 171.622 18.0401 173.687 10.5522C175.753 3.06124 180.22 -5.14726 186.731 -13.5736C199.751 -30.4248 220.884 -48.0687 247.05 -62.487C273.217 -76.9053 299.422 -85.345 320.622 -87.3503C331.224 -88.353 340.549 -87.7444 347.985 -85.4892C355.418 -83.235 360.932 -79.3473 363.984 -73.8077Z" stroke="url(#paint1_linear_10944_35428)"/>
<path d="M459.294 -126.325C465.492 -115.077 466.163 -101.431 462.001 -86.3393C457.838 -71.2441 448.846 -54.7354 435.773 -37.8161C409.629 -3.97897 367.219 31.422 314.734 60.3423C262.248 89.2626 209.667 106.203 167.096 110.23C145.809 112.243 127.051 111.025 112.066 106.481C97.0841 101.938 85.907 94.0807 79.709 82.8323C73.5109 71.5839 72.8397 57.9382 77.0019 42.8461C81.1649 27.751 90.1562 11.2423 103.229 -5.67702C129.374 -39.5142 171.784 -74.9151 224.269 -103.835C276.754 -132.756 329.336 -149.697 371.907 -153.723C393.193 -155.736 411.952 -154.519 426.937 -149.974C441.918 -145.431 453.096 -137.574 459.294 -126.325Z" stroke="url(#paint2_linear_10944_35428)"/>
</g>
<defs>
<linearGradient id="paint0_linear_10944_35428" x1="135.82" y1="43.1197" x2="403.736" y2="-57.2325" gradientUnits="userSpaceOnUse">
<stop stop-color="#D7D5D5"/>
<stop offset="0.491388" stop-color="#CACACA" stop-opacity="0.36"/>
<stop offset="1" stop-color="#DDDDDD"/>
</linearGradient>
<linearGradient id="paint1_linear_10944_35428" x1="177.492" y1="22.8999" x2="361.889" y2="-46.1689" gradientUnits="userSpaceOnUse">
<stop stop-color="#D7D5D5"/>
<stop offset="0.491388" stop-color="#CACACA" stop-opacity="0.36"/>
<stop offset="1" stop-color="#DDDDDD"/>
</linearGradient>
<linearGradient id="paint2_linear_10944_35428" x1="85.1121" y1="67.7251" x2="454.655" y2="-70.6931" gradientUnits="userSpaceOnUse">
<stop stop-color="#D7D5D5"/>
<stop offset="0.491388" stop-color="#CACACA" stop-opacity="0.36"/>
<stop offset="1" stop-color="#DDDDDD"/>
</linearGradient>
</defs>
</svg>
