<svg width="16" height="18" viewBox="0 0 16 18" fill="none" xmlns="http://www.w3.org/2000/svg">
<path fill-rule="evenodd" clip-rule="evenodd" d="M12.4446 15.6711C11.129 16.5527 9.58225 17.0232 8 17.0232C5.87827 17.0232 3.84344 16.1779 2.34315 14.6733C0.842855 13.1686 0 11.1279 0 9C0 7.41315 0.469192 5.86195 1.34824 4.54254C2.22729 3.22312 3.47672 2.19477 4.93853 1.58751C6.40034 0.980252 8.00887 0.821366 9.56072 1.13094C11.1126 1.44052 12.538 2.20466 13.6569 3.32673C14.7757 4.44879 15.5376 5.87839 15.8463 7.43474C16.155 8.9911 15.9965 10.6043 15.391 12.0703C14.7855 13.5364 13.7602 14.7895 12.4446 15.6711ZM9.38214 6.62024H11.4073H11.4096C11.4274 6.61993 11.445 6.62322 11.4615 6.62991C11.478 6.63659 11.493 6.64654 11.5056 6.65917C11.5182 6.67179 11.5281 6.68682 11.5348 6.70337C11.5415 6.71992 11.5447 6.73765 11.5444 6.75549V11.6176H10.5799V7.10622C10.5795 7.07344 10.5698 7.04145 10.552 7.014C10.5341 6.98656 10.5088 6.96481 10.479 6.95131C10.4492 6.93782 10.4162 6.93315 10.3838 6.93785C10.3515 6.94256 10.3212 6.95643 10.2964 6.97785L8.47928 8.58249V11.6153H7.54214V8.34409C7.54457 8.20599 7.51951 8.06879 7.46842 7.94053C7.41733 7.81227 7.34124 7.69551 7.24461 7.5971C7.14797 7.49869 7.03274 7.42061 6.90564 7.36741C6.77854 7.31422 6.64214 7.28699 6.50442 7.28732H6.47014C6.28407 7.2854 6.10092 7.3337 5.93985 7.42715C5.78005 7.51991 5.64789 7.65385 5.55706 7.81507C5.46624 7.97629 5.42005 8.15894 5.42328 8.34409V11.6153H4.49071V8.34409C4.48487 8.01701 4.56361 7.69399 4.71928 7.40652C4.88004 7.12103 5.11767 6.88668 5.405 6.73028C5.73307 6.55504 6.10086 6.46816 6.47242 6.47812H6.49071C6.86153 6.46834 7.22854 6.55523 7.55585 6.73028C7.84347 6.88628 8.0812 7.12073 8.24157 7.40652C8.26079 7.43929 8.27678 7.47369 8.29225 7.50698C8.29518 7.51327 8.29809 7.51952 8.301 7.52572L9.29071 6.65463C9.31595 6.63231 9.34849 6.62007 9.38214 6.62024Z" fill="#5F58FF"/>
</svg>
