<svg width="46" height="46" viewBox="0 0 46 46" fill="none"
  xmlns="http://www.w3.org/2000/svg">
  <g clip-path="url(#clip0_10637_75642)">
    <path d="M45.8466 22.8083C45.8913 16.9028 43.7301 11.4796 40.1503 7.3429C35.9777 2.88252 30.0466 0.0651284 23.4795 0.0163956C10.7023 -0.0784199 0.266595 10.2792 0.169185 23.1278C0.124413 29.0334 2.2857 34.4565 5.86547 38.5932C10.038 43.0536 15.9691 45.871 22.5362 45.9197C35.3136 45.9946 45.7492 35.6569 45.8466 22.8083Z" fill="url(#paint0_radial_10637_75642)"/>
    <path d="M23.4139 5.43513C28.4423 5.47244 32.9841 7.62889 36.1806 11.0443C38.9217 14.2133 40.5762 18.3665 40.5419 22.8893C40.4673 32.7333 32.4723 40.6518 22.6855 40.5944C17.6572 40.557 13.1155 38.4006 9.91903 34.9853C7.178 31.8163 5.52349 27.663 5.55777 23.1402C5.6324 13.296 13.6277 5.36252 23.4139 5.43513Z" fill="url(#paint1_radial_10637_75642)"/>
    <path d="M23.4139 5.43513C28.4423 5.47244 32.9841 7.62889 36.1806 11.0443C38.9217 14.2133 40.5762 18.3665 40.5419 22.8893C40.4673 32.7333 32.4723 40.6518 22.6855 40.5944C17.6572 40.557 13.1155 38.4006 9.91903 34.9853C7.178 31.8163 5.52349 27.663 5.55777 23.1402C5.6324 13.296 13.6277 5.36252 23.4139 5.43513Z" fill="url(#paint2_linear_10637_75642)" fill-opacity="0.2"/>
    <path d="M23.4139 5.43513C28.4423 5.47244 32.9841 7.62889 36.1806 11.0443C38.9217 14.2133 40.5762 18.3665 40.5419 22.8893C40.4673 32.7333 32.4723 40.6518 22.6855 40.5944C17.6572 40.557 13.1155 38.4006 9.91903 34.9853C7.178 31.8163 5.52349 27.663 5.55777 23.1402C5.6324 13.296 13.6277 5.36252 23.4139 5.43513Z" fill="url(#paint3_linear_10637_75642)" fill-opacity="0.2"/>
    <path d="M23.4139 5.43513C28.4423 5.47244 32.9841 7.62889 36.1806 11.0443C38.9217 14.2133 40.5762 18.3665 40.5419 22.8893C40.4673 32.7333 32.4723 40.6518 22.6855 40.5944C17.6572 40.557 13.1155 38.4006 9.91903 34.9853C7.178 31.8163 5.52349 27.663 5.55777 23.1402C5.6324 13.296 13.6277 5.36252 23.4139 5.43513Z" stroke="url(#paint4_linear_10637_75642)" stroke-width="0.43125"/>
    <path d="M23.4139 5.43513C28.4423 5.47244 32.9841 7.62889 36.1806 11.0443C38.9217 14.2133 40.5762 18.3665 40.5419 22.8893C40.4673 32.7333 32.4723 40.6518 22.6855 40.5944C17.6572 40.557 13.1155 38.4006 9.91903 34.9853C7.178 31.8163 5.52349 27.663 5.55777 23.1402C5.6324 13.296 13.6277 5.36252 23.4139 5.43513Z" stroke="url(#paint5_linear_10637_75642)" stroke-opacity="0.2" stroke-width="0.43125"/>
    <path d="M23.4139 5.43513C28.4423 5.47244 32.9841 7.62889 36.1806 11.0443C38.9217 14.2133 40.5762 18.3665 40.5419 22.8893C40.4673 32.7333 32.4723 40.6518 22.6855 40.5944C17.6572 40.557 13.1155 38.4006 9.91903 34.9853C7.178 31.8163 5.52349 27.663 5.55777 23.1402C5.6324 13.296 13.6277 5.36252 23.4139 5.43513Z" stroke="url(#paint6_linear_10637_75642)" stroke-width="0.43125"/>
    <path d="M23.4139 5.43513C28.4423 5.47244 32.9841 7.62889 36.1806 11.0443C38.9217 14.2133 40.5762 18.3665 40.5419 22.8893C40.4673 32.7333 32.4723 40.6518 22.6855 40.5944C17.6572 40.557 13.1155 38.4006 9.91903 34.9853C7.178 31.8163 5.52349 27.663 5.55777 23.1402C5.6324 13.296 13.6277 5.36252 23.4139 5.43513Z" stroke="url(#paint7_linear_10637_75642)" stroke-width="0.43125"/>
    <path d="M43.6314 12.6848C44.8793 15.5871 45.5693 18.7847 45.5438 22.1565C45.4464 35.0052 35.0107 45.343 22.2334 45.2482C14.5552 45.1912 7.77847 41.3699 3.61615 35.5528C4.28241 36.6551 5.04832 37.6983 5.8942 38.6623C10.0668 43.1227 15.9979 45.9401 22.5651 45.9889C35.3424 46.0837 45.7781 35.7459 45.8755 22.8972C45.923 19.2462 45.116 15.7685 43.6314 12.6848Z" fill="#544EF0"/>
    <g filter="url(#filter0_f_10637_75642)">
      <path d="M31.7417 29.6463L29.4681 29.6294L29.5478 19.0583C29.5504 18.7136 29.1448 18.5301 28.8848 18.7537L24.5741 22.4785L24.5205 29.586L22.3276 29.5697L22.3854 21.9015C22.3889 21.444 22.2822 21.0244 22.0654 20.6522C21.8486 20.2768 21.5538 19.9782 21.184 19.7595C20.8174 19.5409 20.3952 19.4282 19.9334 19.4248L19.8526 19.4242C19.3908 19.4207 18.9669 19.5271 18.5971 19.7403C18.2241 19.9533 17.9247 20.2475 17.7023 20.6197C17.4831 20.9886 17.367 21.4066 17.3635 21.8641L17.3057 29.5322L15.1128 29.5158L15.1706 21.8477C15.1766 21.0519 15.3695 20.3187 15.7427 19.6577C16.1191 18.9968 16.6624 18.466 17.363 18.0813C18.0603 17.6967 18.9079 17.5032 19.8832 17.5105L19.9252 17.5108C20.8973 17.5181 21.7452 17.7209 22.4366 18.1192C23.1312 18.5175 23.6697 19.0563 24.0329 19.7196C24.0839 19.8102 24.1284 19.904 24.1729 19.9977L26.52 17.9724C26.5786 17.9213 26.6531 17.8929 26.7338 17.8935L31.5071 17.9291C31.6847 17.9304 31.8257 18.0732 31.8244 18.2504L31.7385 29.6431L31.7417 29.6463Z" fill="#544DE9"/>
    </g>
    <g filter="url(#filter1_di_10637_75642)">
      <path d="M30.9331 28.5448L28.6595 28.5278L28.7392 17.9567C28.7418 17.612 28.3362 17.4285 28.0762 17.6521L23.7655 21.3769L23.7119 28.4845L21.519 28.4681L21.5768 20.8C21.5803 20.3425 21.4737 19.9228 21.2568 19.5506C21.04 19.1753 20.7452 18.8766 20.3754 18.658C20.0089 18.4394 19.5866 18.3267 19.1248 18.3232L19.044 18.3226C18.5822 18.3192 18.1583 18.4256 17.7885 18.6387C17.4155 18.8518 17.1162 19.146 16.8937 19.5181C16.6746 19.887 16.5584 20.305 16.5549 20.7625L16.4971 28.4306L14.3042 28.4143L14.362 20.7462C14.3681 19.9503 14.5609 19.2171 14.9341 18.5562C15.3105 17.8952 15.8538 17.3644 16.5544 16.9798C17.2517 16.5951 18.0993 16.4017 19.0746 16.4089L19.1166 16.4092C20.0887 16.4165 20.9366 16.6194 21.628 17.0176C22.3226 17.4159 22.8611 17.9548 23.2243 18.618C23.2753 18.7086 23.3198 18.8024 23.3643 18.8962L25.7115 16.8709C25.77 16.8198 25.8445 16.7913 25.9252 16.7919L30.6985 16.8275C30.8761 16.8288 31.0171 16.9717 31.0158 17.1489L30.9299 28.5415L30.9331 28.5448Z" fill="#E8E7FF"/>
      <path d="M30.9331 28.5448L28.6595 28.5278L28.7392 17.9567C28.7418 17.612 28.3362 17.4285 28.0762 17.6521L23.7655 21.3769L23.7119 28.4845L21.519 28.4681L21.5768 20.8C21.5803 20.3425 21.4737 19.9228 21.2568 19.5506C21.04 19.1753 20.7452 18.8766 20.3754 18.658C20.0089 18.4394 19.5866 18.3267 19.1248 18.3232L19.044 18.3226C18.5822 18.3192 18.1583 18.4256 17.7885 18.6387C17.4155 18.8518 17.1162 19.146 16.8937 19.5181C16.6746 19.887 16.5584 20.305 16.5549 20.7625L16.4971 28.4306L14.3042 28.4143L14.362 20.7462C14.3681 19.9503 14.5609 19.2171 14.9341 18.5562C15.3105 17.8952 15.8538 17.3644 16.5544 16.9798C17.2517 16.5951 18.0993 16.4017 19.0746 16.4089L19.1166 16.4092C20.0887 16.4165 20.9366 16.6194 21.628 17.0176C22.3226 17.4159 22.8611 17.9548 23.2243 18.618C23.2753 18.7086 23.3198 18.8024 23.3643 18.8962L25.7115 16.8709C25.77 16.8198 25.8445 16.7913 25.9252 16.7919L30.6985 16.8275C30.8761 16.8288 31.0171 16.9717 31.0158 17.1489L30.9299 28.5415L30.9331 28.5448Z" fill="url(#paint8_linear_10637_75642)" fill-opacity="0.2"/>
      <path d="M30.9331 28.5448L28.6595 28.5278L28.7392 17.9567C28.7418 17.612 28.3362 17.4285 28.0762 17.6521L23.7655 21.3769L23.7119 28.4845L21.519 28.4681L21.5768 20.8C21.5803 20.3425 21.4737 19.9228 21.2568 19.5506C21.04 19.1753 20.7452 18.8766 20.3754 18.658C20.0089 18.4394 19.5866 18.3267 19.1248 18.3232L19.044 18.3226C18.5822 18.3192 18.1583 18.4256 17.7885 18.6387C17.4155 18.8518 17.1162 19.146 16.8937 19.5181C16.6746 19.887 16.5584 20.305 16.5549 20.7625L16.4971 28.4306L14.3042 28.4143L14.362 20.7462C14.3681 19.9503 14.5609 19.2171 14.9341 18.5562C15.3105 17.8952 15.8538 17.3644 16.5544 16.9798C17.2517 16.5951 18.0993 16.4017 19.0746 16.4089L19.1166 16.4092C20.0887 16.4165 20.9366 16.6194 21.628 17.0176C22.3226 17.4159 22.8611 17.9548 23.2243 18.618C23.2753 18.7086 23.3198 18.8024 23.3643 18.8962L25.7115 16.8709C25.77 16.8198 25.8445 16.7913 25.9252 16.7919L30.6985 16.8275C30.8761 16.8288 31.0171 16.9717 31.0158 17.1489L30.9299 28.5415L30.9331 28.5448Z" fill="url(#paint9_linear_10637_75642)" fill-opacity="0.2"/>
      <path d="M21.628 17.0176C20.9366 16.6194 20.0887 16.4165 19.1166 16.4092L19.0746 16.4089C18.0993 16.4017 17.2517 16.5951 16.5544 16.9798C15.8538 17.3644 15.3105 17.8952 14.9341 18.5562M21.628 17.0176L23.7173 27.7657L22.9986 27.7604M21.628 17.0176C22.1927 17.3414 22.6543 17.7582 23.0024 18.2592L21.628 17.0176ZM14.9341 18.5562C14.5609 19.2171 14.3681 19.9503 14.362 20.7462L14.3096 27.6956L15.0284 27.7009M14.9341 18.5562L15.5586 18.9118C15.5589 18.9114 15.5591 18.9111 15.5593 18.9107M14.9341 18.5562L15.56 18.9095C15.5597 18.9099 15.5595 18.9103 15.5593 18.9107M15.0284 27.7009L15.023 28.4196L15.7784 28.4253L15.7838 27.7066M15.0284 27.7009L15.7838 27.7066M15.0284 27.7009L15.0808 20.7515C15.0859 20.0733 15.2489 19.461 15.5593 18.9107M15.7838 27.7066L16.5025 27.7119L16.5549 20.7625C16.5584 20.305 16.6746 19.887 16.8937 19.5181C17.1162 19.146 17.4155 18.8518 17.7885 18.6387C18.1583 18.4256 18.5822 18.3192 19.044 18.3226L19.1248 18.3232C19.5866 18.3267 20.0089 18.4394 20.3754 18.658C20.7452 18.8766 21.04 19.1753 21.2568 19.5506M15.7838 27.7066L15.8362 20.7571C15.8406 20.1769 15.9892 19.6334 16.2758 19.151L16.2768 19.1493L16.2768 19.1493C16.5618 18.6726 16.95 18.2902 17.4308 18.0153M21.2568 19.5506C21.4737 19.9228 21.5803 20.3425 21.5768 20.8L21.5244 27.7494L22.2432 27.7547M21.2568 19.5506L21.8793 19.1911C21.879 19.1907 21.8788 19.1903 21.8786 19.1899M21.2568 19.5506L21.8779 19.1888C21.8781 19.1892 21.8783 19.1896 21.8786 19.1899M22.2432 27.7547L22.2378 28.4735L22.9932 28.4791L22.9986 27.7604M22.2432 27.7547L22.9986 27.7604M22.2432 27.7547L22.2956 20.8053C22.2999 20.2291 22.1646 19.6814 21.8786 19.1899M22.9986 27.7604L23.0467 21.3716L23.0492 21.046L23.2956 20.8331L27.1302 17.5197M27.1302 17.5197L26.0689 17.5118M27.1302 17.5197L27.9671 17.5259L27.9677 17.5259L29.381 17.5365M27.1302 17.5197L27.6063 17.1083L27.6076 17.1072C28.2118 16.5877 29.1141 16.8574 29.381 17.5365M21.8786 19.1899C21.6008 18.7095 21.2186 18.3218 20.7424 18.04M20.7424 18.04C20.257 17.7508 19.708 17.6088 19.1302 17.6045L19.0495 17.6039C18.4717 17.5996 17.9206 17.7333 17.4308 18.0153M20.7424 18.04C20.742 18.0398 20.7416 18.0395 20.7413 18.0393L20.3754 18.658L20.7436 18.0407C20.7432 18.0405 20.7428 18.0402 20.7424 18.04ZM17.4308 18.0153C17.4312 18.0151 17.4316 18.0148 17.432 18.0146L17.7885 18.6387L17.4297 18.016C17.4301 18.0157 17.4305 18.0155 17.4308 18.0153ZM15.5593 18.9107C15.8673 18.3704 16.3118 17.9329 16.9003 17.6098L16.9015 17.6091C17.4701 17.2954 18.191 17.1211 19.0692 17.1277L19.1112 17.128C19.9885 17.1345 20.7081 17.3173 21.2692 17.6404L21.2704 17.6412C21.8579 17.978 22.2984 18.4237 22.5939 18.9633L22.5938 18.9633L22.5979 18.9706C22.6347 19.0358 22.6687 19.1069 22.715 19.2044L23.1195 20.0567L23.8338 19.4403L26.0689 17.5118M26.0689 17.5118L26.181 17.415L26.181 17.415L26.1842 17.4122C26.1831 17.4131 26.1821 17.4141 26.181 17.415C26.1086 17.4768 26.0148 17.5114 25.9198 17.5106L26.0689 17.5118ZM29.381 17.5365C29.4314 17.6646 29.4591 17.8073 29.4579 17.9621L29.3836 27.8145L30.2165 27.8207L30.294 17.5433L29.381 17.5365Z" stroke="url(#paint10_linear_10637_75642)" stroke-width="1.4375"/>
    </g>
  </g>
  <defs>
    <filter id="filter0_f_10637_75642" x="0.737793" y="3.13525" width="45.4617" height="40.8862" filterUnits="userSpaceOnUse" color-interpolation-filters="sRGB">
      <feFlood flood-opacity="0" result="BackgroundImageFix"/>
      <feBlend mode="normal" in="SourceGraphic" in2="BackgroundImageFix" result="shape"/>
      <feGaussianBlur stdDeviation="7.1875" result="effect1_foregroundBlur_10637_75642"/>
    </filter>
    <filter id="filter1_di_10637_75642" x="12.8667" y="14.9712" width="22.4617" height="17.8862" filterUnits="userSpaceOnUse" color-interpolation-filters="sRGB">
      <feFlood flood-opacity="0" result="BackgroundImageFix"/>
      <feColorMatrix in="SourceAlpha" type="matrix" values="0 0 0 0 0 0 0 0 0 0 0 0 0 0 0 0 0 0 127 0" result="hardAlpha"/>
      <feOffset dx="1.4375" dy="1.4375"/>
      <feGaussianBlur stdDeviation="1.4375"/>
      <feComposite in2="hardAlpha" operator="out"/>
      <feColorMatrix type="matrix" values="0 0 0 0 0.0235294 0 0 0 0 0.00392157 0 0 0 0 0.486275 0 0 0 0.3 0"/>
      <feBlend mode="normal" in2="BackgroundImageFix" result="effect1_dropShadow_10637_75642"/>
      <feBlend mode="normal" in="SourceGraphic" in2="effect1_dropShadow_10637_75642" result="shape"/>
      <feColorMatrix in="SourceAlpha" type="matrix" values="0 0 0 0 0 0 0 0 0 0 0 0 0 0 0 0 0 0 127 0" result="hardAlpha"/>
      <feOffset dy="1.4375"/>
      <feComposite in2="hardAlpha" operator="arithmetic" k2="-1" k3="1"/>
      <feColorMatrix type="matrix" values="0 0 0 0 1 0 0 0 0 1 0 0 0 0 1 0 0 0 0.3 0"/>
      <feBlend mode="normal" in2="shape" result="effect2_innerShadow_10637_75642"/>
    </filter>
    <radialGradient id="paint0_radial_10637_75642" cx="0" cy="0" r="1" gradientUnits="userSpaceOnUse" gradientTransform="translate(7.14981 -0.104786) rotate(64.0046) scale(58.0909 57.865)">
      <stop stop-color="#807AFF"/>
      <stop offset="0.435789" stop-color="#6E67FF"/>
      <stop offset="0.963542" stop-color="#4D47EB"/>
    </radialGradient>
    <radialGradient id="paint1_radial_10637_75642" cx="0" cy="0" r="1" gradientUnits="userSpaceOnUse" gradientTransform="translate(35.1472 40.9025) rotate(-111.058) scale(45.3147 45.103)">
      <stop offset="0.0625" stop-color="#635CFC"/>
      <stop offset="1" stop-color="#6862FD"/>
    </radialGradient>
    <linearGradient id="paint2_linear_10637_75642" x1="11.1758" y1="7.59303" x2="38.6248" y2="20.8146" gradientUnits="userSpaceOnUse">
      <stop stop-color="#3B34D0"/>
      <stop offset="1" stop-color="#5952F3" stop-opacity="0"/>
    </linearGradient>
    <linearGradient id="paint3_linear_10637_75642" x1="20.9179" y1="50.9281" x2="25.5167" y2="24.9578" gradientUnits="userSpaceOnUse">
      <stop stop-color="#150F96"/>
      <stop offset="1" stop-color="#342EC8" stop-opacity="0"/>
    </linearGradient>
    <linearGradient id="paint4_linear_10637_75642" x1="13.2869" y1="52.2406" x2="23.0371" y2="34.288" gradientUnits="userSpaceOnUse">
      <stop stop-color="#EAE8FF"/>
      <stop offset="1" stop-color="#514AF1"/>
    </linearGradient>
    <linearGradient id="paint5_linear_10637_75642" x1="28.91" y1="1.9745" x2="22.9609" y2="24.6414" gradientUnits="userSpaceOnUse">
      <stop stop-color="#BAB8FF"/>
      <stop offset="1" stop-color="#514AF2"/>
    </linearGradient>
    <linearGradient id="paint6_linear_10637_75642" x1="-2.17688" y1="9.68448" x2="14.4011" y2="24.221" gradientUnits="userSpaceOnUse">
      <stop stop-color="#524BF5"/>
      <stop offset="1" stop-color="#150F96" stop-opacity="0"/>
    </linearGradient>
    <linearGradient id="paint7_linear_10637_75642" x1="43.9902" y1="5.37218" x2="17.6501" y2="21.4626" gradientUnits="userSpaceOnUse">
      <stop stop-color="#EAE8FF"/>
      <stop offset="1" stop-color="#514AF3" stop-opacity="0"/>
    </linearGradient>
    <linearGradient id="paint8_linear_10637_75642" x1="15.758" y1="16.3842" x2="37.2145" y2="41.0934" gradientUnits="userSpaceOnUse">
      <stop stop-color="#938FF7"/>
      <stop offset="1" stop-color="#5F58FF" stop-opacity="0"/>
    </linearGradient>
    <linearGradient id="paint9_linear_10637_75642" x1="30.8546" y1="38.9488" x2="21.3591" y2="25.5011" gradientUnits="userSpaceOnUse">
      <stop stop-color="#150F96"/>
      <stop offset="1" stop-color="#6059FF" stop-opacity="0"/>
    </linearGradient>
    <linearGradient id="paint10_linear_10637_75642" x1="16.4396" y1="16.3893" x2="19.4294" y2="19.1367" gradientUnits="userSpaceOnUse">
      <stop stop-color="white"/>
      <stop offset="1" stop-color="#D3D1FD" stop-opacity="0"/>
    </linearGradient>
    <clipPath id="clip0_10637_75642">
      <rect width="46" height="46" fill="white"/>
    </clipPath>
  </defs>
</svg>
