<svg width="55" height="52" viewBox="0 0 55 52" fill="none"
  xmlns="http://www.w3.org/2000/svg">
  <path d="M26.4027 0.537142C32.8866 0.585258 38.7428 3.33539 42.8637 7.6894C46.3978 11.7288 48.5311 17.0225 48.4873 22.7866C48.3922 35.3305 38.0888 45.4245 25.4692 45.3503C18.9854 45.3021 13.1294 42.552 9.00847 38.198C5.47439 34.1586 3.34119 28.865 3.38489 23.1009C3.48 10.5567 13.7839 0.4435 26.4027 0.537142Z" fill="url(#paint0_radial_3186_48302)" stroke="url(#paint1_linear_3186_48302)" stroke-width="0.43125"/>
  <path d="M26.3394 5.6652C31.3526 5.7024 35.8804 7.82854 39.0668 11.1948C41.7991 14.3181 43.4482 18.4108 43.4144 22.8672C43.3408 32.5659 35.3743 40.371 25.6163 40.3136C20.6032 40.2763 16.0755 38.1502 12.8892 34.784C10.1569 31.6607 8.50787 27.568 8.54166 23.1116C8.61519 13.4126 16.5821 5.59279 26.3394 5.6652Z" fill="url(#paint2_radial_3186_48302)"/>
  <path d="M26.3394 5.6652C31.3526 5.7024 35.8804 7.82854 39.0668 11.1948C41.7991 14.3181 43.4482 18.4108 43.4144 22.8672C43.3408 32.5659 35.3743 40.371 25.6163 40.3136C20.6032 40.2763 16.0755 38.1502 12.8892 34.784C10.1569 31.6607 8.50787 27.568 8.54166 23.1116C8.61519 13.4126 16.5821 5.59279 26.3394 5.6652Z" fill="url(#paint3_linear_3186_48302)" fill-opacity="0.2"/>
  <path d="M26.3394 5.6652C31.3526 5.7024 35.8804 7.82854 39.0668 11.1948C41.7991 14.3181 43.4482 18.4108 43.4144 22.8672C43.3408 32.5659 35.3743 40.371 25.6163 40.3136C20.6032 40.2763 16.0755 38.1502 12.8892 34.784C10.1569 31.6607 8.50787 27.568 8.54166 23.1116C8.61519 13.4126 16.5821 5.59279 26.3394 5.6652Z" fill="url(#paint4_linear_3186_48302)" fill-opacity="0.2"/>
  <path d="M26.3394 5.6652C31.3526 5.7024 35.8804 7.82854 39.0668 11.1948C41.7991 14.3181 43.4482 18.4108 43.4144 22.8672C43.3408 32.5659 35.3743 40.371 25.6163 40.3136C20.6032 40.2763 16.0755 38.1502 12.8892 34.784C10.1569 31.6607 8.50787 27.568 8.54166 23.1116C8.61519 13.4126 16.5821 5.59279 26.3394 5.6652Z" stroke="url(#paint5_linear_3186_48302)" stroke-width="0.43125"/>
  <path d="M26.3394 5.6652C31.3526 5.7024 35.8804 7.82854 39.0668 11.1948C41.7991 14.3181 43.4482 18.4108 43.4144 22.8672C43.3408 32.5659 35.3743 40.371 25.6163 40.3136C20.6032 40.2763 16.0755 38.1502 12.8892 34.784C10.1569 31.6607 8.50787 27.568 8.54166 23.1116C8.61519 13.4126 16.5821 5.59279 26.3394 5.6652Z" stroke="url(#paint6_linear_3186_48302)" stroke-opacity="0.2" stroke-width="0.43125"/>
  <path d="M26.3394 5.6652C31.3526 5.7024 35.8804 7.82854 39.0668 11.1948C41.7991 14.3181 43.4482 18.4108 43.4144 22.8672C43.3408 32.5659 35.3743 40.371 25.6163 40.3136C20.6032 40.2763 16.0755 38.1502 12.8892 34.784C10.1569 31.6607 8.50787 27.568 8.54166 23.1116C8.61519 13.4126 16.5821 5.59279 26.3394 5.6652Z" stroke="url(#paint7_linear_3186_48302)" stroke-width="0.43125"/>
  <path d="M26.3394 5.6652C31.3526 5.7024 35.8804 7.82854 39.0668 11.1948C41.7991 14.3181 43.4482 18.4108 43.4144 22.8672C43.3408 32.5659 35.3743 40.371 25.6163 40.3136C20.6032 40.2763 16.0755 38.1502 12.8892 34.784C10.1569 31.6607 8.50787 27.568 8.54166 23.1116C8.61519 13.4126 16.5821 5.59279 26.3394 5.6652Z" stroke="url(#paint8_linear_3186_48302)" stroke-width="0.43125"/>
  <g filter="url(#filter0_f_3186_48302)">
    <path d="M46.4937 12.8103C47.7379 15.6712 48.426 18.8229 48.4008 22.1463C48.3048 34.8106 37.9028 44.9991 25.1657 44.9046C17.5116 44.8478 10.7559 41.0807 6.6062 35.3468C7.27046 36.4333 8.03405 37.4616 8.87735 38.4119C13.0372 42.8086 18.9499 45.5861 25.4965 45.6347C38.2335 45.7292 48.6355 35.5407 48.7315 22.8764C48.7786 19.2778 47.9739 15.8499 46.4937 12.8103Z" fill="#06017C"/>
  </g>
  <g filter="url(#filter1_f_3186_48302)">
    <path d="M34.5933 29.5275L32.3304 29.5107L32.409 19.0913C32.4115 18.7515 32.0079 18.5707 31.749 18.791L27.4589 22.4621L27.4061 29.4676L25.2236 29.4513L25.2806 21.8932C25.284 21.4423 25.1778 21.0286 24.962 20.6618C24.7462 20.2918 24.4527 19.9974 24.0847 19.7819C23.7198 19.5664 23.2996 19.4553 22.8399 19.4518L22.7596 19.4512C22.2999 19.4478 21.878 19.5526 21.51 19.7627C21.1387 19.9727 20.8408 20.2626 20.6195 20.6294C20.4014 20.993 20.2857 21.405 20.2823 21.8559L20.2253 29.414L18.0428 29.3977L18.0998 21.8396C18.1057 21.0553 18.2976 20.3326 18.669 19.6811C19.0436 19.0297 19.5843 18.5066 20.2815 18.1275C20.9755 17.7484 21.8191 17.5578 22.7899 17.565L22.8316 17.5653C23.7992 17.5726 24.6431 17.7726 25.3312 18.1652C26.0226 18.5578 26.5586 19.089 26.9201 19.7427C26.9709 19.832 27.0152 19.9244 27.0595 20.0169L29.3954 18.0208C29.4537 17.9704 29.5278 17.9424 29.6082 17.943L34.3589 17.9784C34.5357 17.9798 34.6761 18.1205 34.6747 18.2952L34.5901 29.5243L34.5933 29.5275Z" fill="#544DE9"/>
  </g>
  <g filter="url(#filter2_di_3186_48302)">
    <path d="M33.7891 28.4431L31.5262 28.4262L31.6048 18.0068C31.6073 17.667 31.2037 17.4862 30.9448 17.7066L26.6547 21.3776L26.6019 28.3831L24.4194 28.3668L24.4764 20.8087C24.4798 20.3578 24.3736 19.9441 24.1578 19.5773C23.942 19.2073 23.6485 18.9129 23.2805 18.6974C22.9156 18.4819 22.4954 18.3708 22.0357 18.3674L21.9554 18.3668C21.4957 18.3633 21.0738 18.4682 20.7058 18.6782C20.3345 18.8882 20.0366 19.1782 19.8153 19.5449C19.5972 19.9085 19.4815 20.3205 19.4781 20.7715L19.4211 28.3295L17.2386 28.3132L17.2956 20.7552C17.3015 19.9708 17.4934 19.2481 17.8648 18.5967C18.2394 17.9452 18.7801 17.4221 19.4773 17.043C20.1713 16.6639 21.0149 16.4733 21.9857 16.4805L22.0274 16.4809C22.995 16.4881 23.8389 16.6881 24.527 17.0807C25.2184 17.4733 25.7544 18.0045 26.1159 18.6582C26.1667 18.7475 26.211 18.84 26.2553 18.9324L28.5912 16.9363C28.6495 16.886 28.7236 16.8579 28.804 16.8585L33.5547 16.894C33.7315 16.8953 33.8719 17.0361 33.8705 17.2107L33.7859 28.4399L33.7891 28.4431Z" fill="#E8E7FF"/>
    <path d="M33.7891 28.4431L31.5262 28.4262L31.6048 18.0068C31.6073 17.667 31.2037 17.4862 30.9448 17.7066L26.6547 21.3776L26.6019 28.3831L24.4194 28.3668L24.4764 20.8087C24.4798 20.3578 24.3736 19.9441 24.1578 19.5773C23.942 19.2073 23.6485 18.9129 23.2805 18.6974C22.9156 18.4819 22.4954 18.3708 22.0357 18.3674L21.9554 18.3668C21.4957 18.3633 21.0738 18.4682 20.7058 18.6782C20.3345 18.8882 20.0366 19.1782 19.8153 19.5449C19.5972 19.9085 19.4815 20.3205 19.4781 20.7715L19.4211 28.3295L17.2386 28.3132L17.2956 20.7552C17.3015 19.9708 17.4934 19.2481 17.8648 18.5967C18.2394 17.9452 18.7801 17.4221 19.4773 17.043C20.1713 16.6639 21.0149 16.4733 21.9857 16.4805L22.0274 16.4809C22.995 16.4881 23.8389 16.6881 24.527 17.0807C25.2184 17.4733 25.7544 18.0045 26.1159 18.6582C26.1667 18.7475 26.211 18.84 26.2553 18.9324L28.5912 16.9363C28.6495 16.886 28.7236 16.8579 28.804 16.8585L33.5547 16.894C33.7315 16.8953 33.8719 17.0361 33.8705 17.2107L33.7859 28.4399L33.7891 28.4431Z" fill="url(#paint9_linear_3186_48302)" fill-opacity="0.2"/>
    <path d="M33.7891 28.4431L31.5262 28.4262L31.6048 18.0068C31.6073 17.667 31.2037 17.4862 30.9448 17.7066L26.6547 21.3776L26.6019 28.3831L24.4194 28.3668L24.4764 20.8087C24.4798 20.3578 24.3736 19.9441 24.1578 19.5773C23.942 19.2073 23.6485 18.9129 23.2805 18.6974C22.9156 18.4819 22.4954 18.3708 22.0357 18.3674L21.9554 18.3668C21.4957 18.3633 21.0738 18.4682 20.7058 18.6782C20.3345 18.8882 20.0366 19.1782 19.8153 19.5449C19.5972 19.9085 19.4815 20.3205 19.4781 20.7715L19.4211 28.3295L17.2386 28.3132L17.2956 20.7552C17.3015 19.9708 17.4934 19.2481 17.8648 18.5967C18.2394 17.9452 18.7801 17.4221 19.4773 17.043C20.1713 16.6639 21.0149 16.4733 21.9857 16.4805L22.0274 16.4809C22.995 16.4881 23.8389 16.6881 24.527 17.0807C25.2184 17.4733 25.7544 18.0045 26.1159 18.6582C26.1667 18.7475 26.211 18.84 26.2553 18.9324L28.5912 16.9363C28.6495 16.886 28.7236 16.8579 28.804 16.8585L33.5547 16.894C33.7315 16.8953 33.8719 17.0361 33.8705 17.2107L33.7859 28.4399L33.7891 28.4431Z" fill="url(#paint10_linear_3186_48302)" fill-opacity="0.2"/>
    <path d="M24.527 17.0807C23.8389 16.6881 22.995 16.4881 22.0274 16.4809L21.9857 16.4805C21.0149 16.4733 20.1713 16.6639 19.4773 17.043C18.7801 17.4221 18.2394 17.9452 17.8648 18.5967M24.527 17.0807L26.6547 21.3776L26.6073 27.6644L25.8886 27.659M24.527 17.0807C25.0868 17.3986 25.5448 17.8074 25.8908 18.2985L24.527 17.0807ZM17.8648 18.5967C17.4934 19.2481 17.3015 19.9708 17.2956 20.7552L17.244 27.5945L17.9628 27.5999M17.8648 18.5967L18.4879 18.9549C18.4881 18.9545 18.4883 18.9541 18.4885 18.9537M17.8648 18.5967L18.4892 18.9526C18.489 18.953 18.4888 18.9534 18.4885 18.9537M17.9628 27.5999L17.9574 28.3186L18.7024 28.3242L18.7078 27.6054M17.9628 27.5999L18.7078 27.6054M17.9628 27.5999L18.0144 20.7605C18.0194 20.095 18.1808 19.4941 18.4885 18.9537M18.7078 27.6054L19.4266 27.6108L19.4781 20.7715C19.4815 20.3205 19.5972 19.9085 19.8153 19.5449C20.0366 19.1782 20.3345 18.8882 20.7058 18.6782M18.7078 27.6054L18.7594 20.7661C18.7637 20.1911 18.9125 19.6526 19.1989 19.1752L19.1999 19.1736L19.1999 19.1736C19.4846 18.7019 19.872 18.3244 20.3507 18.0533M20.7058 18.6782C21.0738 18.4682 21.4957 18.3633 21.9554 18.3668L22.0357 18.3674C22.4954 18.3708 22.9156 18.4819 23.2805 18.6974M20.7058 18.6782L20.3519 18.0526C20.3515 18.0528 20.3511 18.0531 20.3507 18.0533M20.7058 18.6782L20.3496 18.054C20.35 18.0537 20.3504 18.0535 20.3507 18.0533M23.2805 18.6974C23.6485 18.9129 23.942 19.2073 24.1578 19.5773M23.2805 18.6974L23.646 18.0786C23.6457 18.0783 23.6453 18.0781 23.6449 18.0779M23.2805 18.6974L23.6437 18.0772C23.6441 18.0774 23.6445 18.0776 23.6449 18.0779M24.1578 19.5773C24.3736 19.9441 24.4798 20.3578 24.4764 20.8087L24.4248 27.6481L25.1435 27.6535M24.1578 19.5773L24.7787 19.2152C24.7785 19.2148 24.7782 19.2144 24.778 19.214M24.1578 19.5773L24.7773 19.2128C24.7775 19.2132 24.7778 19.2136 24.778 19.214M25.1435 27.6535L25.1381 28.3722L25.8832 28.3777L25.8886 27.659M25.1435 27.6535L25.8886 27.659M25.1435 27.6535L25.1951 20.8141C25.1994 20.2432 25.0639 19.7005 24.778 19.214M25.8886 27.659L25.936 21.3722L25.9385 21.0446L26.1875 20.8315L29.9802 17.5861M29.9802 17.5861L28.9462 17.5784M29.9802 17.5861L30.8473 17.5925L30.8478 17.5925L32.2531 17.603M29.9802 17.5861L30.4776 17.1605L30.4789 17.1593C31.0788 16.6485 31.9941 16.9116 32.2531 17.603M24.778 19.214C24.5005 18.7387 24.1191 18.3558 23.6449 18.0779M23.6449 18.0779C23.1616 17.7927 22.6154 17.6529 22.0411 17.6486L21.9608 17.648C21.3865 17.6438 20.8383 17.7754 20.3507 18.0533M18.4885 18.9537C18.7939 18.4233 19.2351 17.9928 19.8206 17.6745L19.8219 17.6738C20.3877 17.3647 21.1055 17.1928 21.9802 17.1993L22.022 17.1996C22.8958 17.2061 23.6125 17.3865 24.1708 17.705L24.172 17.7057C24.7566 18.0377 25.194 18.4763 25.4869 19.0061L25.4869 19.0061L25.4911 19.0134C25.5273 19.0773 25.561 19.1469 25.6072 19.2431L26.0113 20.0863L26.7222 19.4788L28.9462 17.5784M28.9462 17.5784L29.0581 17.4827L29.0581 17.4828L29.0614 17.4799C29.0603 17.4809 29.0592 17.4818 29.0581 17.4827C28.9852 17.5444 28.8919 17.578 28.7985 17.5773L28.9462 17.5784ZM32.2531 17.603C32.2993 17.7264 32.3246 17.8635 32.3235 18.0122L32.2503 27.7128L33.0725 27.719L33.1488 17.6097L32.2531 17.603Z" stroke="url(#paint11_linear_3186_48302)" stroke-width="1.4375"/>
  </g>
  <defs>
    <filter id="filter0_f_3186_48302" x="0.856201" y="7.06055" width="53.6272" height="44.3247" filterUnits="userSpaceOnUse" color-interpolation-filters="sRGB">
      <feFlood flood-opacity="0" result="BackgroundImageFix"/>
      <feBlend mode="normal" in="SourceGraphic" in2="BackgroundImageFix" result="shape"/>
      <feGaussianBlur stdDeviation="2.875" result="effect1_foregroundBlur_3186_48302"/>
    </filter>
    <filter id="filter1_f_3186_48302" x="3.66772" y="3.18994" width="45.3821" height="40.7124" filterUnits="userSpaceOnUse" color-interpolation-filters="sRGB">
      <feFlood flood-opacity="0" result="BackgroundImageFix"/>
      <feBlend mode="normal" in="SourceGraphic" in2="BackgroundImageFix" result="shape"/>
      <feGaussianBlur stdDeviation="7.1875" result="effect1_foregroundBlur_3186_48302"/>
    </filter>
    <filter id="filter2_di_3186_48302" x="15.801" y="15.043" width="22.3821" height="17.7124" filterUnits="userSpaceOnUse" color-interpolation-filters="sRGB">
      <feFlood flood-opacity="0" result="BackgroundImageFix"/>
      <feColorMatrix in="SourceAlpha" type="matrix" values="0 0 0 0 0 0 0 0 0 0 0 0 0 0 0 0 0 0 127 0" result="hardAlpha"/>
      <feOffset dx="1.4375" dy="1.4375"/>
      <feGaussianBlur stdDeviation="1.4375"/>
      <feComposite in2="hardAlpha" operator="out"/>
      <feColorMatrix type="matrix" values="0 0 0 0 0.0235294 0 0 0 0 0.00392157 0 0 0 0 0.486275 0 0 0 0.3 0"/>
      <feBlend mode="normal" in2="BackgroundImageFix" result="effect1_dropShadow_3186_48302"/>
      <feBlend mode="normal" in="SourceGraphic" in2="effect1_dropShadow_3186_48302" result="shape"/>
      <feColorMatrix in="SourceAlpha" type="matrix" values="0 0 0 0 0 0 0 0 0 0 0 0 0 0 0 0 0 0 127 0" result="hardAlpha"/>
      <feOffset dy="1.4375"/>
      <feComposite in2="hardAlpha" operator="arithmetic" k2="-1" k3="1"/>
      <feColorMatrix type="matrix" values="0 0 0 0 1 0 0 0 0 1 0 0 0 0 1 0 0 0 0.3 0"/>
      <feBlend mode="normal" in2="shape" result="effect2_innerShadow_3186_48302"/>
    </filter>
    <radialGradient id="paint0_radial_3186_48302" cx="0" cy="0" r="1" gradientUnits="userSpaceOnUse" gradientTransform="translate(10.126 0.20072) rotate(63.7455) scale(57.3867 57.5529)">
      <stop stop-color="#807AFF"/>
      <stop offset="0.435789" stop-color="#6E67FF"/>
      <stop offset="0.963542" stop-color="#4D47EB"/>
    </radialGradient>
    <linearGradient id="paint1_linear_3186_48302" x1="14.8258" y1="6.5779" x2="29.1349" y2="35.7573" gradientUnits="userSpaceOnUse">
      <stop stop-color="#9F9FA3"/>
      <stop offset="0.432899" stop-color="#4B45E7" stop-opacity="0"/>
    </linearGradient>
    <radialGradient id="paint2_radial_3186_48302" cx="0" cy="0" r="1" gradientUnits="userSpaceOnUse" gradientTransform="translate(38.0389 40.6215) rotate(-111.28) scale(44.7328 44.8923)">
      <stop offset="0.0625" stop-color="#635CFC"/>
      <stop offset="1" stop-color="#6862FD"/>
    </radialGradient>
    <linearGradient id="paint3_linear_3186_48302" x1="14.14" y1="7.788" x2="41.3879" y2="21.0602" gradientUnits="userSpaceOnUse">
      <stop stop-color="#3B34D0"/>
      <stop offset="1" stop-color="#5952F3" stop-opacity="0"/>
    </linearGradient>
    <linearGradient id="paint4_linear_3186_48302" x1="23.8551" y1="50.5019" x2="28.342" y2="24.888" gradientUnits="userSpaceOnUse">
      <stop stop-color="#150F96"/>
      <stop offset="1" stop-color="#342EC8" stop-opacity="0"/>
    </linearGradient>
    <linearGradient id="paint5_linear_3186_48302" x1="16.2483" y1="51.7949" x2="25.7993" y2="34.0111" gradientUnits="userSpaceOnUse">
      <stop stop-color="#EAE8FF"/>
      <stop offset="1" stop-color="#514AF1"/>
    </linearGradient>
    <linearGradient id="paint6_linear_3186_48302" x1="31.818" y1="2.2516" x2="26.0104" y2="24.624" gradientUnits="userSpaceOnUse">
      <stop stop-color="#BAB8FF"/>
      <stop offset="1" stop-color="#514AF2"/>
    </linearGradient>
    <linearGradient id="paint7_linear_3186_48302" x1="0.829522" y1="9.84831" x2="17.1942" y2="24.3607" gradientUnits="userSpaceOnUse">
      <stop stop-color="#524BF5"/>
      <stop offset="1" stop-color="#150F96" stop-opacity="0"/>
    </linearGradient>
    <linearGradient id="paint8_linear_3186_48302" x1="46.8511" y1="5.60178" x2="20.7586" y2="21.7235" gradientUnits="userSpaceOnUse">
      <stop stop-color="#EAE8FF"/>
      <stop offset="1" stop-color="#514AF3" stop-opacity="0"/>
    </linearGradient>
    <linearGradient id="paint9_linear_3186_48302" x1="18.6847" y1="16.4559" x2="39.8046" y2="41.0159" gradientUnits="userSpaceOnUse">
      <stop stop-color="#938FF7"/>
      <stop offset="1" stop-color="#5F58FF" stop-opacity="0"/>
    </linearGradient>
    <linearGradient id="paint10_linear_3186_48302" x1="33.7117" y1="38.6977" x2="24.383" y2="25.3564" gradientUnits="userSpaceOnUse">
      <stop stop-color="#150F96"/>
      <stop offset="1" stop-color="#6059FF" stop-opacity="0"/>
    </linearGradient>
    <linearGradient id="paint11_linear_3186_48302" x1="19.363" y1="16.461" x2="22.3125" y2="19.1977" gradientUnits="userSpaceOnUse">
      <stop stop-color="white"/>
      <stop offset="1" stop-color="#D3D1FD" stop-opacity="0"/>
    </linearGradient>
  </defs>
</svg>
