<svg width="38" height="36" viewBox="0 0 38 36" fill="none" xmlns="http://www.w3.org/2000/svg">
<path d="M17.9525 0.373537C22.4631 0.407009 26.5369 2.32015 29.4037 5.34905C31.8621 8.15907 33.3461 11.8416 33.3157 15.8514C33.2496 24.5776 26.0819 31.5995 17.3031 31.5479C12.7926 31.5144 8.71884 29.6013 5.85214 26.5724C3.39366 23.7624 1.90969 20.0798 1.94009 16.07C2.00625 7.34368 9.17416 0.308394 17.9525 0.373537Z" fill="url(#paint0_radial_3186_48291)" stroke="url(#paint1_linear_3186_48291)" stroke-width="0.3"/>
<path d="M17.9089 3.94103C21.3963 3.96691 24.5461 5.44597 26.7627 7.78772C28.6634 9.96045 29.8106 12.8076 29.7871 15.9077C29.736 22.6546 24.194 28.0842 17.4058 28.0443C13.9185 28.0183 10.7688 26.5393 8.55222 24.1976C6.6515 22.0249 5.50433 19.1777 5.52783 16.0777C5.57899 9.33054 11.1212 3.89066 17.9089 3.94103Z" fill="url(#paint2_radial_3186_48291)"/>
<path d="M17.9089 3.94103C21.3963 3.96691 24.5461 5.44597 26.7627 7.78772C28.6634 9.96045 29.8106 12.8076 29.7871 15.9077C29.736 22.6546 24.194 28.0842 17.4058 28.0443C13.9185 28.0183 10.7688 26.5393 8.55222 24.1976C6.6515 22.0249 5.50433 19.1777 5.52783 16.0777C5.57899 9.33054 11.1212 3.89066 17.9089 3.94103Z" fill="url(#paint3_linear_3186_48291)" fill-opacity="0.2"/>
<path d="M17.9089 3.94103C21.3963 3.96691 24.5461 5.44597 26.7627 7.78772C28.6634 9.96045 29.8106 12.8076 29.7871 15.9077C29.736 22.6546 24.194 28.0842 17.4058 28.0443C13.9185 28.0183 10.7688 26.5393 8.55222 24.1976C6.6515 22.0249 5.50433 19.1777 5.52783 16.0777C5.57899 9.33054 11.1212 3.89066 17.9089 3.94103Z" fill="url(#paint4_linear_3186_48291)" fill-opacity="0.2"/>
<path d="M17.9089 3.94103C21.3963 3.96691 24.5461 5.44597 26.7627 7.78772C28.6634 9.96045 29.8106 12.8076 29.7871 15.9077C29.736 22.6546 24.194 28.0842 17.4058 28.0443C13.9185 28.0183 10.7688 26.5393 8.55222 24.1976C6.6515 22.0249 5.50433 19.1777 5.52783 16.0777C5.57899 9.33054 11.1212 3.89066 17.9089 3.94103Z" stroke="url(#paint5_linear_3186_48291)" stroke-width="0.3"/>
<path d="M17.9089 3.94103C21.3963 3.96691 24.5461 5.44597 26.7627 7.78772C28.6634 9.96045 29.8106 12.8076 29.7871 15.9077C29.736 22.6546 24.194 28.0842 17.4058 28.0443C13.9185 28.0183 10.7688 26.5393 8.55222 24.1976C6.6515 22.0249 5.50433 19.1777 5.52783 16.0777C5.57899 9.33054 11.1212 3.89066 17.9089 3.94103Z" stroke="url(#paint6_linear_3186_48291)" stroke-opacity="0.2" stroke-width="0.3"/>
<path d="M17.9089 3.94103C21.3963 3.96691 24.5461 5.44597 26.7627 7.78772C28.6634 9.96045 29.8106 12.8076 29.7871 15.9077C29.736 22.6546 24.194 28.0842 17.4058 28.0443C13.9185 28.0183 10.7688 26.5393 8.55222 24.1976C6.6515 22.0249 5.50433 19.1777 5.52783 16.0777C5.57899 9.33054 11.1212 3.89066 17.9089 3.94103Z" stroke="url(#paint7_linear_3186_48291)" stroke-width="0.3"/>
<path d="M17.9089 3.94103C21.3963 3.96691 24.5461 5.44597 26.7627 7.78772C28.6634 9.96045 29.8106 12.8076 29.7871 15.9077C29.736 22.6546 24.194 28.0842 17.4058 28.0443C13.9185 28.0183 10.7688 26.5393 8.55222 24.1976C6.6515 22.0249 5.50433 19.1777 5.52783 16.0777C5.57899 9.33054 11.1212 3.89066 17.9089 3.94103Z" stroke="url(#paint8_linear_3186_48291)" stroke-width="0.3"/>
<g filter="url(#filter0_f_3186_48291)">
<path d="M31.9292 8.91156C32.7947 10.9017 33.2734 13.0942 33.2559 15.4061C33.1891 24.2161 25.9529 31.3037 17.0923 31.238C11.7677 31.1985 7.0681 28.5779 4.18134 24.5891C4.64343 25.3449 5.17463 26.0603 5.76127 26.7213C8.65509 29.7799 12.7683 31.7121 17.3224 31.7459C26.183 31.8116 33.4191 24.724 33.4859 15.914C33.5187 13.4107 32.9589 11.026 31.9292 8.91156Z" fill="#06017C"/>
</g>
<g filter="url(#filter1_f_3186_48291)">
<path d="M23.6503 20.5412L22.0761 20.5295L22.1308 13.2813C22.1326 13.0449 21.8518 12.9191 21.6717 13.0724L18.6873 15.6261L18.6505 20.4995L17.1323 20.4882L17.1719 15.2304C17.1743 14.9167 17.1004 14.6289 16.9503 14.3738C16.8002 14.1164 16.596 13.9116 16.34 13.7617C16.0862 13.6117 15.7938 13.5344 15.4741 13.5321L15.4182 13.5316C15.0984 13.5293 14.8049 13.6022 14.5489 13.7483C14.2906 13.8944 14.0834 14.0961 13.9294 14.3512C13.7777 14.6042 13.6972 14.8908 13.6949 15.2045L13.6552 20.4623L12.137 20.4509L12.1766 15.1931C12.1807 14.6475 12.3142 14.1448 12.5726 13.6916C12.8331 13.2384 13.2093 12.8745 13.6943 12.6108C14.1771 12.347 14.764 12.2144 15.4392 12.2195L15.4683 12.2197C16.1414 12.2247 16.7284 12.3639 17.2071 12.637C17.6881 12.9101 18.061 13.2796 18.3125 13.7344C18.3478 13.7965 18.3786 13.8608 18.4094 13.9251L20.0344 12.5366C20.0749 12.5015 20.1265 12.482 20.1824 12.4824L23.4873 12.5071C23.6103 12.508 23.7079 12.6059 23.707 12.7274L23.6481 20.539L23.6503 20.5412Z" fill="#544DE9"/>
</g>
<g filter="url(#filter2_di_3186_48291)">
<path d="M23.0907 19.7868L21.5166 19.7751L21.5712 12.5269C21.573 12.2905 21.2922 12.1647 21.1121 12.318L18.1277 14.8717L18.091 19.7451L16.5727 19.7338L16.6124 14.476C16.6147 14.1623 16.5409 13.8746 16.3907 13.6194C16.2406 13.362 16.0364 13.1572 15.7804 13.0073C15.5266 12.8573 15.2342 12.78 14.9145 12.7777L14.8586 12.7772C14.5388 12.7749 14.2454 12.8478 13.9893 12.9939C13.7311 13.14 13.5238 13.3417 13.3698 13.5968C13.2181 13.8498 13.1377 14.1364 13.1353 14.4501L13.0957 19.7079L11.5774 19.6965L11.617 14.4387C11.6212 13.8931 11.7546 13.3904 12.013 12.9372C12.2736 12.484 12.6497 12.1201 13.1347 11.8564C13.6175 11.5926 14.2044 11.4601 14.8797 11.4651L14.9087 11.4653C15.5818 11.4703 16.1689 11.6095 16.6476 11.8826C17.1285 12.1557 17.5014 12.5252 17.7529 12.98C17.7882 13.0421 17.819 13.1064 17.8499 13.1707L19.4748 11.7822C19.5154 11.7471 19.5669 11.7276 19.6228 11.728L22.9277 11.7527C23.0507 11.7536 23.1483 11.8515 23.1474 11.973L23.0885 19.7846L23.0907 19.7868Z" fill="#E8E7FF"/>
<path d="M23.0907 19.7868L21.5166 19.7751L21.5712 12.5269C21.573 12.2905 21.2922 12.1647 21.1121 12.318L18.1277 14.8717L18.091 19.7451L16.5727 19.7338L16.6124 14.476C16.6147 14.1623 16.5409 13.8746 16.3907 13.6194C16.2406 13.362 16.0364 13.1572 15.7804 13.0073C15.5266 12.8573 15.2342 12.78 14.9145 12.7777L14.8586 12.7772C14.5388 12.7749 14.2454 12.8478 13.9893 12.9939C13.7311 13.14 13.5238 13.3417 13.3698 13.5968C13.2181 13.8498 13.1377 14.1364 13.1353 14.4501L13.0957 19.7079L11.5774 19.6965L11.617 14.4387C11.6212 13.8931 11.7546 13.3904 12.013 12.9372C12.2736 12.484 12.6497 12.1201 13.1347 11.8564C13.6175 11.5926 14.2044 11.4601 14.8797 11.4651L14.9087 11.4653C15.5818 11.4703 16.1689 11.6095 16.6476 11.8826C17.1285 12.1557 17.5014 12.5252 17.7529 12.98C17.7882 13.0421 17.819 13.1064 17.8499 13.1707L19.4748 11.7822C19.5154 11.7471 19.5669 11.7276 19.6228 11.728L22.9277 11.7527C23.0507 11.7536 23.1483 11.8515 23.1474 11.973L23.0885 19.7846L23.0907 19.7868Z" fill="url(#paint9_linear_3186_48291)" fill-opacity="0.2"/>
<path d="M23.0907 19.7868L21.5166 19.7751L21.5712 12.5269C21.573 12.2905 21.2922 12.1647 21.1121 12.318L18.1277 14.8717L18.091 19.7451L16.5727 19.7338L16.6124 14.476C16.6147 14.1623 16.5409 13.8746 16.3907 13.6194C16.2406 13.362 16.0364 13.1572 15.7804 13.0073C15.5266 12.8573 15.2342 12.78 14.9145 12.7777L14.8586 12.7772C14.5388 12.7749 14.2454 12.8478 13.9893 12.9939C13.7311 13.14 13.5238 13.3417 13.3698 13.5968C13.2181 13.8498 13.1377 14.1364 13.1353 14.4501L13.0957 19.7079L11.5774 19.6965L11.617 14.4387C11.6212 13.8931 11.7546 13.3904 12.013 12.9372C12.2736 12.484 12.6497 12.1201 13.1347 11.8564C13.6175 11.5926 14.2044 11.4601 14.8797 11.4651L14.9087 11.4653C15.5818 11.4703 16.1689 11.6095 16.6476 11.8826C17.1285 12.1557 17.5014 12.5252 17.7529 12.98C17.7882 13.0421 17.819 13.1064 17.8499 13.1707L19.4748 11.7822C19.5154 11.7471 19.5669 11.7276 19.6228 11.728L22.9277 11.7527C23.0507 11.7536 23.1483 11.8515 23.1474 11.973L23.0885 19.7846L23.0907 19.7868Z" fill="url(#paint10_linear_3186_48291)" fill-opacity="0.2"/>
<path d="M22.5923 19.2831L22.0203 19.2788L22.0712 12.5306C22.072 12.4271 22.0544 12.3318 22.0222 12.2459L22.6453 12.2506L22.5923 19.2831ZM19.7218 12.2288L20.4411 12.2342L17.8027 14.4918L17.6295 14.6401L17.6277 14.868L17.5948 19.2414L17.0765 19.2375L17.1123 14.4797C17.1153 14.0826 17.0211 13.7051 16.8222 13.3666C16.6293 13.0362 16.3642 12.7701 16.0347 12.5768C15.6983 12.378 15.3181 12.2807 14.9183 12.2777L14.8624 12.2773C14.4629 12.2743 14.0815 12.3658 13.7423 12.5592C13.4093 12.7478 13.1398 13.0104 12.9418 13.3385L12.9411 13.3396C12.7419 13.6717 12.6383 14.0463 12.6353 14.4463L12.5994 19.2041L12.0811 19.2003L12.117 14.4425C12.1205 13.9795 12.2328 13.5615 12.4469 13.1856C12.6593 12.8166 12.9663 12.5171 13.3736 12.2956L13.3736 12.2956L13.3744 12.2952C13.768 12.0801 14.2674 11.9605 14.8759 11.9651L14.905 11.9653C15.5128 11.9698 16.0114 12.0953 16.3998 12.3169L16.4006 12.3174C16.8073 12.5483 17.1115 12.8535 17.3153 13.222L17.3153 13.222L17.3182 13.2271C17.3434 13.2715 17.3669 13.32 17.399 13.3869L17.6801 13.9734L18.1747 13.5508L19.7218 12.2288Z" stroke="url(#paint11_linear_3186_48291)"/>
</g>
<defs>
<filter id="filter0_f_3186_48291" x="0.181641" y="4.91162" width="37.3057" height="30.835" filterUnits="userSpaceOnUse" color-interpolation-filters="sRGB">
<feFlood flood-opacity="0" result="BackgroundImageFix"/>
<feBlend mode="normal" in="SourceGraphic" in2="BackgroundImageFix" result="shape"/>
<feGaussianBlur stdDeviation="2" result="effect1_foregroundBlur_3186_48291"/>
</filter>
<filter id="filter1_f_3186_48291" x="2.13672" y="2.21924" width="31.5703" height="28.3218" filterUnits="userSpaceOnUse" color-interpolation-filters="sRGB">
<feFlood flood-opacity="0" result="BackgroundImageFix"/>
<feBlend mode="normal" in="SourceGraphic" in2="BackgroundImageFix" result="shape"/>
<feGaussianBlur stdDeviation="5" result="effect1_foregroundBlur_3186_48291"/>
</filter>
<filter id="filter2_di_3186_48291" x="10.5771" y="10.4648" width="15.5703" height="12.3218" filterUnits="userSpaceOnUse" color-interpolation-filters="sRGB">
<feFlood flood-opacity="0" result="BackgroundImageFix"/>
<feColorMatrix in="SourceAlpha" type="matrix" values="0 0 0 0 0 0 0 0 0 0 0 0 0 0 0 0 0 0 127 0" result="hardAlpha"/>
<feOffset dx="1" dy="1"/>
<feGaussianBlur stdDeviation="1"/>
<feComposite in2="hardAlpha" operator="out"/>
<feColorMatrix type="matrix" values="0 0 0 0 0.0235294 0 0 0 0 0.00392157 0 0 0 0 0.486275 0 0 0 0.3 0"/>
<feBlend mode="normal" in2="BackgroundImageFix" result="effect1_dropShadow_3186_48291"/>
<feBlend mode="normal" in="SourceGraphic" in2="effect1_dropShadow_3186_48291" result="shape"/>
<feColorMatrix in="SourceAlpha" type="matrix" values="0 0 0 0 0 0 0 0 0 0 0 0 0 0 0 0 0 0 127 0" result="hardAlpha"/>
<feOffset dy="1"/>
<feComposite in2="hardAlpha" operator="arithmetic" k2="-1" k3="1"/>
<feColorMatrix type="matrix" values="0 0 0 0 1 0 0 0 0 1 0 0 0 0 1 0 0 0 0.3 0"/>
<feBlend mode="normal" in2="shape" result="effect2_innerShadow_3186_48291"/>
</filter>
<radialGradient id="paint0_radial_3186_48291" cx="0" cy="0" r="1" gradientUnits="userSpaceOnUse" gradientTransform="translate(6.62954 0.139504) rotate(63.7455) scale(39.9212 40.0368)">
<stop stop-color="#807AFF"/>
<stop offset="0.435789" stop-color="#6E67FF"/>
<stop offset="0.963542" stop-color="#4D47EB"/>
</radialGradient>
<linearGradient id="paint1_linear_3186_48291" x1="9.89897" y1="4.5758" x2="19.8531" y2="24.8745" gradientUnits="userSpaceOnUse">
<stop stop-color="#9F9FA3"/>
<stop offset="0.432899" stop-color="#4B45E7" stop-opacity="0"/>
</linearGradient>
<radialGradient id="paint2_radial_3186_48291" cx="0" cy="0" r="1" gradientUnits="userSpaceOnUse" gradientTransform="translate(26.0476 28.2584) rotate(-111.28) scale(31.1184 31.2294)">
<stop offset="0.0625" stop-color="#635CFC"/>
<stop offset="1" stop-color="#6862FD"/>
</radialGradient>
<linearGradient id="paint3_linear_3186_48291" x1="9.42233" y1="5.41776" x2="28.3774" y2="14.6506" gradientUnits="userSpaceOnUse">
<stop stop-color="#3B34D0"/>
<stop offset="1" stop-color="#5952F3" stop-opacity="0"/>
</linearGradient>
<linearGradient id="paint4_linear_3186_48291" x1="16.1807" y1="35.1318" x2="19.302" y2="17.3134" gradientUnits="userSpaceOnUse">
<stop stop-color="#150F96"/>
<stop offset="1" stop-color="#342EC8" stop-opacity="0"/>
</linearGradient>
<linearGradient id="paint5_linear_3186_48291" x1="10.889" y1="36.0313" x2="17.5331" y2="23.6599" gradientUnits="userSpaceOnUse">
<stop stop-color="#EAE8FF"/>
<stop offset="1" stop-color="#514AF1"/>
</linearGradient>
<linearGradient id="paint6_linear_3186_48291" x1="21.7201" y1="1.56635" x2="17.68" y2="17.1298" gradientUnits="userSpaceOnUse">
<stop stop-color="#BAB8FF"/>
<stop offset="1" stop-color="#514AF2"/>
</linearGradient>
<linearGradient id="paint7_linear_3186_48291" x1="0.162869" y1="6.85102" x2="11.547" y2="16.9466" gradientUnits="userSpaceOnUse">
<stop stop-color="#524BF5"/>
<stop offset="1" stop-color="#150F96" stop-opacity="0"/>
</linearGradient>
<linearGradient id="paint8_linear_3186_48291" x1="32.1779" y1="3.89691" x2="14.0266" y2="15.112" gradientUnits="userSpaceOnUse">
<stop stop-color="#EAE8FF"/>
<stop offset="1" stop-color="#514AF3" stop-opacity="0"/>
</linearGradient>
<linearGradient id="paint9_linear_3186_48291" x1="12.5834" y1="11.448" x2="27.2755" y2="28.5332" gradientUnits="userSpaceOnUse">
<stop stop-color="#938FF7"/>
<stop offset="1" stop-color="#5F58FF" stop-opacity="0"/>
</linearGradient>
<linearGradient id="paint10_linear_3186_48291" x1="23.0369" y1="26.9205" x2="16.5474" y2="17.6396" gradientUnits="userSpaceOnUse">
<stop stop-color="#150F96"/>
<stop offset="1" stop-color="#6059FF" stop-opacity="0"/>
</linearGradient>
<linearGradient id="paint11_linear_3186_48291" x1="13.0552" y1="11.4515" x2="15.107" y2="13.3553" gradientUnits="userSpaceOnUse">
<stop stop-color="white"/>
<stop offset="1" stop-color="#D3D1FD" stop-opacity="0"/>
</linearGradient>
</defs>
</svg>
